%TF.GenerationSoftware,KiCad,Pcbnew,8.0.0*%
%TF.CreationDate,2024-03-05T15:49:07-06:00*%
%TF.ProjectId,handheld_tracker,68616e64-6865-46c6-945f-747261636b65,rev?*%
%TF.SameCoordinates,Original*%
%TF.FileFunction,Soldermask,Bot*%
%TF.FilePolarity,Negative*%
%FSLAX46Y46*%
G04 Gerber Fmt 4.6, Leading zero omitted, Abs format (unit mm)*
G04 Created by KiCad (PCBNEW 8.0.0) date 2024-03-05 15:49:07*
%MOMM*%
%LPD*%
G01*
G04 APERTURE LIST*
G04 Aperture macros list*
%AMRoundRect*
0 Rectangle with rounded corners*
0 $1 Rounding radius*
0 $2 $3 $4 $5 $6 $7 $8 $9 X,Y pos of 4 corners*
0 Add a 4 corners polygon primitive as box body*
4,1,4,$2,$3,$4,$5,$6,$7,$8,$9,$2,$3,0*
0 Add four circle primitives for the rounded corners*
1,1,$1+$1,$2,$3*
1,1,$1+$1,$4,$5*
1,1,$1+$1,$6,$7*
1,1,$1+$1,$8,$9*
0 Add four rect primitives between the rounded corners*
20,1,$1+$1,$2,$3,$4,$5,0*
20,1,$1+$1,$4,$5,$6,$7,0*
20,1,$1+$1,$6,$7,$8,$9,0*
20,1,$1+$1,$8,$9,$2,$3,0*%
G04 Aperture macros list end*
%ADD10R,1.700000X1.700000*%
%ADD11O,1.700000X1.700000*%
%ADD12RoundRect,0.200100X-0.949900X-0.949900X0.949900X-0.949900X0.949900X0.949900X-0.949900X0.949900X0*%
%ADD13C,2.500000*%
%ADD14R,1.350000X1.350000*%
%ADD15C,1.350000*%
G04 APERTURE END LIST*
D10*
%TO.C,J5*%
X139500000Y-56000000D03*
D11*
X142040000Y-56000000D03*
X144580000Y-56000000D03*
%TD*%
D10*
%TO.C,J4*%
X109500000Y-59075000D03*
D11*
X109500000Y-56535000D03*
X109500000Y-53995000D03*
X109500000Y-51455000D03*
X109500000Y-48915000D03*
%TD*%
D12*
%TO.C,AE1*%
X163960000Y-51040000D03*
D13*
X161420000Y-48500000D03*
X161420000Y-53580000D03*
X166500000Y-48500000D03*
X166500000Y-53580000D03*
%TD*%
D10*
%TO.C,J2*%
X167500000Y-79225000D03*
D11*
X167500000Y-81765000D03*
%TD*%
D10*
%TO.C,J1*%
X116225000Y-71100000D03*
D11*
X118765000Y-71100000D03*
X121305000Y-71100000D03*
X123845000Y-71100000D03*
X126385000Y-71100000D03*
X128925000Y-71100000D03*
X131465000Y-71100000D03*
X134005000Y-71100000D03*
%TD*%
D10*
%TO.C,J3*%
X139485000Y-49000000D03*
D11*
X142025000Y-49000000D03*
%TD*%
D14*
%TO.C,U2*%
X151000000Y-72500000D03*
D15*
X153000000Y-72500000D03*
X155000000Y-72500000D03*
X157000000Y-72500000D03*
X159000000Y-72500000D03*
X161000000Y-72500000D03*
X163000000Y-72500000D03*
X165000000Y-72500000D03*
X165000000Y-58900000D03*
X163000000Y-58900000D03*
X161000000Y-58900000D03*
X159000000Y-58900000D03*
X157000000Y-58900000D03*
X155000000Y-58900000D03*
X153000000Y-58900000D03*
X151000000Y-58900000D03*
%TD*%
M02*
