M48
; DRILL file {KiCad 8.0.0} date 2024-03-05T15:50:10-0600
; FORMAT={-:-/ absolute / inch / decimal}
; #@! TF.CreationDate,2024-03-05T15:50:10-06:00
; #@! TF.GenerationSoftware,Kicad,Pcbnew,8.0.0
; #@! TF.FileFunction,MixedPlating,1,2
FMAT,2
INCH
; #@! TA.AperFunction,Plated,PTH,ViaDrill
T1C0.0157
; #@! TA.AperFunction,Plated,PTH,ComponentDrill
T2C0.0315
; #@! TA.AperFunction,Plated,PTH,ComponentDrill
T3C0.0394
; #@! TA.AperFunction,Plated,PTH,ComponentDrill
T4C0.0591
; #@! TA.AperFunction,Plated,PTH,ComponentDrill
T5C0.0669
%
G90
G05
T1
X4.5098Y-1.9862
X4.5276Y-2.2244
X4.5669Y-4.311
X4.6063Y-4.7244
X4.6457Y-5.1378
X4.685Y-5.5512
X4.7933Y-2.5886
X5.0787Y-3.2874
X5.0787Y-4.311
X5.1181Y-3.248
X5.1181Y-4.7244
X5.1575Y-5.1378
X5.1758Y-2.6982
X5.1969Y-3.6417
X5.1969Y-5.5512
X5.2165Y-2.2441
X5.2215Y-3.6762
X5.2559Y-3.7205
X5.2953Y-3.7598
X5.4528Y-3.6614
X5.5327Y-3.624
X5.5906Y-2.8543
X5.5906Y-3.878
X5.5906Y-4.311
X5.6299Y-3.8976
X5.6299Y-4.7244
X5.6693Y-3.9173
X5.6693Y-5.1378
X5.7087Y-3.7205
X5.7087Y-3.937
X5.7087Y-5.5512
X5.7677Y-3.937
X5.7874Y-3.686
X5.8268Y-4.0354
X5.8661Y-3.4055
X5.8661Y-3.6575
X5.9252Y-5.374
X5.9449Y-2.5984
X5.9843Y-3.7992
X6.0236Y-3.1299
X6.0236Y-3.7205
X6.063Y-3.189
X6.063Y-3.7008
X6.0827Y-3.4449
X6.1024Y-2.9724
X6.1024Y-3.6811
X6.1024Y-4.311
X6.122Y-3.4843
X6.122Y-3.5433
X6.1417Y-3.6614
X6.1417Y-4.7244
X6.1811Y-2.2441
X6.1811Y-2.9331
X6.1811Y-3.6417
X6.1811Y-5.1378
X6.437Y-5.3346
T2
X5.9449Y-2.3189
X5.9449Y-2.8543
X6.0236Y-2.3189
X6.0236Y-2.8543
X6.1024Y-2.3189
X6.1024Y-2.8543
X6.1811Y-2.3189
X6.1811Y-2.8543
X6.2598Y-2.3189
X6.2598Y-2.8543
X6.3386Y-2.3189
X6.3386Y-2.8543
X6.4173Y-2.3189
X6.4173Y-2.8543
X6.4961Y-2.3189
X6.4961Y-2.8543
T3
X4.311Y-1.9258
X4.311Y-2.0258
X4.311Y-2.1258
X4.311Y-2.2258
X4.311Y-2.3258
X4.5758Y-2.7992
X4.6758Y-2.7992
X4.7758Y-2.7992
X4.8758Y-2.7992
X4.9758Y-2.7992
X5.0758Y-2.7992
X5.1758Y-2.7992
X5.2758Y-2.7992
X5.4915Y-1.9291
X5.4921Y-2.2047
X5.5915Y-1.9291
X5.5921Y-2.2047
X5.6921Y-2.2047
X6.5945Y-3.1191
X6.5945Y-3.2191
T4
X6.4551Y-2.0094
T5
X6.3551Y-1.9094
X6.3551Y-2.1094
X6.5551Y-1.9094
X6.5551Y-2.1094
M30
