%TF.GenerationSoftware,KiCad,Pcbnew,8.0.0*%
%TF.CreationDate,2024-03-05T15:49:07-06:00*%
%TF.ProjectId,handheld_tracker,68616e64-6865-46c6-945f-747261636b65,rev?*%
%TF.SameCoordinates,Original*%
%TF.FileFunction,Copper,L2,Bot*%
%TF.FilePolarity,Positive*%
%FSLAX46Y46*%
G04 Gerber Fmt 4.6, Leading zero omitted, Abs format (unit mm)*
G04 Created by KiCad (PCBNEW 8.0.0) date 2024-03-05 15:49:07*
%MOMM*%
%LPD*%
G01*
G04 APERTURE LIST*
G04 Aperture macros list*
%AMRoundRect*
0 Rectangle with rounded corners*
0 $1 Rounding radius*
0 $2 $3 $4 $5 $6 $7 $8 $9 X,Y pos of 4 corners*
0 Add a 4 corners polygon primitive as box body*
4,1,4,$2,$3,$4,$5,$6,$7,$8,$9,$2,$3,0*
0 Add four circle primitives for the rounded corners*
1,1,$1+$1,$2,$3*
1,1,$1+$1,$4,$5*
1,1,$1+$1,$6,$7*
1,1,$1+$1,$8,$9*
0 Add four rect primitives between the rounded corners*
20,1,$1+$1,$2,$3,$4,$5,0*
20,1,$1+$1,$4,$5,$6,$7,0*
20,1,$1+$1,$6,$7,$8,$9,0*
20,1,$1+$1,$8,$9,$2,$3,0*%
G04 Aperture macros list end*
%ADD10C,0.300000*%
%TA.AperFunction,NonConductor*%
%ADD11C,0.300000*%
%TD*%
%TA.AperFunction,NonConductor*%
%ADD12C,0.200000*%
%TD*%
%TA.AperFunction,ComponentPad*%
%ADD13R,1.700000X1.700000*%
%TD*%
%TA.AperFunction,ComponentPad*%
%ADD14O,1.700000X1.700000*%
%TD*%
%TA.AperFunction,ComponentPad*%
%ADD15RoundRect,0.200100X-0.949900X-0.949900X0.949900X-0.949900X0.949900X0.949900X-0.949900X0.949900X0*%
%TD*%
%TA.AperFunction,ComponentPad*%
%ADD16C,2.500000*%
%TD*%
%TA.AperFunction,ComponentPad*%
%ADD17R,1.350000X1.350000*%
%TD*%
%TA.AperFunction,ComponentPad*%
%ADD18C,1.350000*%
%TD*%
%TA.AperFunction,ViaPad*%
%ADD19C,0.800000*%
%TD*%
%TA.AperFunction,Conductor*%
%ADD20C,0.600000*%
%TD*%
%TA.AperFunction,Conductor*%
%ADD21C,0.300000*%
%TD*%
G04 APERTURE END LIST*
D10*
D11*
X92378328Y-101785712D02*
X92378328Y-102642855D01*
X92378328Y-102214284D02*
X90878328Y-102214284D01*
X90878328Y-102214284D02*
X91092614Y-102357141D01*
X91092614Y-102357141D02*
X91235471Y-102499998D01*
X91235471Y-102499998D02*
X91306900Y-102642855D01*
X90878328Y-100857141D02*
X90878328Y-100714284D01*
X90878328Y-100714284D02*
X90949757Y-100571427D01*
X90949757Y-100571427D02*
X91021185Y-100499999D01*
X91021185Y-100499999D02*
X91164042Y-100428570D01*
X91164042Y-100428570D02*
X91449757Y-100357141D01*
X91449757Y-100357141D02*
X91806900Y-100357141D01*
X91806900Y-100357141D02*
X92092614Y-100428570D01*
X92092614Y-100428570D02*
X92235471Y-100499999D01*
X92235471Y-100499999D02*
X92306900Y-100571427D01*
X92306900Y-100571427D02*
X92378328Y-100714284D01*
X92378328Y-100714284D02*
X92378328Y-100857141D01*
X92378328Y-100857141D02*
X92306900Y-100999999D01*
X92306900Y-100999999D02*
X92235471Y-101071427D01*
X92235471Y-101071427D02*
X92092614Y-101142856D01*
X92092614Y-101142856D02*
X91806900Y-101214284D01*
X91806900Y-101214284D02*
X91449757Y-101214284D01*
X91449757Y-101214284D02*
X91164042Y-101142856D01*
X91164042Y-101142856D02*
X91021185Y-101071427D01*
X91021185Y-101071427D02*
X90949757Y-100999999D01*
X90949757Y-100999999D02*
X90878328Y-100857141D01*
X90878328Y-99428570D02*
X90878328Y-99285713D01*
X90878328Y-99285713D02*
X90949757Y-99142856D01*
X90949757Y-99142856D02*
X91021185Y-99071428D01*
X91021185Y-99071428D02*
X91164042Y-98999999D01*
X91164042Y-98999999D02*
X91449757Y-98928570D01*
X91449757Y-98928570D02*
X91806900Y-98928570D01*
X91806900Y-98928570D02*
X92092614Y-98999999D01*
X92092614Y-98999999D02*
X92235471Y-99071428D01*
X92235471Y-99071428D02*
X92306900Y-99142856D01*
X92306900Y-99142856D02*
X92378328Y-99285713D01*
X92378328Y-99285713D02*
X92378328Y-99428570D01*
X92378328Y-99428570D02*
X92306900Y-99571428D01*
X92306900Y-99571428D02*
X92235471Y-99642856D01*
X92235471Y-99642856D02*
X92092614Y-99714285D01*
X92092614Y-99714285D02*
X91806900Y-99785713D01*
X91806900Y-99785713D02*
X91449757Y-99785713D01*
X91449757Y-99785713D02*
X91164042Y-99714285D01*
X91164042Y-99714285D02*
X91021185Y-99642856D01*
X91021185Y-99642856D02*
X90949757Y-99571428D01*
X90949757Y-99571428D02*
X90878328Y-99428570D01*
X92235471Y-98285714D02*
X92306900Y-98214285D01*
X92306900Y-98214285D02*
X92378328Y-98285714D01*
X92378328Y-98285714D02*
X92306900Y-98357142D01*
X92306900Y-98357142D02*
X92235471Y-98285714D01*
X92235471Y-98285714D02*
X92378328Y-98285714D01*
X90878328Y-97285713D02*
X90878328Y-97142856D01*
X90878328Y-97142856D02*
X90949757Y-96999999D01*
X90949757Y-96999999D02*
X91021185Y-96928571D01*
X91021185Y-96928571D02*
X91164042Y-96857142D01*
X91164042Y-96857142D02*
X91449757Y-96785713D01*
X91449757Y-96785713D02*
X91806900Y-96785713D01*
X91806900Y-96785713D02*
X92092614Y-96857142D01*
X92092614Y-96857142D02*
X92235471Y-96928571D01*
X92235471Y-96928571D02*
X92306900Y-96999999D01*
X92306900Y-96999999D02*
X92378328Y-97142856D01*
X92378328Y-97142856D02*
X92378328Y-97285713D01*
X92378328Y-97285713D02*
X92306900Y-97428571D01*
X92306900Y-97428571D02*
X92235471Y-97499999D01*
X92235471Y-97499999D02*
X92092614Y-97571428D01*
X92092614Y-97571428D02*
X91806900Y-97642856D01*
X91806900Y-97642856D02*
X91449757Y-97642856D01*
X91449757Y-97642856D02*
X91164042Y-97571428D01*
X91164042Y-97571428D02*
X91021185Y-97499999D01*
X91021185Y-97499999D02*
X90949757Y-97428571D01*
X90949757Y-97428571D02*
X90878328Y-97285713D01*
X90878328Y-95857142D02*
X90878328Y-95714285D01*
X90878328Y-95714285D02*
X90949757Y-95571428D01*
X90949757Y-95571428D02*
X91021185Y-95500000D01*
X91021185Y-95500000D02*
X91164042Y-95428571D01*
X91164042Y-95428571D02*
X91449757Y-95357142D01*
X91449757Y-95357142D02*
X91806900Y-95357142D01*
X91806900Y-95357142D02*
X92092614Y-95428571D01*
X92092614Y-95428571D02*
X92235471Y-95500000D01*
X92235471Y-95500000D02*
X92306900Y-95571428D01*
X92306900Y-95571428D02*
X92378328Y-95714285D01*
X92378328Y-95714285D02*
X92378328Y-95857142D01*
X92378328Y-95857142D02*
X92306900Y-96000000D01*
X92306900Y-96000000D02*
X92235471Y-96071428D01*
X92235471Y-96071428D02*
X92092614Y-96142857D01*
X92092614Y-96142857D02*
X91806900Y-96214285D01*
X91806900Y-96214285D02*
X91449757Y-96214285D01*
X91449757Y-96214285D02*
X91164042Y-96142857D01*
X91164042Y-96142857D02*
X91021185Y-96071428D01*
X91021185Y-96071428D02*
X90949757Y-96000000D01*
X90949757Y-96000000D02*
X90878328Y-95857142D01*
X90878328Y-94428571D02*
X90878328Y-94285714D01*
X90878328Y-94285714D02*
X90949757Y-94142857D01*
X90949757Y-94142857D02*
X91021185Y-94071429D01*
X91021185Y-94071429D02*
X91164042Y-94000000D01*
X91164042Y-94000000D02*
X91449757Y-93928571D01*
X91449757Y-93928571D02*
X91806900Y-93928571D01*
X91806900Y-93928571D02*
X92092614Y-94000000D01*
X92092614Y-94000000D02*
X92235471Y-94071429D01*
X92235471Y-94071429D02*
X92306900Y-94142857D01*
X92306900Y-94142857D02*
X92378328Y-94285714D01*
X92378328Y-94285714D02*
X92378328Y-94428571D01*
X92378328Y-94428571D02*
X92306900Y-94571429D01*
X92306900Y-94571429D02*
X92235471Y-94642857D01*
X92235471Y-94642857D02*
X92092614Y-94714286D01*
X92092614Y-94714286D02*
X91806900Y-94785714D01*
X91806900Y-94785714D02*
X91449757Y-94785714D01*
X91449757Y-94785714D02*
X91164042Y-94714286D01*
X91164042Y-94714286D02*
X91021185Y-94642857D01*
X91021185Y-94642857D02*
X90949757Y-94571429D01*
X90949757Y-94571429D02*
X90878328Y-94428571D01*
X90878328Y-93000000D02*
X90878328Y-92857143D01*
X90878328Y-92857143D02*
X90949757Y-92714286D01*
X90949757Y-92714286D02*
X91021185Y-92642858D01*
X91021185Y-92642858D02*
X91164042Y-92571429D01*
X91164042Y-92571429D02*
X91449757Y-92500000D01*
X91449757Y-92500000D02*
X91806900Y-92500000D01*
X91806900Y-92500000D02*
X92092614Y-92571429D01*
X92092614Y-92571429D02*
X92235471Y-92642858D01*
X92235471Y-92642858D02*
X92306900Y-92714286D01*
X92306900Y-92714286D02*
X92378328Y-92857143D01*
X92378328Y-92857143D02*
X92378328Y-93000000D01*
X92378328Y-93000000D02*
X92306900Y-93142858D01*
X92306900Y-93142858D02*
X92235471Y-93214286D01*
X92235471Y-93214286D02*
X92092614Y-93285715D01*
X92092614Y-93285715D02*
X91806900Y-93357143D01*
X91806900Y-93357143D02*
X91449757Y-93357143D01*
X91449757Y-93357143D02*
X91164042Y-93285715D01*
X91164042Y-93285715D02*
X91021185Y-93214286D01*
X91021185Y-93214286D02*
X90949757Y-93142858D01*
X90949757Y-93142858D02*
X90878328Y-93000000D01*
X92378328Y-90714287D02*
X91378328Y-90714287D01*
X91521185Y-90714287D02*
X91449757Y-90642858D01*
X91449757Y-90642858D02*
X91378328Y-90500001D01*
X91378328Y-90500001D02*
X91378328Y-90285715D01*
X91378328Y-90285715D02*
X91449757Y-90142858D01*
X91449757Y-90142858D02*
X91592614Y-90071430D01*
X91592614Y-90071430D02*
X92378328Y-90071430D01*
X91592614Y-90071430D02*
X91449757Y-90000001D01*
X91449757Y-90000001D02*
X91378328Y-89857144D01*
X91378328Y-89857144D02*
X91378328Y-89642858D01*
X91378328Y-89642858D02*
X91449757Y-89500001D01*
X91449757Y-89500001D02*
X91592614Y-89428572D01*
X91592614Y-89428572D02*
X92378328Y-89428572D01*
X92378328Y-88714287D02*
X91378328Y-88714287D01*
X91521185Y-88714287D02*
X91449757Y-88642858D01*
X91449757Y-88642858D02*
X91378328Y-88500001D01*
X91378328Y-88500001D02*
X91378328Y-88285715D01*
X91378328Y-88285715D02*
X91449757Y-88142858D01*
X91449757Y-88142858D02*
X91592614Y-88071430D01*
X91592614Y-88071430D02*
X92378328Y-88071430D01*
X91592614Y-88071430D02*
X91449757Y-88000001D01*
X91449757Y-88000001D02*
X91378328Y-87857144D01*
X91378328Y-87857144D02*
X91378328Y-87642858D01*
X91378328Y-87642858D02*
X91449757Y-87500001D01*
X91449757Y-87500001D02*
X91592614Y-87428572D01*
X91592614Y-87428572D02*
X92378328Y-87428572D01*
D12*
X105500000Y-145000000D02*
X92913580Y-145000000D01*
X105500000Y-45000000D02*
X92913580Y-45000000D01*
X93500000Y-145000000D02*
X93500000Y-45000000D01*
X93500000Y-145000000D02*
X93500000Y-45000000D01*
X93500000Y-145000000D02*
X92913579Y-143873496D01*
X93500000Y-145000000D02*
X94086421Y-143873496D01*
X93500000Y-45000000D02*
X94086421Y-46126504D01*
X93500000Y-45000000D02*
X92913579Y-46126504D01*
D13*
%TO.P,J5,1,Pin_1*%
%TO.N,INPUT_VOLTAGE*%
X139500000Y-56000000D03*
D14*
%TO.P,J5,2,Pin_2*%
%TO.N,+3.3V*%
X142040000Y-56000000D03*
%TO.P,J5,3,Pin_3*%
%TO.N,GND*%
X144580000Y-56000000D03*
%TD*%
D13*
%TO.P,J4,1,Pin_1*%
%TO.N,/MISO*%
X109500000Y-59075000D03*
D14*
%TO.P,J4,2,Pin_2*%
%TO.N,/MOSI*%
X109500000Y-56535000D03*
%TO.P,J4,3,Pin_3*%
%TO.N,/SCK*%
X109500000Y-53995000D03*
%TO.P,J4,4,Pin_4*%
%TO.N,/I2C_SCL*%
X109500000Y-51455000D03*
%TO.P,J4,5,Pin_5*%
%TO.N,/I2C_SDA*%
X109500000Y-48915000D03*
%TD*%
D15*
%TO.P,AE1,1,A*%
%TO.N,Net-(AE1-A)*%
X163960000Y-51040000D03*
D16*
%TO.P,AE1,2*%
%TO.N,N/C*%
X161420000Y-48500000D03*
X161420000Y-53580000D03*
X166500000Y-48500000D03*
X166500000Y-53580000D03*
%TD*%
D13*
%TO.P,J2,1,Pin_1*%
%TO.N,Net-(J2-Pin_1)*%
X167500000Y-79225000D03*
D14*
%TO.P,J2,2,Pin_2*%
%TO.N,Net-(J2-Pin_2)*%
X167500000Y-81765000D03*
%TD*%
D13*
%TO.P,J1,1,Pin_1*%
%TO.N,/I2C_SDA*%
X116225000Y-71100000D03*
D14*
%TO.P,J1,2,Pin_2*%
%TO.N,/I2C_SCL*%
X118765000Y-71100000D03*
%TO.P,J1,3,Pin_3*%
%TO.N,unconnected-(J1-Pin_3-Pad3)*%
X121305000Y-71100000D03*
%TO.P,J1,4,Pin_4*%
%TO.N,/display_RST*%
X123845000Y-71100000D03*
%TO.P,J1,5,Pin_5*%
%TO.N,unconnected-(J1-Pin_5-Pad5)*%
X126385000Y-71100000D03*
%TO.P,J1,6,Pin_6*%
%TO.N,unconnected-(J1-Pin_6-Pad6)*%
X128925000Y-71100000D03*
%TO.P,J1,7,Pin_7*%
%TO.N,+3.3V*%
X131465000Y-71100000D03*
%TO.P,J1,8,Pin_8*%
%TO.N,GND*%
X134005000Y-71100000D03*
%TD*%
D13*
%TO.P,J3,1,Pin_1*%
%TO.N,INPUT_VOLTAGE*%
X139485000Y-49000000D03*
D14*
%TO.P,J3,2,Pin_2*%
%TO.N,GND*%
X142025000Y-49000000D03*
%TD*%
D17*
%TO.P,U2,1,GND*%
%TO.N,GND*%
X151000000Y-72500000D03*
D18*
%TO.P,U2,2,MISO*%
%TO.N,/MISO*%
X153000000Y-72500000D03*
%TO.P,U2,3,MOSI*%
%TO.N,/MOSI*%
X155000000Y-72500000D03*
%TO.P,U2,4,SCK*%
%TO.N,/SCK*%
X157000000Y-72500000D03*
%TO.P,U2,5,NSS*%
%TO.N,/transceiver_CS*%
X159000000Y-72500000D03*
%TO.P,U2,6,RESET*%
%TO.N,/RESET*%
X161000000Y-72500000D03*
%TO.P,U2,7,DIO5*%
%TO.N,unconnected-(U2-DIO5-Pad7)*%
X163000000Y-72500000D03*
%TO.P,U2,8,GND*%
%TO.N,GND*%
X165000000Y-72500000D03*
%TO.P,U2,9,ANT*%
%TO.N,Net-(AE1-A)*%
X165000000Y-58900000D03*
%TO.P,U2,10,GND*%
%TO.N,GND*%
X163000000Y-58900000D03*
%TO.P,U2,11,DIO3*%
%TO.N,unconnected-(U2-DIO3-Pad11)*%
X161000000Y-58900000D03*
%TO.P,U2,12,DIO4*%
%TO.N,unconnected-(U2-DIO4-Pad12)*%
X159000000Y-58900000D03*
%TO.P,U2,13,3.3V*%
%TO.N,+3.3V*%
X157000000Y-58900000D03*
%TO.P,U2,14,DIO0*%
%TO.N,unconnected-(U2-DIO0-Pad14)*%
X155000000Y-58900000D03*
%TO.P,U2,15,DIO1*%
%TO.N,unconnected-(U2-DIO1-Pad15)*%
X153000000Y-58900000D03*
%TO.P,U2,16,DIO2*%
%TO.N,unconnected-(U2-DIO2-Pad16)*%
X151000000Y-58900000D03*
%TD*%
D19*
%TO.N,GND*%
X151000000Y-66000000D03*
%TO.N,/MOSI*%
X155000000Y-75500000D03*
%TO.N,/I2C_SCL*%
X115000000Y-56500000D03*
%TO.N,/I2C_SDA*%
X114550000Y-50450000D03*
%TO.N,+3.3V*%
X150500000Y-136500000D03*
X146500000Y-100000000D03*
X149000000Y-86500000D03*
X132500000Y-57000000D03*
X142000000Y-72500000D03*
X157000000Y-57000000D03*
X131465000Y-68535000D03*
X121750000Y-65750000D03*
%TO.N,/SCK*%
X154000000Y-81000000D03*
X157000000Y-74500000D03*
%TO.N,/MISO*%
X153000000Y-79500000D03*
X154500000Y-87500000D03*
%TO.N,/I2C_SCL*%
X140530331Y-92050000D03*
X130000000Y-82500000D03*
%TO.N,/I2C_SDA*%
X138500000Y-93000000D03*
X129000000Y-83500000D03*
%TO.N,/mcu/RX*%
X155500000Y-90000000D03*
X147000000Y-93625000D03*
%TO.N,/mcu/RESET*%
X163500000Y-135500000D03*
X149000000Y-92900000D03*
%TO.N,/mcu/TX*%
X145000000Y-94500000D03*
X155500000Y-88500000D03*
%TO.N,/pushbutton_1*%
X132000000Y-92500000D03*
X116000000Y-109500000D03*
%TO.N,/pushbutton_4*%
X132625000Y-93375000D03*
X117000000Y-120000000D03*
%TO.N,/pushbutton_7*%
X118000000Y-130500000D03*
X133500000Y-94500000D03*
%TO.N,/pushbutton_2*%
X142000000Y-98500000D03*
X129000000Y-109500000D03*
%TO.N,/pushbutton_5*%
X130000000Y-120000000D03*
X143000000Y-99000000D03*
%TO.N,/pushbutton_8*%
X144000000Y-99500000D03*
X131000000Y-130500000D03*
%TO.N,/pushbutton_3*%
X148000000Y-102500000D03*
X142000000Y-109500000D03*
%TO.N,/pushbutton_6*%
X152000000Y-96500000D03*
X143000000Y-120000000D03*
%TO.N,/pushbutton_9*%
X153000000Y-94500000D03*
X144000000Y-130500000D03*
%TO.N,/pushbutton_dot*%
X134500000Y-95500000D03*
X119000000Y-141000000D03*
%TO.N,/pushbutton_0*%
X145000000Y-100000000D03*
X132000000Y-141000000D03*
%TO.N,/pushbutton_enter*%
X154000000Y-94000000D03*
X145000000Y-141000000D03*
%TO.N,/pushbutton_menu*%
X155000000Y-93500000D03*
X155000000Y-109500000D03*
%TO.N,/pushbutton_up*%
X156000000Y-120000000D03*
X156000000Y-93000000D03*
%TO.N,/pushbutton_down*%
X157000000Y-92500000D03*
X157000000Y-130500000D03*
%TD*%
D20*
%TO.N,GND*%
X151000000Y-72000000D02*
X151000000Y-66000000D01*
X151000000Y-72500000D02*
X151000000Y-72000000D01*
D21*
%TO.N,/mcu/RESET*%
X158000000Y-130000000D02*
X163500000Y-135500000D01*
X158000000Y-92000000D02*
X158000000Y-130000000D01*
X149000000Y-92900000D02*
X150900000Y-91000000D01*
X150900000Y-91000000D02*
X157000000Y-91000000D01*
X157000000Y-91000000D02*
X158000000Y-92000000D01*
%TO.N,/pushbutton_6*%
X152000000Y-96500000D02*
X152000000Y-102000000D01*
X143000000Y-111000000D02*
X143000000Y-120000000D01*
X152000000Y-102000000D02*
X143000000Y-111000000D01*
%TO.N,/MOSI*%
X119000000Y-80500000D02*
X112500000Y-74000000D01*
X112500000Y-59535000D02*
X109500000Y-56535000D01*
X150000000Y-80500000D02*
X119000000Y-80500000D01*
X112500000Y-74000000D02*
X112500000Y-59535000D01*
X155000000Y-75500000D02*
X150000000Y-80500000D01*
%TO.N,/SCK*%
X154500000Y-74500000D02*
X157000000Y-74500000D01*
X119500000Y-79500000D02*
X149500000Y-79500000D01*
X149500000Y-79500000D02*
X154500000Y-74500000D01*
X113500000Y-73500000D02*
X119500000Y-79500000D01*
X113500000Y-57995000D02*
X113500000Y-73500000D01*
X109500000Y-53995000D02*
X113500000Y-57995000D01*
%TO.N,/MISO*%
X153000000Y-86000000D02*
X153000000Y-79500000D01*
X148500000Y-81500000D02*
X153000000Y-86000000D01*
X111500000Y-74500000D02*
X118500000Y-81500000D01*
X111500000Y-61075000D02*
X111500000Y-74500000D01*
X118500000Y-81500000D02*
X148500000Y-81500000D01*
X109500000Y-59075000D02*
X111500000Y-61075000D01*
%TO.N,/I2C_SCL*%
X115000000Y-56477500D02*
X115000000Y-56500000D01*
X109977500Y-51455000D02*
X115000000Y-56477500D01*
X109500000Y-51455000D02*
X109977500Y-51455000D01*
%TO.N,/I2C_SDA*%
X113015000Y-48915000D02*
X114550000Y-50450000D01*
X109500000Y-48915000D02*
X113015000Y-48915000D01*
D20*
%TO.N,+3.3V*%
X142040000Y-72460000D02*
X142000000Y-72500000D01*
X142040000Y-56000000D02*
X142040000Y-72460000D01*
X131100000Y-71100000D02*
X131000000Y-71000000D01*
D21*
%TO.N,/SCK*%
X157000000Y-78000000D02*
X157000000Y-74500000D01*
X154000000Y-81000000D02*
X157000000Y-78000000D01*
%TO.N,/MISO*%
X154500000Y-87500000D02*
X153000000Y-86000000D01*
%TO.N,/I2C_SCL*%
X139550000Y-92050000D02*
X140530331Y-92050000D01*
X130000000Y-82500000D02*
X139550000Y-92050000D01*
%TO.N,/I2C_SDA*%
X129000000Y-83500000D02*
X138500000Y-93000000D01*
%TO.N,/mcu/RX*%
X147000000Y-93500000D02*
X147000000Y-93625000D01*
X155500000Y-90000000D02*
X150500000Y-90000000D01*
X150500000Y-90000000D02*
X147000000Y-93500000D01*
%TO.N,/mcu/TX*%
X145000000Y-93974695D02*
X145000000Y-94500000D01*
X150474695Y-88500000D02*
X145000000Y-93974695D01*
X155500000Y-88500000D02*
X150474695Y-88500000D01*
%TO.N,/pushbutton_1*%
X116000000Y-106000000D02*
X116000000Y-105500000D01*
X116000000Y-109500000D02*
X116000000Y-106000000D01*
X119500000Y-95000000D02*
X116000000Y-98500000D01*
X132000000Y-92500000D02*
X129500000Y-95000000D01*
X116000000Y-98500000D02*
X116000000Y-106000000D01*
X129500000Y-95000000D02*
X119500000Y-95000000D01*
%TO.N,/pushbutton_4*%
X117000000Y-99000000D02*
X117000000Y-120000000D01*
X120000000Y-96000000D02*
X117000000Y-99000000D01*
X130000000Y-96000000D02*
X120000000Y-96000000D01*
X132625000Y-93375000D02*
X130000000Y-96000000D01*
%TO.N,/pushbutton_7*%
X133500000Y-94500000D02*
X131000000Y-97000000D01*
X120500000Y-97000000D02*
X118000000Y-99500000D01*
X131000000Y-97000000D02*
X120500000Y-97000000D01*
X118000000Y-99500000D02*
X118000000Y-130500000D01*
%TO.N,/pushbutton_2*%
X129000000Y-102500000D02*
X132500000Y-99000000D01*
X132500000Y-99000000D02*
X141500000Y-99000000D01*
X141500000Y-99000000D02*
X142000000Y-98500000D01*
X129000000Y-109500000D02*
X129000000Y-102500000D01*
%TO.N,/pushbutton_5*%
X142000000Y-100000000D02*
X143000000Y-99000000D01*
X130000000Y-102750000D02*
X132750000Y-100000000D01*
X132750000Y-100000000D02*
X142000000Y-100000000D01*
X130000000Y-120000000D02*
X130000000Y-102750000D01*
%TO.N,/pushbutton_8*%
X133000000Y-101000000D02*
X131000000Y-103000000D01*
X144000000Y-99500000D02*
X142500000Y-101000000D01*
X131000000Y-103000000D02*
X131000000Y-130500000D01*
X142500000Y-101000000D02*
X133000000Y-101000000D01*
%TO.N,/pushbutton_3*%
X143000000Y-109500000D02*
X142000000Y-109500000D01*
X148000000Y-102500000D02*
X148000000Y-104500000D01*
X148000000Y-104500000D02*
X143000000Y-109500000D01*
%TO.N,/pushbutton_9*%
X153000000Y-94500000D02*
X153000000Y-102500000D01*
X153000000Y-102500000D02*
X144000000Y-111500000D01*
X144000000Y-111500000D02*
X144000000Y-130500000D01*
%TO.N,/pushbutton_dot*%
X132000000Y-98000000D02*
X120750000Y-98000000D01*
X119000000Y-99750000D02*
X119000000Y-141000000D01*
X120750000Y-98000000D02*
X119000000Y-99750000D01*
X134500000Y-95500000D02*
X132000000Y-98000000D01*
%TO.N,/pushbutton_0*%
X132000000Y-103000000D02*
X132000000Y-141000000D01*
X143000000Y-102000000D02*
X133000000Y-102000000D01*
X133000000Y-102000000D02*
X132000000Y-103000000D01*
X145000000Y-100000000D02*
X143000000Y-102000000D01*
%TO.N,/pushbutton_enter*%
X145000000Y-112000000D02*
X145000000Y-141000000D01*
X154000000Y-103000000D02*
X145000000Y-112000000D01*
X154000000Y-94000000D02*
X154000000Y-103000000D01*
%TO.N,/pushbutton_menu*%
X155000000Y-94000000D02*
X155000000Y-93500000D01*
X155000000Y-109500000D02*
X155000000Y-94000000D01*
%TO.N,/pushbutton_up*%
X156000000Y-120000000D02*
X156000000Y-93500000D01*
X156000000Y-93500000D02*
X156000000Y-93000000D01*
%TO.N,/pushbutton_down*%
X157000000Y-92500000D02*
X157000000Y-130500000D01*
%TD*%
%TA.AperFunction,Conductor*%
%TO.N,+3.3V*%
G36*
X169642539Y-45320185D02*
G01*
X169688294Y-45372989D01*
X169699500Y-45424500D01*
X169699500Y-144575500D01*
X169679815Y-144642539D01*
X169627011Y-144688294D01*
X169575500Y-144699500D01*
X106424500Y-144699500D01*
X106357461Y-144679815D01*
X106311706Y-144627011D01*
X106300500Y-144575500D01*
X106300500Y-109500000D01*
X115094540Y-109500000D01*
X115114326Y-109688256D01*
X115114327Y-109688259D01*
X115172818Y-109868277D01*
X115172821Y-109868284D01*
X115267467Y-110032216D01*
X115373971Y-110150500D01*
X115394129Y-110172888D01*
X115547265Y-110284148D01*
X115547270Y-110284151D01*
X115720192Y-110361142D01*
X115720197Y-110361144D01*
X115905354Y-110400500D01*
X115905355Y-110400500D01*
X116094644Y-110400500D01*
X116094646Y-110400500D01*
X116199719Y-110378166D01*
X116269386Y-110383482D01*
X116325120Y-110425619D01*
X116349225Y-110491199D01*
X116349500Y-110499456D01*
X116349500Y-119329078D01*
X116329815Y-119396117D01*
X116317650Y-119412050D01*
X116267466Y-119467785D01*
X116172821Y-119631715D01*
X116172818Y-119631722D01*
X116114327Y-119811740D01*
X116114326Y-119811744D01*
X116094540Y-120000000D01*
X116114326Y-120188256D01*
X116114327Y-120188259D01*
X116172818Y-120368277D01*
X116172821Y-120368284D01*
X116267467Y-120532216D01*
X116394129Y-120672888D01*
X116547265Y-120784148D01*
X116547270Y-120784151D01*
X116720192Y-120861142D01*
X116720197Y-120861144D01*
X116905354Y-120900500D01*
X116905355Y-120900500D01*
X117094644Y-120900500D01*
X117094646Y-120900500D01*
X117199719Y-120878166D01*
X117269386Y-120883482D01*
X117325120Y-120925619D01*
X117349225Y-120991199D01*
X117349500Y-120999456D01*
X117349500Y-129829078D01*
X117329815Y-129896117D01*
X117317650Y-129912050D01*
X117267466Y-129967785D01*
X117172821Y-130131715D01*
X117172818Y-130131722D01*
X117114327Y-130311740D01*
X117114326Y-130311744D01*
X117094540Y-130500000D01*
X117114326Y-130688256D01*
X117114327Y-130688259D01*
X117172818Y-130868277D01*
X117172821Y-130868284D01*
X117267467Y-131032216D01*
X117394129Y-131172888D01*
X117547265Y-131284148D01*
X117547270Y-131284151D01*
X117720192Y-131361142D01*
X117720197Y-131361144D01*
X117905354Y-131400500D01*
X117905355Y-131400500D01*
X118094644Y-131400500D01*
X118094646Y-131400500D01*
X118199719Y-131378166D01*
X118269386Y-131383482D01*
X118325120Y-131425619D01*
X118349225Y-131491199D01*
X118349500Y-131499456D01*
X118349500Y-140329078D01*
X118329815Y-140396117D01*
X118317650Y-140412050D01*
X118267466Y-140467785D01*
X118172821Y-140631715D01*
X118172818Y-140631722D01*
X118114327Y-140811740D01*
X118114326Y-140811744D01*
X118094540Y-141000000D01*
X118114326Y-141188256D01*
X118114327Y-141188259D01*
X118172818Y-141368277D01*
X118172821Y-141368284D01*
X118267467Y-141532216D01*
X118394129Y-141672888D01*
X118547265Y-141784148D01*
X118547270Y-141784151D01*
X118720192Y-141861142D01*
X118720197Y-141861144D01*
X118905354Y-141900500D01*
X118905355Y-141900500D01*
X119094644Y-141900500D01*
X119094646Y-141900500D01*
X119279803Y-141861144D01*
X119452730Y-141784151D01*
X119605871Y-141672888D01*
X119732533Y-141532216D01*
X119827179Y-141368284D01*
X119885674Y-141188256D01*
X119905460Y-141000000D01*
X119885674Y-140811744D01*
X119827179Y-140631716D01*
X119732533Y-140467784D01*
X119682350Y-140412050D01*
X119652120Y-140349058D01*
X119650500Y-140329078D01*
X119650500Y-100070808D01*
X119670185Y-100003769D01*
X119686819Y-99983127D01*
X120983127Y-98686819D01*
X121044450Y-98653334D01*
X121070808Y-98650500D01*
X131630192Y-98650500D01*
X131697231Y-98670185D01*
X131742986Y-98722989D01*
X131752930Y-98792147D01*
X131723905Y-98855703D01*
X131717873Y-98862181D01*
X128494727Y-102085325D01*
X128494726Y-102085326D01*
X128436768Y-102172069D01*
X128436766Y-102172072D01*
X128423536Y-102191870D01*
X128423533Y-102191875D01*
X128374499Y-102310255D01*
X128374497Y-102310261D01*
X128349500Y-102435928D01*
X128349500Y-108829078D01*
X128329815Y-108896117D01*
X128317650Y-108912050D01*
X128267466Y-108967785D01*
X128172821Y-109131715D01*
X128172818Y-109131722D01*
X128114327Y-109311740D01*
X128114326Y-109311744D01*
X128094540Y-109500000D01*
X128114326Y-109688256D01*
X128114327Y-109688259D01*
X128172818Y-109868277D01*
X128172821Y-109868284D01*
X128267467Y-110032216D01*
X128373971Y-110150500D01*
X128394129Y-110172888D01*
X128547265Y-110284148D01*
X128547270Y-110284151D01*
X128720192Y-110361142D01*
X128720197Y-110361144D01*
X128905354Y-110400500D01*
X128905355Y-110400500D01*
X129094644Y-110400500D01*
X129094646Y-110400500D01*
X129199719Y-110378166D01*
X129269386Y-110383482D01*
X129325120Y-110425619D01*
X129349225Y-110491199D01*
X129349500Y-110499456D01*
X129349500Y-119329078D01*
X129329815Y-119396117D01*
X129317650Y-119412050D01*
X129267466Y-119467785D01*
X129172821Y-119631715D01*
X129172818Y-119631722D01*
X129114327Y-119811740D01*
X129114326Y-119811744D01*
X129094540Y-120000000D01*
X129114326Y-120188256D01*
X129114327Y-120188259D01*
X129172818Y-120368277D01*
X129172821Y-120368284D01*
X129267467Y-120532216D01*
X129394129Y-120672888D01*
X129547265Y-120784148D01*
X129547270Y-120784151D01*
X129720192Y-120861142D01*
X129720197Y-120861144D01*
X129905354Y-120900500D01*
X129905355Y-120900500D01*
X130094644Y-120900500D01*
X130094646Y-120900500D01*
X130199719Y-120878166D01*
X130269386Y-120883482D01*
X130325120Y-120925619D01*
X130349225Y-120991199D01*
X130349500Y-120999456D01*
X130349500Y-129829078D01*
X130329815Y-129896117D01*
X130317650Y-129912050D01*
X130267466Y-129967785D01*
X130172821Y-130131715D01*
X130172818Y-130131722D01*
X130114327Y-130311740D01*
X130114326Y-130311744D01*
X130094540Y-130500000D01*
X130114326Y-130688256D01*
X130114327Y-130688259D01*
X130172818Y-130868277D01*
X130172821Y-130868284D01*
X130267467Y-131032216D01*
X130394129Y-131172888D01*
X130547265Y-131284148D01*
X130547270Y-131284151D01*
X130720192Y-131361142D01*
X130720197Y-131361144D01*
X130905354Y-131400500D01*
X130905355Y-131400500D01*
X131094644Y-131400500D01*
X131094646Y-131400500D01*
X131199719Y-131378166D01*
X131269386Y-131383482D01*
X131325120Y-131425619D01*
X131349225Y-131491199D01*
X131349500Y-131499456D01*
X131349500Y-140329078D01*
X131329815Y-140396117D01*
X131317650Y-140412050D01*
X131267466Y-140467785D01*
X131172821Y-140631715D01*
X131172818Y-140631722D01*
X131114327Y-140811740D01*
X131114326Y-140811744D01*
X131094540Y-141000000D01*
X131114326Y-141188256D01*
X131114327Y-141188259D01*
X131172818Y-141368277D01*
X131172821Y-141368284D01*
X131267467Y-141532216D01*
X131394129Y-141672888D01*
X131547265Y-141784148D01*
X131547270Y-141784151D01*
X131720192Y-141861142D01*
X131720197Y-141861144D01*
X131905354Y-141900500D01*
X131905355Y-141900500D01*
X132094644Y-141900500D01*
X132094646Y-141900500D01*
X132279803Y-141861144D01*
X132452730Y-141784151D01*
X132605871Y-141672888D01*
X132732533Y-141532216D01*
X132827179Y-141368284D01*
X132885674Y-141188256D01*
X132905460Y-141000000D01*
X132885674Y-140811744D01*
X132827179Y-140631716D01*
X132732533Y-140467784D01*
X132682350Y-140412050D01*
X132652120Y-140349058D01*
X132650500Y-140329078D01*
X132650500Y-103320808D01*
X132670185Y-103253769D01*
X132686819Y-103233127D01*
X133233127Y-102686819D01*
X133294450Y-102653334D01*
X133320808Y-102650500D01*
X143064071Y-102650500D01*
X143148615Y-102633682D01*
X143189744Y-102625501D01*
X143308127Y-102576465D01*
X143332386Y-102560256D01*
X143414669Y-102505277D01*
X144983126Y-100936818D01*
X145044449Y-100903334D01*
X145070807Y-100900500D01*
X145094644Y-100900500D01*
X145094646Y-100900500D01*
X145279803Y-100861144D01*
X145452730Y-100784151D01*
X145605871Y-100672888D01*
X145732533Y-100532216D01*
X145827179Y-100368284D01*
X145885674Y-100188256D01*
X145905460Y-100000000D01*
X145885674Y-99811744D01*
X145827179Y-99631716D01*
X145732533Y-99467784D01*
X145605871Y-99327112D01*
X145605870Y-99327111D01*
X145452734Y-99215851D01*
X145452729Y-99215848D01*
X145279807Y-99138857D01*
X145279802Y-99138855D01*
X145097840Y-99100179D01*
X145094646Y-99099500D01*
X144905354Y-99099500D01*
X144905349Y-99099500D01*
X144898886Y-99100179D01*
X144898703Y-99098440D01*
X144837586Y-99093763D01*
X144781862Y-99051613D01*
X144774111Y-99039799D01*
X144769416Y-99031667D01*
X144732533Y-98967784D01*
X144605871Y-98827112D01*
X144557746Y-98792147D01*
X144452734Y-98715851D01*
X144452729Y-98715848D01*
X144279807Y-98638857D01*
X144279802Y-98638855D01*
X144097840Y-98600179D01*
X144094646Y-98599500D01*
X143905354Y-98599500D01*
X143905349Y-98599500D01*
X143898886Y-98600179D01*
X143898703Y-98598440D01*
X143837586Y-98593763D01*
X143781862Y-98551613D01*
X143774111Y-98539799D01*
X143769416Y-98531667D01*
X143732533Y-98467784D01*
X143605871Y-98327112D01*
X143605870Y-98327111D01*
X143452734Y-98215851D01*
X143452729Y-98215848D01*
X143279807Y-98138857D01*
X143279802Y-98138855D01*
X143097840Y-98100179D01*
X143094646Y-98099500D01*
X142905354Y-98099500D01*
X142905349Y-98099500D01*
X142898886Y-98100179D01*
X142898703Y-98098440D01*
X142837586Y-98093763D01*
X142781862Y-98051613D01*
X142774111Y-98039799D01*
X142769416Y-98031667D01*
X142732533Y-97967784D01*
X142605871Y-97827112D01*
X142605870Y-97827111D01*
X142452734Y-97715851D01*
X142452729Y-97715848D01*
X142279807Y-97638857D01*
X142279802Y-97638855D01*
X142134001Y-97607865D01*
X142094646Y-97599500D01*
X141905354Y-97599500D01*
X141872897Y-97606398D01*
X141720197Y-97638855D01*
X141720192Y-97638857D01*
X141547270Y-97715848D01*
X141547265Y-97715851D01*
X141394129Y-97827111D01*
X141267466Y-97967785D01*
X141172821Y-98131715D01*
X141172818Y-98131722D01*
X141129898Y-98263818D01*
X141090460Y-98321494D01*
X141026102Y-98348692D01*
X141011967Y-98349500D01*
X132869808Y-98349500D01*
X132802769Y-98329815D01*
X132757014Y-98277011D01*
X132747070Y-98207853D01*
X132776095Y-98144297D01*
X132782127Y-98137819D01*
X134483127Y-96436819D01*
X134544450Y-96403334D01*
X134570808Y-96400500D01*
X134594644Y-96400500D01*
X134594646Y-96400500D01*
X134779803Y-96361144D01*
X134952730Y-96284151D01*
X135105871Y-96172888D01*
X135232533Y-96032216D01*
X135327179Y-95868284D01*
X135385674Y-95688256D01*
X135405460Y-95500000D01*
X135385674Y-95311744D01*
X135327179Y-95131716D01*
X135232533Y-94967784D01*
X135105871Y-94827112D01*
X135105870Y-94827111D01*
X134952734Y-94715851D01*
X134952729Y-94715848D01*
X134779807Y-94638857D01*
X134779802Y-94638855D01*
X134634001Y-94607865D01*
X134594646Y-94599500D01*
X134527568Y-94599500D01*
X134460529Y-94579815D01*
X134414774Y-94527011D01*
X134404247Y-94488462D01*
X134385674Y-94311744D01*
X134327179Y-94131716D01*
X134232533Y-93967784D01*
X134105871Y-93827112D01*
X134069243Y-93800500D01*
X133952734Y-93715851D01*
X133952729Y-93715848D01*
X133779807Y-93638857D01*
X133779802Y-93638855D01*
X133617993Y-93604462D01*
X133556511Y-93571270D01*
X133522735Y-93510107D01*
X133520453Y-93470211D01*
X133520708Y-93467784D01*
X133530460Y-93375000D01*
X133510674Y-93186744D01*
X133452179Y-93006716D01*
X133357533Y-92842784D01*
X133230871Y-92702112D01*
X133230870Y-92702111D01*
X133077734Y-92590851D01*
X133077732Y-92590850D01*
X132972420Y-92543961D01*
X132919184Y-92498710D01*
X132899537Y-92443646D01*
X132885674Y-92311744D01*
X132827179Y-92131716D01*
X132732533Y-91967784D01*
X132605871Y-91827112D01*
X132605870Y-91827111D01*
X132452734Y-91715851D01*
X132452729Y-91715848D01*
X132279807Y-91638857D01*
X132279802Y-91638855D01*
X132134001Y-91607865D01*
X132094646Y-91599500D01*
X131905354Y-91599500D01*
X131872897Y-91606398D01*
X131720197Y-91638855D01*
X131720192Y-91638857D01*
X131547270Y-91715848D01*
X131547265Y-91715851D01*
X131394129Y-91827111D01*
X131267466Y-91967785D01*
X131172821Y-92131715D01*
X131172818Y-92131722D01*
X131114327Y-92311739D01*
X131114326Y-92311741D01*
X131100831Y-92440142D01*
X131074246Y-92504757D01*
X131065191Y-92514861D01*
X129266873Y-94313181D01*
X129205550Y-94346666D01*
X129179192Y-94349500D01*
X119435929Y-94349500D01*
X119310261Y-94374497D01*
X119310255Y-94374499D01*
X119191870Y-94423535D01*
X119085331Y-94494722D01*
X119085324Y-94494728D01*
X115494726Y-98085326D01*
X115494723Y-98085331D01*
X115458960Y-98138856D01*
X115436768Y-98172069D01*
X115436766Y-98172072D01*
X115423536Y-98191870D01*
X115423533Y-98191875D01*
X115374499Y-98310255D01*
X115374497Y-98310261D01*
X115349500Y-98435928D01*
X115349500Y-108829078D01*
X115329815Y-108896117D01*
X115317650Y-108912050D01*
X115267466Y-108967785D01*
X115172821Y-109131715D01*
X115172818Y-109131722D01*
X115114327Y-109311740D01*
X115114326Y-109311744D01*
X115094540Y-109500000D01*
X106300500Y-109500000D01*
X106300500Y-56535000D01*
X108144341Y-56535000D01*
X108164936Y-56770403D01*
X108164938Y-56770413D01*
X108226094Y-56998655D01*
X108226096Y-56998659D01*
X108226097Y-56998663D01*
X108325965Y-57212830D01*
X108325967Y-57212834D01*
X108461501Y-57406395D01*
X108461506Y-57406402D01*
X108583430Y-57528326D01*
X108616915Y-57589649D01*
X108611931Y-57659341D01*
X108570059Y-57715274D01*
X108539083Y-57732189D01*
X108407669Y-57781203D01*
X108407664Y-57781206D01*
X108292455Y-57867452D01*
X108292452Y-57867455D01*
X108206206Y-57982664D01*
X108206202Y-57982671D01*
X108155908Y-58117517D01*
X108149501Y-58177116D01*
X108149500Y-58177135D01*
X108149500Y-59972870D01*
X108149501Y-59972876D01*
X108155908Y-60032483D01*
X108206202Y-60167328D01*
X108206206Y-60167335D01*
X108292452Y-60282544D01*
X108292455Y-60282547D01*
X108407664Y-60368793D01*
X108407671Y-60368797D01*
X108542517Y-60419091D01*
X108542516Y-60419091D01*
X108549444Y-60419835D01*
X108602127Y-60425500D01*
X109879191Y-60425499D01*
X109946230Y-60445184D01*
X109966872Y-60461818D01*
X110813181Y-61308126D01*
X110846666Y-61369449D01*
X110849500Y-61395807D01*
X110849500Y-74564069D01*
X110866693Y-74650500D01*
X110874499Y-74689744D01*
X110923535Y-74808127D01*
X110963730Y-74868284D01*
X110994726Y-74914673D01*
X118085326Y-82005273D01*
X118085329Y-82005275D01*
X118085331Y-82005277D01*
X118191873Y-82076465D01*
X118310256Y-82125501D01*
X118310260Y-82125501D01*
X118310261Y-82125502D01*
X118435928Y-82150500D01*
X118435931Y-82150500D01*
X128996046Y-82150500D01*
X129063085Y-82170185D01*
X129108840Y-82222989D01*
X129118784Y-82292147D01*
X129115382Y-82306772D01*
X129114327Y-82311737D01*
X129114326Y-82311742D01*
X129114326Y-82311744D01*
X129096242Y-82483812D01*
X129095753Y-82488462D01*
X129069168Y-82553076D01*
X129011871Y-82593061D01*
X128972432Y-82599500D01*
X128905354Y-82599500D01*
X128872897Y-82606398D01*
X128720197Y-82638855D01*
X128720192Y-82638857D01*
X128547270Y-82715848D01*
X128547265Y-82715851D01*
X128394129Y-82827111D01*
X128267466Y-82967785D01*
X128172821Y-83131715D01*
X128172818Y-83131722D01*
X128114327Y-83311740D01*
X128114326Y-83311744D01*
X128094540Y-83500000D01*
X128114326Y-83688256D01*
X128114327Y-83688259D01*
X128172818Y-83868277D01*
X128172821Y-83868284D01*
X128267467Y-84032216D01*
X128355685Y-84130192D01*
X128394129Y-84172888D01*
X128547265Y-84284148D01*
X128547270Y-84284151D01*
X128720192Y-84361142D01*
X128720197Y-84361144D01*
X128905354Y-84400500D01*
X128929192Y-84400500D01*
X128996231Y-84420185D01*
X129016873Y-84436819D01*
X137565191Y-92985137D01*
X137598676Y-93046460D01*
X137600830Y-93059851D01*
X137614326Y-93188256D01*
X137614327Y-93188259D01*
X137672818Y-93368277D01*
X137672821Y-93368284D01*
X137767467Y-93532216D01*
X137863487Y-93638857D01*
X137894129Y-93672888D01*
X138047265Y-93784148D01*
X138047270Y-93784151D01*
X138220192Y-93861142D01*
X138220197Y-93861144D01*
X138405354Y-93900500D01*
X138405355Y-93900500D01*
X138594644Y-93900500D01*
X138594646Y-93900500D01*
X138779803Y-93861144D01*
X138952730Y-93784151D01*
X139105871Y-93672888D01*
X139232533Y-93532216D01*
X139327179Y-93368284D01*
X139385674Y-93188256D01*
X139405460Y-93000000D01*
X139388376Y-92837458D01*
X139400945Y-92768732D01*
X139448677Y-92717708D01*
X139511697Y-92700500D01*
X139614069Y-92700500D01*
X139853356Y-92700500D01*
X139920395Y-92720185D01*
X139926241Y-92724182D01*
X140077596Y-92834148D01*
X140077601Y-92834151D01*
X140250523Y-92911142D01*
X140250528Y-92911144D01*
X140435685Y-92950500D01*
X140435686Y-92950500D01*
X140624975Y-92950500D01*
X140624977Y-92950500D01*
X140810134Y-92911144D01*
X140983061Y-92834151D01*
X141136202Y-92722888D01*
X141262864Y-92582216D01*
X141357510Y-92418284D01*
X141416005Y-92238256D01*
X141435791Y-92050000D01*
X141416005Y-91861744D01*
X141357510Y-91681716D01*
X141262864Y-91517784D01*
X141136202Y-91377112D01*
X141136201Y-91377111D01*
X140983065Y-91265851D01*
X140983060Y-91265848D01*
X140810138Y-91188857D01*
X140810133Y-91188855D01*
X140664332Y-91157865D01*
X140624977Y-91149500D01*
X140435685Y-91149500D01*
X140403228Y-91156398D01*
X140250528Y-91188855D01*
X140250523Y-91188857D01*
X140077602Y-91265848D01*
X139936348Y-91368474D01*
X139870541Y-91391953D01*
X139802487Y-91376127D01*
X139775782Y-91355836D01*
X130934808Y-82514862D01*
X130901323Y-82453539D01*
X130899168Y-82440141D01*
X130885674Y-82311742D01*
X130884324Y-82305392D01*
X130885801Y-82305077D01*
X130884028Y-82242976D01*
X130920109Y-82183144D01*
X130982810Y-82152316D01*
X131003954Y-82150500D01*
X148179192Y-82150500D01*
X148246231Y-82170185D01*
X148266873Y-82186819D01*
X153565191Y-87485137D01*
X153598676Y-87546460D01*
X153600830Y-87559851D01*
X153605234Y-87601750D01*
X153614326Y-87688258D01*
X153615678Y-87694615D01*
X153614198Y-87694929D01*
X153615972Y-87757024D01*
X153579891Y-87816856D01*
X153517190Y-87847684D01*
X153496046Y-87849500D01*
X150410624Y-87849500D01*
X150284956Y-87874497D01*
X150284950Y-87874499D01*
X150166569Y-87923534D01*
X150060021Y-87994726D01*
X144494726Y-93560021D01*
X144494723Y-93560026D01*
X144442052Y-93638856D01*
X144434273Y-93650498D01*
X144434271Y-93650501D01*
X144423536Y-93666565D01*
X144423533Y-93666570D01*
X144374498Y-93784952D01*
X144374498Y-93784953D01*
X144364819Y-93833609D01*
X144335354Y-93892385D01*
X144267468Y-93967782D01*
X144267464Y-93967787D01*
X144172821Y-94131715D01*
X144172818Y-94131722D01*
X144114327Y-94311740D01*
X144114326Y-94311744D01*
X144094540Y-94500000D01*
X144114326Y-94688256D01*
X144114327Y-94688259D01*
X144172818Y-94868277D01*
X144172821Y-94868284D01*
X144267467Y-95032216D01*
X144357063Y-95131722D01*
X144394129Y-95172888D01*
X144547265Y-95284148D01*
X144547270Y-95284151D01*
X144720192Y-95361142D01*
X144720197Y-95361144D01*
X144905354Y-95400500D01*
X144905355Y-95400500D01*
X145094644Y-95400500D01*
X145094646Y-95400500D01*
X145279803Y-95361144D01*
X145452730Y-95284151D01*
X145605871Y-95172888D01*
X145732533Y-95032216D01*
X145827179Y-94868284D01*
X145885674Y-94688256D01*
X145905460Y-94500000D01*
X145885674Y-94311744D01*
X145834901Y-94155484D01*
X145832907Y-94085645D01*
X145865150Y-94029489D01*
X145963166Y-93931473D01*
X146024487Y-93897990D01*
X146094179Y-93902974D01*
X146150112Y-93944846D01*
X146168775Y-93980834D01*
X146172818Y-93993278D01*
X146172821Y-93993284D01*
X146267467Y-94157216D01*
X146394129Y-94297888D01*
X146547265Y-94409148D01*
X146547270Y-94409151D01*
X146720192Y-94486142D01*
X146720197Y-94486144D01*
X146905354Y-94525500D01*
X146905355Y-94525500D01*
X147094644Y-94525500D01*
X147094646Y-94525500D01*
X147279803Y-94486144D01*
X147452730Y-94409151D01*
X147605871Y-94297888D01*
X147732533Y-94157216D01*
X147827179Y-93993284D01*
X147885674Y-93813256D01*
X147905460Y-93625000D01*
X147901131Y-93583814D01*
X147913700Y-93515086D01*
X147936768Y-93483176D01*
X148050809Y-93369135D01*
X148112130Y-93335652D01*
X148181822Y-93340636D01*
X148237755Y-93382508D01*
X148245875Y-93394818D01*
X148267467Y-93432216D01*
X148382548Y-93560026D01*
X148394129Y-93572888D01*
X148547265Y-93684148D01*
X148547270Y-93684151D01*
X148720192Y-93761142D01*
X148720197Y-93761144D01*
X148905354Y-93800500D01*
X148905355Y-93800500D01*
X149094644Y-93800500D01*
X149094646Y-93800500D01*
X149279803Y-93761144D01*
X149452730Y-93684151D01*
X149605871Y-93572888D01*
X149732533Y-93432216D01*
X149827179Y-93268284D01*
X149885674Y-93088256D01*
X149899168Y-92959855D01*
X149925752Y-92895242D01*
X149934799Y-92885145D01*
X151133127Y-91686819D01*
X151194450Y-91653334D01*
X151220808Y-91650500D01*
X156274643Y-91650500D01*
X156341682Y-91670185D01*
X156387437Y-91722989D01*
X156397381Y-91792147D01*
X156368356Y-91855703D01*
X156366793Y-91857472D01*
X156267466Y-91967785D01*
X156225886Y-92039801D01*
X156175318Y-92088016D01*
X156106711Y-92101237D01*
X156096989Y-92099745D01*
X156094651Y-92099500D01*
X156094646Y-92099500D01*
X155905354Y-92099500D01*
X155872897Y-92106398D01*
X155720197Y-92138855D01*
X155720192Y-92138857D01*
X155547270Y-92215848D01*
X155547265Y-92215851D01*
X155394129Y-92327111D01*
X155267466Y-92467785D01*
X155225886Y-92539801D01*
X155175318Y-92588016D01*
X155106711Y-92601237D01*
X155096989Y-92599745D01*
X155094651Y-92599500D01*
X155094646Y-92599500D01*
X154905354Y-92599500D01*
X154872897Y-92606398D01*
X154720197Y-92638855D01*
X154720192Y-92638857D01*
X154547270Y-92715848D01*
X154547265Y-92715851D01*
X154394129Y-92827111D01*
X154267466Y-92967785D01*
X154225886Y-93039801D01*
X154175318Y-93088016D01*
X154106711Y-93101237D01*
X154096989Y-93099745D01*
X154094651Y-93099500D01*
X154094646Y-93099500D01*
X153905354Y-93099500D01*
X153872897Y-93106398D01*
X153720197Y-93138855D01*
X153720192Y-93138857D01*
X153547270Y-93215848D01*
X153547265Y-93215851D01*
X153394129Y-93327111D01*
X153267466Y-93467785D01*
X153225886Y-93539801D01*
X153175318Y-93588016D01*
X153106711Y-93601237D01*
X153096989Y-93599745D01*
X153094651Y-93599500D01*
X153094646Y-93599500D01*
X152905354Y-93599500D01*
X152872897Y-93606398D01*
X152720197Y-93638855D01*
X152720192Y-93638857D01*
X152547270Y-93715848D01*
X152547265Y-93715851D01*
X152394129Y-93827111D01*
X152267466Y-93967785D01*
X152172821Y-94131715D01*
X152172818Y-94131722D01*
X152114327Y-94311740D01*
X152114326Y-94311744D01*
X152094540Y-94500000D01*
X152114326Y-94688256D01*
X152114327Y-94688259D01*
X152172818Y-94868277D01*
X152172821Y-94868284D01*
X152267466Y-95032215D01*
X152317649Y-95087948D01*
X152347880Y-95150940D01*
X152349500Y-95170921D01*
X152349500Y-95500543D01*
X152329815Y-95567582D01*
X152277011Y-95613337D01*
X152207853Y-95623281D01*
X152199720Y-95621834D01*
X152094646Y-95599500D01*
X151905354Y-95599500D01*
X151872897Y-95606398D01*
X151720197Y-95638855D01*
X151720192Y-95638857D01*
X151547270Y-95715848D01*
X151547265Y-95715851D01*
X151394129Y-95827111D01*
X151267466Y-95967785D01*
X151172821Y-96131715D01*
X151172818Y-96131722D01*
X151114327Y-96311740D01*
X151114326Y-96311744D01*
X151094540Y-96500000D01*
X151114326Y-96688256D01*
X151114327Y-96688259D01*
X151172818Y-96868277D01*
X151172821Y-96868284D01*
X151267466Y-97032215D01*
X151317649Y-97087948D01*
X151347880Y-97150940D01*
X151349500Y-97170921D01*
X151349500Y-101679192D01*
X151329815Y-101746231D01*
X151313181Y-101766873D01*
X148862181Y-104217873D01*
X148800858Y-104251358D01*
X148731166Y-104246374D01*
X148675233Y-104204502D01*
X148650816Y-104139038D01*
X148650500Y-104130192D01*
X148650500Y-103170921D01*
X148670185Y-103103882D01*
X148682351Y-103087948D01*
X148732533Y-103032216D01*
X148827179Y-102868284D01*
X148885674Y-102688256D01*
X148905460Y-102500000D01*
X148885674Y-102311744D01*
X148827179Y-102131716D01*
X148732533Y-101967784D01*
X148605871Y-101827112D01*
X148605870Y-101827111D01*
X148452734Y-101715851D01*
X148452729Y-101715848D01*
X148279807Y-101638857D01*
X148279802Y-101638855D01*
X148134001Y-101607865D01*
X148094646Y-101599500D01*
X147905354Y-101599500D01*
X147872897Y-101606398D01*
X147720197Y-101638855D01*
X147720192Y-101638857D01*
X147547270Y-101715848D01*
X147547265Y-101715851D01*
X147394129Y-101827111D01*
X147267466Y-101967785D01*
X147172821Y-102131715D01*
X147172818Y-102131722D01*
X147114810Y-102310255D01*
X147114326Y-102311744D01*
X147094540Y-102500000D01*
X147114326Y-102688256D01*
X147114327Y-102688259D01*
X147172818Y-102868277D01*
X147172821Y-102868284D01*
X147267466Y-103032215D01*
X147317649Y-103087948D01*
X147347880Y-103150940D01*
X147349500Y-103170921D01*
X147349500Y-104179192D01*
X147329815Y-104246231D01*
X147313181Y-104266873D01*
X142766873Y-108813181D01*
X142705550Y-108846666D01*
X142679192Y-108849500D01*
X142676975Y-108849500D01*
X142609936Y-108829815D01*
X142604090Y-108825818D01*
X142452734Y-108715851D01*
X142452729Y-108715848D01*
X142279807Y-108638857D01*
X142279802Y-108638855D01*
X142134001Y-108607865D01*
X142094646Y-108599500D01*
X141905354Y-108599500D01*
X141872897Y-108606398D01*
X141720197Y-108638855D01*
X141720192Y-108638857D01*
X141547270Y-108715848D01*
X141547265Y-108715851D01*
X141394129Y-108827111D01*
X141267466Y-108967785D01*
X141172821Y-109131715D01*
X141172818Y-109131722D01*
X141114327Y-109311740D01*
X141114326Y-109311744D01*
X141094540Y-109500000D01*
X141114326Y-109688256D01*
X141114327Y-109688259D01*
X141172818Y-109868277D01*
X141172821Y-109868284D01*
X141267467Y-110032216D01*
X141373971Y-110150500D01*
X141394129Y-110172888D01*
X141547265Y-110284148D01*
X141547270Y-110284151D01*
X141720192Y-110361142D01*
X141720197Y-110361144D01*
X141905354Y-110400500D01*
X141905355Y-110400500D01*
X142094644Y-110400500D01*
X142094646Y-110400500D01*
X142279803Y-110361144D01*
X142452730Y-110284151D01*
X142452730Y-110284150D01*
X142458666Y-110281508D01*
X142459653Y-110283726D01*
X142516862Y-110269830D01*
X142582895Y-110292662D01*
X142626103Y-110347570D01*
X142632765Y-110417121D01*
X142600768Y-110479234D01*
X142598681Y-110481372D01*
X142494725Y-110585328D01*
X142423534Y-110691874D01*
X142374499Y-110810255D01*
X142374497Y-110810261D01*
X142349500Y-110935928D01*
X142349500Y-119329078D01*
X142329815Y-119396117D01*
X142317650Y-119412050D01*
X142267466Y-119467785D01*
X142172821Y-119631715D01*
X142172818Y-119631722D01*
X142114327Y-119811740D01*
X142114326Y-119811744D01*
X142094540Y-120000000D01*
X142114326Y-120188256D01*
X142114327Y-120188259D01*
X142172818Y-120368277D01*
X142172821Y-120368284D01*
X142267467Y-120532216D01*
X142394129Y-120672888D01*
X142547265Y-120784148D01*
X142547270Y-120784151D01*
X142720192Y-120861142D01*
X142720197Y-120861144D01*
X142905354Y-120900500D01*
X142905355Y-120900500D01*
X143094644Y-120900500D01*
X143094646Y-120900500D01*
X143199719Y-120878166D01*
X143269386Y-120883482D01*
X143325120Y-120925619D01*
X143349225Y-120991199D01*
X143349500Y-120999456D01*
X143349500Y-129829078D01*
X143329815Y-129896117D01*
X143317650Y-129912050D01*
X143267466Y-129967785D01*
X143172821Y-130131715D01*
X143172818Y-130131722D01*
X143114327Y-130311740D01*
X143114326Y-130311744D01*
X143094540Y-130500000D01*
X143114326Y-130688256D01*
X143114327Y-130688259D01*
X143172818Y-130868277D01*
X143172821Y-130868284D01*
X143267467Y-131032216D01*
X143394129Y-131172888D01*
X143547265Y-131284148D01*
X143547270Y-131284151D01*
X143720192Y-131361142D01*
X143720197Y-131361144D01*
X143905354Y-131400500D01*
X143905355Y-131400500D01*
X144094644Y-131400500D01*
X144094646Y-131400500D01*
X144199719Y-131378166D01*
X144269386Y-131383482D01*
X144325120Y-131425619D01*
X144349225Y-131491199D01*
X144349500Y-131499456D01*
X144349500Y-140329078D01*
X144329815Y-140396117D01*
X144317650Y-140412050D01*
X144267466Y-140467785D01*
X144172821Y-140631715D01*
X144172818Y-140631722D01*
X144114327Y-140811740D01*
X144114326Y-140811744D01*
X144094540Y-141000000D01*
X144114326Y-141188256D01*
X144114327Y-141188259D01*
X144172818Y-141368277D01*
X144172821Y-141368284D01*
X144267467Y-141532216D01*
X144394129Y-141672888D01*
X144547265Y-141784148D01*
X144547270Y-141784151D01*
X144720192Y-141861142D01*
X144720197Y-141861144D01*
X144905354Y-141900500D01*
X144905355Y-141900500D01*
X145094644Y-141900500D01*
X145094646Y-141900500D01*
X145279803Y-141861144D01*
X145452730Y-141784151D01*
X145605871Y-141672888D01*
X145732533Y-141532216D01*
X145827179Y-141368284D01*
X145885674Y-141188256D01*
X145905460Y-141000000D01*
X145885674Y-140811744D01*
X145827179Y-140631716D01*
X145732533Y-140467784D01*
X145682350Y-140412050D01*
X145652120Y-140349058D01*
X145650500Y-140329078D01*
X145650500Y-112320808D01*
X145670185Y-112253769D01*
X145686819Y-112233127D01*
X154137819Y-103782127D01*
X154199142Y-103748642D01*
X154268834Y-103753626D01*
X154324767Y-103795498D01*
X154349184Y-103860962D01*
X154349500Y-103869808D01*
X154349500Y-108829078D01*
X154329815Y-108896117D01*
X154317650Y-108912050D01*
X154267466Y-108967785D01*
X154172821Y-109131715D01*
X154172818Y-109131722D01*
X154114327Y-109311740D01*
X154114326Y-109311744D01*
X154094540Y-109500000D01*
X154114326Y-109688256D01*
X154114327Y-109688259D01*
X154172818Y-109868277D01*
X154172821Y-109868284D01*
X154267467Y-110032216D01*
X154373971Y-110150500D01*
X154394129Y-110172888D01*
X154547265Y-110284148D01*
X154547270Y-110284151D01*
X154720192Y-110361142D01*
X154720197Y-110361144D01*
X154905354Y-110400500D01*
X154905355Y-110400500D01*
X155094644Y-110400500D01*
X155094646Y-110400500D01*
X155199719Y-110378166D01*
X155269386Y-110383482D01*
X155325120Y-110425619D01*
X155349225Y-110491199D01*
X155349500Y-110499456D01*
X155349500Y-119329078D01*
X155329815Y-119396117D01*
X155317650Y-119412050D01*
X155267466Y-119467785D01*
X155172821Y-119631715D01*
X155172818Y-119631722D01*
X155114327Y-119811740D01*
X155114326Y-119811744D01*
X155094540Y-120000000D01*
X155114326Y-120188256D01*
X155114327Y-120188259D01*
X155172818Y-120368277D01*
X155172821Y-120368284D01*
X155267467Y-120532216D01*
X155394129Y-120672888D01*
X155547265Y-120784148D01*
X155547270Y-120784151D01*
X155720192Y-120861142D01*
X155720197Y-120861144D01*
X155905354Y-120900500D01*
X155905355Y-120900500D01*
X156094644Y-120900500D01*
X156094646Y-120900500D01*
X156199719Y-120878166D01*
X156269386Y-120883482D01*
X156325120Y-120925619D01*
X156349225Y-120991199D01*
X156349500Y-120999456D01*
X156349500Y-129829078D01*
X156329815Y-129896117D01*
X156317650Y-129912050D01*
X156267466Y-129967785D01*
X156172821Y-130131715D01*
X156172818Y-130131722D01*
X156114327Y-130311740D01*
X156114326Y-130311744D01*
X156094540Y-130500000D01*
X156114326Y-130688256D01*
X156114327Y-130688259D01*
X156172818Y-130868277D01*
X156172821Y-130868284D01*
X156267467Y-131032216D01*
X156394129Y-131172888D01*
X156547265Y-131284148D01*
X156547270Y-131284151D01*
X156720192Y-131361142D01*
X156720197Y-131361144D01*
X156905354Y-131400500D01*
X156905355Y-131400500D01*
X157094644Y-131400500D01*
X157094646Y-131400500D01*
X157279803Y-131361144D01*
X157452730Y-131284151D01*
X157605871Y-131172888D01*
X157732533Y-131032216D01*
X157790727Y-130931419D01*
X157841292Y-130883206D01*
X157909899Y-130869982D01*
X157974764Y-130895950D01*
X157985794Y-130905740D01*
X162565191Y-135485137D01*
X162598676Y-135546460D01*
X162600830Y-135559851D01*
X162614326Y-135688256D01*
X162614327Y-135688259D01*
X162672818Y-135868277D01*
X162672821Y-135868284D01*
X162767467Y-136032216D01*
X162894129Y-136172888D01*
X163047265Y-136284148D01*
X163047270Y-136284151D01*
X163220192Y-136361142D01*
X163220197Y-136361144D01*
X163405354Y-136400500D01*
X163405355Y-136400500D01*
X163594644Y-136400500D01*
X163594646Y-136400500D01*
X163779803Y-136361144D01*
X163952730Y-136284151D01*
X164105871Y-136172888D01*
X164232533Y-136032216D01*
X164327179Y-135868284D01*
X164385674Y-135688256D01*
X164405460Y-135500000D01*
X164385674Y-135311744D01*
X164327179Y-135131716D01*
X164232533Y-134967784D01*
X164105871Y-134827112D01*
X164105870Y-134827111D01*
X163952734Y-134715851D01*
X163952729Y-134715848D01*
X163779807Y-134638857D01*
X163779802Y-134638855D01*
X163634001Y-134607865D01*
X163594646Y-134599500D01*
X163594645Y-134599500D01*
X163570808Y-134599500D01*
X163503769Y-134579815D01*
X163483127Y-134563181D01*
X158686819Y-129766873D01*
X158653334Y-129705550D01*
X158650500Y-129679192D01*
X158650500Y-91935928D01*
X158625502Y-91810261D01*
X158625501Y-91810260D01*
X158625501Y-91810256D01*
X158588973Y-91722070D01*
X158586397Y-91715851D01*
X158576468Y-91691878D01*
X158576462Y-91691868D01*
X158505278Y-91585332D01*
X158505272Y-91585325D01*
X157414673Y-90494726D01*
X157414669Y-90494723D01*
X157308127Y-90423535D01*
X157189744Y-90374499D01*
X157189738Y-90374497D01*
X157064071Y-90349500D01*
X157064069Y-90349500D01*
X156503954Y-90349500D01*
X156436915Y-90329815D01*
X156391160Y-90277011D01*
X156381216Y-90207853D01*
X156384617Y-90193227D01*
X156385672Y-90188261D01*
X156385674Y-90188256D01*
X156405460Y-90000000D01*
X156385674Y-89811744D01*
X156327179Y-89631716D01*
X156232533Y-89467784D01*
X156111146Y-89332971D01*
X156080917Y-89269981D01*
X156089542Y-89200646D01*
X156111147Y-89167028D01*
X156126029Y-89150500D01*
X156232533Y-89032216D01*
X156327179Y-88868284D01*
X156385674Y-88688256D01*
X156405460Y-88500000D01*
X156385674Y-88311744D01*
X156327179Y-88131716D01*
X156232533Y-87967784D01*
X156105871Y-87827112D01*
X156091755Y-87816856D01*
X155952734Y-87715851D01*
X155952729Y-87715848D01*
X155779807Y-87638857D01*
X155779802Y-87638855D01*
X155634001Y-87607865D01*
X155594646Y-87599500D01*
X155527568Y-87599500D01*
X155460529Y-87579815D01*
X155414774Y-87527011D01*
X155404247Y-87488462D01*
X155403898Y-87485137D01*
X155385674Y-87311744D01*
X155327179Y-87131716D01*
X155232533Y-86967784D01*
X155105871Y-86827112D01*
X155105870Y-86827111D01*
X154952734Y-86715851D01*
X154952729Y-86715848D01*
X154779807Y-86638857D01*
X154779802Y-86638855D01*
X154634001Y-86607865D01*
X154594646Y-86599500D01*
X154594645Y-86599500D01*
X154570808Y-86599500D01*
X154503769Y-86579815D01*
X154483127Y-86563181D01*
X153686819Y-85766873D01*
X153653334Y-85705550D01*
X153650500Y-85679192D01*
X153650500Y-81999456D01*
X153670185Y-81932417D01*
X153722989Y-81886662D01*
X153792147Y-81876718D01*
X153800274Y-81878164D01*
X153905354Y-81900500D01*
X153905355Y-81900500D01*
X154094644Y-81900500D01*
X154094646Y-81900500D01*
X154279803Y-81861144D01*
X154452730Y-81784151D01*
X154479089Y-81765000D01*
X166144341Y-81765000D01*
X166164936Y-82000403D01*
X166164938Y-82000413D01*
X166226094Y-82228655D01*
X166226096Y-82228659D01*
X166226097Y-82228663D01*
X166324711Y-82440141D01*
X166325965Y-82442830D01*
X166325967Y-82442834D01*
X166376402Y-82514862D01*
X166461505Y-82636401D01*
X166628599Y-82803495D01*
X166662328Y-82827112D01*
X166822165Y-82939032D01*
X166822167Y-82939033D01*
X166822170Y-82939035D01*
X167036337Y-83038903D01*
X167264592Y-83100063D01*
X167452918Y-83116539D01*
X167499999Y-83120659D01*
X167500000Y-83120659D01*
X167500001Y-83120659D01*
X167539234Y-83117226D01*
X167735408Y-83100063D01*
X167963663Y-83038903D01*
X168177830Y-82939035D01*
X168371401Y-82803495D01*
X168538495Y-82636401D01*
X168674035Y-82442830D01*
X168773903Y-82228663D01*
X168835063Y-82000408D01*
X168855659Y-81765000D01*
X168835063Y-81529592D01*
X168773903Y-81301337D01*
X168674035Y-81087171D01*
X168616693Y-81005278D01*
X168538496Y-80893600D01*
X168538495Y-80893599D01*
X168416567Y-80771671D01*
X168383084Y-80710351D01*
X168388068Y-80640659D01*
X168429939Y-80584725D01*
X168460915Y-80567810D01*
X168592331Y-80518796D01*
X168707546Y-80432546D01*
X168793796Y-80317331D01*
X168844091Y-80182483D01*
X168850500Y-80122873D01*
X168850499Y-78327128D01*
X168844091Y-78267517D01*
X168842387Y-78262949D01*
X168793797Y-78132671D01*
X168793793Y-78132664D01*
X168707547Y-78017455D01*
X168707544Y-78017452D01*
X168592335Y-77931206D01*
X168592328Y-77931202D01*
X168457482Y-77880908D01*
X168457483Y-77880908D01*
X168397883Y-77874501D01*
X168397881Y-77874500D01*
X168397873Y-77874500D01*
X168397864Y-77874500D01*
X166602129Y-77874500D01*
X166602123Y-77874501D01*
X166542516Y-77880908D01*
X166407671Y-77931202D01*
X166407664Y-77931206D01*
X166292455Y-78017452D01*
X166292452Y-78017455D01*
X166206206Y-78132664D01*
X166206202Y-78132671D01*
X166155908Y-78267517D01*
X166151542Y-78308130D01*
X166149501Y-78327123D01*
X166149500Y-78327135D01*
X166149500Y-80122870D01*
X166149501Y-80122876D01*
X166155908Y-80182483D01*
X166206202Y-80317328D01*
X166206206Y-80317335D01*
X166292452Y-80432544D01*
X166292455Y-80432547D01*
X166407664Y-80518793D01*
X166407671Y-80518797D01*
X166539081Y-80567810D01*
X166595015Y-80609681D01*
X166619432Y-80675145D01*
X166604580Y-80743418D01*
X166583430Y-80771673D01*
X166461503Y-80893600D01*
X166325965Y-81087169D01*
X166325964Y-81087171D01*
X166226098Y-81301335D01*
X166226094Y-81301344D01*
X166164938Y-81529586D01*
X166164936Y-81529596D01*
X166144341Y-81764999D01*
X166144341Y-81765000D01*
X154479089Y-81765000D01*
X154605871Y-81672888D01*
X154732533Y-81532216D01*
X154827179Y-81368284D01*
X154885674Y-81188256D01*
X154899168Y-81059855D01*
X154925752Y-80995242D01*
X154934799Y-80985145D01*
X157505277Y-78414669D01*
X157576465Y-78308127D01*
X157595178Y-78262949D01*
X157625501Y-78189744D01*
X157650500Y-78064069D01*
X157650500Y-75170921D01*
X157670185Y-75103882D01*
X157682351Y-75087948D01*
X157732533Y-75032216D01*
X157827179Y-74868284D01*
X157885674Y-74688256D01*
X157905460Y-74500000D01*
X157885674Y-74311744D01*
X157827179Y-74131716D01*
X157732533Y-73967784D01*
X157605871Y-73827112D01*
X157517715Y-73763063D01*
X157475051Y-73707734D01*
X157469072Y-73638121D01*
X157501678Y-73576326D01*
X157525325Y-73557319D01*
X157526205Y-73556773D01*
X157526210Y-73556772D01*
X157711432Y-73442088D01*
X157872427Y-73295322D01*
X157901047Y-73257422D01*
X157957153Y-73215787D01*
X158026865Y-73211094D01*
X158088048Y-73244836D01*
X158098946Y-73257414D01*
X158127573Y-73295322D01*
X158288568Y-73442088D01*
X158288575Y-73442092D01*
X158288576Y-73442093D01*
X158473786Y-73556770D01*
X158473792Y-73556773D01*
X158496664Y-73565633D01*
X158676931Y-73635470D01*
X158891074Y-73675500D01*
X158891076Y-73675500D01*
X159108924Y-73675500D01*
X159108926Y-73675500D01*
X159323069Y-73635470D01*
X159526210Y-73556772D01*
X159711432Y-73442088D01*
X159872427Y-73295322D01*
X159901047Y-73257422D01*
X159957153Y-73215787D01*
X160026865Y-73211094D01*
X160088048Y-73244836D01*
X160098946Y-73257414D01*
X160127573Y-73295322D01*
X160288568Y-73442088D01*
X160288575Y-73442092D01*
X160288576Y-73442093D01*
X160473786Y-73556770D01*
X160473792Y-73556773D01*
X160496664Y-73565633D01*
X160676931Y-73635470D01*
X160891074Y-73675500D01*
X160891076Y-73675500D01*
X161108924Y-73675500D01*
X161108926Y-73675500D01*
X161323069Y-73635470D01*
X161526210Y-73556772D01*
X161711432Y-73442088D01*
X161872427Y-73295322D01*
X161901047Y-73257422D01*
X161957153Y-73215787D01*
X162026865Y-73211094D01*
X162088048Y-73244836D01*
X162098946Y-73257414D01*
X162127573Y-73295322D01*
X162288568Y-73442088D01*
X162288575Y-73442092D01*
X162288576Y-73442093D01*
X162473786Y-73556770D01*
X162473792Y-73556773D01*
X162496664Y-73565633D01*
X162676931Y-73635470D01*
X162891074Y-73675500D01*
X162891076Y-73675500D01*
X163108924Y-73675500D01*
X163108926Y-73675500D01*
X163323069Y-73635470D01*
X163526210Y-73556772D01*
X163711432Y-73442088D01*
X163872427Y-73295322D01*
X163901047Y-73257422D01*
X163957153Y-73215787D01*
X164026865Y-73211094D01*
X164088048Y-73244836D01*
X164098946Y-73257414D01*
X164127573Y-73295322D01*
X164288568Y-73442088D01*
X164288575Y-73442092D01*
X164288576Y-73442093D01*
X164473786Y-73556770D01*
X164473792Y-73556773D01*
X164496664Y-73565633D01*
X164676931Y-73635470D01*
X164891074Y-73675500D01*
X164891076Y-73675500D01*
X165108924Y-73675500D01*
X165108926Y-73675500D01*
X165323069Y-73635470D01*
X165526210Y-73556772D01*
X165711432Y-73442088D01*
X165872427Y-73295322D01*
X166003712Y-73121472D01*
X166100817Y-72926459D01*
X166160435Y-72716923D01*
X166180536Y-72500000D01*
X166160435Y-72283077D01*
X166100817Y-72073541D01*
X166003712Y-71878528D01*
X165872427Y-71704678D01*
X165845016Y-71679690D01*
X165755996Y-71598537D01*
X165711432Y-71557912D01*
X165711428Y-71557909D01*
X165711423Y-71557906D01*
X165526213Y-71443229D01*
X165526207Y-71443226D01*
X165432714Y-71407007D01*
X165323069Y-71364530D01*
X165108926Y-71324500D01*
X164891074Y-71324500D01*
X164676931Y-71364530D01*
X164633891Y-71381204D01*
X164473792Y-71443226D01*
X164473786Y-71443229D01*
X164288576Y-71557906D01*
X164288566Y-71557913D01*
X164127573Y-71704676D01*
X164098953Y-71742576D01*
X164042844Y-71784211D01*
X163973132Y-71788902D01*
X163911950Y-71755159D01*
X163901047Y-71742576D01*
X163872426Y-71704676D01*
X163711433Y-71557913D01*
X163711423Y-71557906D01*
X163526213Y-71443229D01*
X163526207Y-71443226D01*
X163432714Y-71407007D01*
X163323069Y-71364530D01*
X163108926Y-71324500D01*
X162891074Y-71324500D01*
X162676931Y-71364530D01*
X162633891Y-71381204D01*
X162473792Y-71443226D01*
X162473786Y-71443229D01*
X162288576Y-71557906D01*
X162288566Y-71557913D01*
X162127573Y-71704676D01*
X162098953Y-71742576D01*
X162042844Y-71784211D01*
X161973132Y-71788902D01*
X161911950Y-71755159D01*
X161901047Y-71742576D01*
X161872426Y-71704676D01*
X161711433Y-71557913D01*
X161711423Y-71557906D01*
X161526213Y-71443229D01*
X161526207Y-71443226D01*
X161432714Y-71407007D01*
X161323069Y-71364530D01*
X161108926Y-71324500D01*
X160891074Y-71324500D01*
X160676931Y-71364530D01*
X160633891Y-71381204D01*
X160473792Y-71443226D01*
X160473786Y-71443229D01*
X160288576Y-71557906D01*
X160288566Y-71557913D01*
X160127573Y-71704676D01*
X160098953Y-71742576D01*
X160042844Y-71784211D01*
X159973132Y-71788902D01*
X159911950Y-71755159D01*
X159901047Y-71742576D01*
X159872426Y-71704676D01*
X159711433Y-71557913D01*
X159711423Y-71557906D01*
X159526213Y-71443229D01*
X159526207Y-71443226D01*
X159432714Y-71407007D01*
X159323069Y-71364530D01*
X159108926Y-71324500D01*
X158891074Y-71324500D01*
X158676931Y-71364530D01*
X158633891Y-71381204D01*
X158473792Y-71443226D01*
X158473786Y-71443229D01*
X158288576Y-71557906D01*
X158288566Y-71557913D01*
X158127573Y-71704676D01*
X158098953Y-71742576D01*
X158042844Y-71784211D01*
X157973132Y-71788902D01*
X157911950Y-71755159D01*
X157901047Y-71742576D01*
X157872426Y-71704676D01*
X157711433Y-71557913D01*
X157711423Y-71557906D01*
X157526213Y-71443229D01*
X157526207Y-71443226D01*
X157432714Y-71407007D01*
X157323069Y-71364530D01*
X157108926Y-71324500D01*
X156891074Y-71324500D01*
X156676931Y-71364530D01*
X156633891Y-71381204D01*
X156473792Y-71443226D01*
X156473786Y-71443229D01*
X156288576Y-71557906D01*
X156288566Y-71557913D01*
X156127573Y-71704676D01*
X156098953Y-71742576D01*
X156042844Y-71784211D01*
X155973132Y-71788902D01*
X155911950Y-71755159D01*
X155901047Y-71742576D01*
X155872426Y-71704676D01*
X155711433Y-71557913D01*
X155711423Y-71557906D01*
X155526213Y-71443229D01*
X155526207Y-71443226D01*
X155432714Y-71407007D01*
X155323069Y-71364530D01*
X155108926Y-71324500D01*
X154891074Y-71324500D01*
X154676931Y-71364530D01*
X154633891Y-71381204D01*
X154473792Y-71443226D01*
X154473786Y-71443229D01*
X154288576Y-71557906D01*
X154288566Y-71557913D01*
X154127573Y-71704676D01*
X154098953Y-71742576D01*
X154042844Y-71784211D01*
X153973132Y-71788902D01*
X153911950Y-71755159D01*
X153901047Y-71742576D01*
X153872426Y-71704676D01*
X153711433Y-71557913D01*
X153711423Y-71557906D01*
X153526213Y-71443229D01*
X153526207Y-71443226D01*
X153432714Y-71407007D01*
X153323069Y-71364530D01*
X153108926Y-71324500D01*
X152891074Y-71324500D01*
X152676931Y-71364530D01*
X152633891Y-71381204D01*
X152473792Y-71443226D01*
X152473786Y-71443229D01*
X152288565Y-71557913D01*
X152277585Y-71567923D01*
X152214780Y-71598537D01*
X152145393Y-71590336D01*
X152094785Y-71550594D01*
X152056984Y-71500099D01*
X152032546Y-71467454D01*
X152032544Y-71467453D01*
X152032544Y-71467452D01*
X151917334Y-71381205D01*
X151881164Y-71367714D01*
X151825231Y-71325841D01*
X151800816Y-71260376D01*
X151800500Y-71251533D01*
X151800500Y-66447718D01*
X151817112Y-66385720D01*
X151827179Y-66368284D01*
X151885674Y-66188256D01*
X151905460Y-66000000D01*
X151885674Y-65811744D01*
X151827179Y-65631716D01*
X151732533Y-65467784D01*
X151605871Y-65327112D01*
X151605870Y-65327111D01*
X151452734Y-65215851D01*
X151452729Y-65215848D01*
X151279807Y-65138857D01*
X151279802Y-65138855D01*
X151134001Y-65107865D01*
X151094646Y-65099500D01*
X150905354Y-65099500D01*
X150872897Y-65106398D01*
X150720197Y-65138855D01*
X150720192Y-65138857D01*
X150547270Y-65215848D01*
X150547265Y-65215851D01*
X150394129Y-65327111D01*
X150267466Y-65467785D01*
X150172821Y-65631715D01*
X150172818Y-65631722D01*
X150114327Y-65811740D01*
X150114326Y-65811744D01*
X150094540Y-66000000D01*
X150114326Y-66188256D01*
X150114327Y-66188259D01*
X150172818Y-66368277D01*
X150172819Y-66368279D01*
X150172821Y-66368284D01*
X150182887Y-66385720D01*
X150199500Y-66447718D01*
X150199500Y-71251533D01*
X150179815Y-71318572D01*
X150127011Y-71364327D01*
X150118836Y-71367714D01*
X150082665Y-71381205D01*
X149967455Y-71467452D01*
X149967452Y-71467455D01*
X149881206Y-71582664D01*
X149881202Y-71582671D01*
X149830908Y-71717517D01*
X149824501Y-71777116D01*
X149824500Y-71777135D01*
X149824500Y-73222870D01*
X149824501Y-73222876D01*
X149830908Y-73282483D01*
X149881202Y-73417328D01*
X149881206Y-73417335D01*
X149967452Y-73532544D01*
X149967455Y-73532547D01*
X150082664Y-73618793D01*
X150082671Y-73618797D01*
X150217517Y-73669091D01*
X150217516Y-73669091D01*
X150224444Y-73669835D01*
X150277127Y-73675500D01*
X151722872Y-73675499D01*
X151782483Y-73669091D01*
X151917331Y-73618796D01*
X152032546Y-73532546D01*
X152094785Y-73449404D01*
X152150718Y-73407535D01*
X152220410Y-73402551D01*
X152277588Y-73432078D01*
X152288568Y-73442088D01*
X152288570Y-73442089D01*
X152288571Y-73442090D01*
X152473786Y-73556770D01*
X152473792Y-73556773D01*
X152496664Y-73565633D01*
X152676931Y-73635470D01*
X152891074Y-73675500D01*
X152891076Y-73675500D01*
X153108924Y-73675500D01*
X153108926Y-73675500D01*
X153323069Y-73635470D01*
X153526210Y-73556772D01*
X153711432Y-73442088D01*
X153872427Y-73295322D01*
X153901047Y-73257422D01*
X153957153Y-73215787D01*
X154026865Y-73211094D01*
X154088048Y-73244836D01*
X154098946Y-73257414D01*
X154127573Y-73295322D01*
X154288568Y-73442088D01*
X154288575Y-73442092D01*
X154288576Y-73442093D01*
X154473786Y-73556770D01*
X154473792Y-73556773D01*
X154506729Y-73569533D01*
X154610861Y-73609874D01*
X154666261Y-73652446D01*
X154689852Y-73718213D01*
X154674141Y-73786293D01*
X154624117Y-73835072D01*
X154566066Y-73849500D01*
X154435929Y-73849500D01*
X154310261Y-73874497D01*
X154310255Y-73874499D01*
X154202179Y-73919266D01*
X154202178Y-73919266D01*
X154191876Y-73923532D01*
X154085326Y-73994726D01*
X154085325Y-73994727D01*
X149266873Y-78813181D01*
X149205550Y-78846666D01*
X149179192Y-78849500D01*
X119820808Y-78849500D01*
X119753769Y-78829815D01*
X119733127Y-78813181D01*
X114186819Y-73266873D01*
X114153334Y-73205550D01*
X114150500Y-73179192D01*
X114150500Y-71997870D01*
X114874500Y-71997870D01*
X114874501Y-71997876D01*
X114880908Y-72057483D01*
X114931202Y-72192328D01*
X114931206Y-72192335D01*
X115017452Y-72307544D01*
X115017455Y-72307547D01*
X115132664Y-72393793D01*
X115132671Y-72393797D01*
X115267517Y-72444091D01*
X115267516Y-72444091D01*
X115274444Y-72444835D01*
X115327127Y-72450500D01*
X117122872Y-72450499D01*
X117182483Y-72444091D01*
X117317331Y-72393796D01*
X117432546Y-72307546D01*
X117518796Y-72192331D01*
X117567810Y-72060916D01*
X117609681Y-72004984D01*
X117675145Y-71980566D01*
X117743418Y-71995417D01*
X117771673Y-72016569D01*
X117893599Y-72138495D01*
X117990384Y-72206265D01*
X118087165Y-72274032D01*
X118087167Y-72274033D01*
X118087170Y-72274035D01*
X118301337Y-72373903D01*
X118529592Y-72435063D01*
X118706034Y-72450500D01*
X118764999Y-72455659D01*
X118765000Y-72455659D01*
X118765001Y-72455659D01*
X118823966Y-72450500D01*
X119000408Y-72435063D01*
X119228663Y-72373903D01*
X119442830Y-72274035D01*
X119636401Y-72138495D01*
X119803495Y-71971401D01*
X119933425Y-71785842D01*
X119988002Y-71742217D01*
X120057500Y-71735023D01*
X120119855Y-71766546D01*
X120136575Y-71785842D01*
X120266500Y-71971395D01*
X120266505Y-71971401D01*
X120433599Y-72138495D01*
X120530384Y-72206265D01*
X120627165Y-72274032D01*
X120627167Y-72274033D01*
X120627170Y-72274035D01*
X120841337Y-72373903D01*
X121069592Y-72435063D01*
X121246034Y-72450500D01*
X121304999Y-72455659D01*
X121305000Y-72455659D01*
X121305001Y-72455659D01*
X121363966Y-72450500D01*
X121540408Y-72435063D01*
X121768663Y-72373903D01*
X121982830Y-72274035D01*
X122176401Y-72138495D01*
X122343495Y-71971401D01*
X122473425Y-71785842D01*
X122528002Y-71742217D01*
X122597500Y-71735023D01*
X122659855Y-71766546D01*
X122676575Y-71785842D01*
X122806500Y-71971395D01*
X122806505Y-71971401D01*
X122973599Y-72138495D01*
X123070384Y-72206265D01*
X123167165Y-72274032D01*
X123167167Y-72274033D01*
X123167170Y-72274035D01*
X123381337Y-72373903D01*
X123609592Y-72435063D01*
X123786034Y-72450500D01*
X123844999Y-72455659D01*
X123845000Y-72455659D01*
X123845001Y-72455659D01*
X123903966Y-72450500D01*
X124080408Y-72435063D01*
X124308663Y-72373903D01*
X124522830Y-72274035D01*
X124716401Y-72138495D01*
X124883495Y-71971401D01*
X125013425Y-71785842D01*
X125068002Y-71742217D01*
X125137500Y-71735023D01*
X125199855Y-71766546D01*
X125216575Y-71785842D01*
X125346500Y-71971395D01*
X125346505Y-71971401D01*
X125513599Y-72138495D01*
X125610384Y-72206265D01*
X125707165Y-72274032D01*
X125707167Y-72274033D01*
X125707170Y-72274035D01*
X125921337Y-72373903D01*
X126149592Y-72435063D01*
X126326034Y-72450500D01*
X126384999Y-72455659D01*
X126385000Y-72455659D01*
X126385001Y-72455659D01*
X126443966Y-72450500D01*
X126620408Y-72435063D01*
X126848663Y-72373903D01*
X127062830Y-72274035D01*
X127256401Y-72138495D01*
X127423495Y-71971401D01*
X127553425Y-71785842D01*
X127608002Y-71742217D01*
X127677500Y-71735023D01*
X127739855Y-71766546D01*
X127756575Y-71785842D01*
X127886500Y-71971395D01*
X127886505Y-71971401D01*
X128053599Y-72138495D01*
X128150384Y-72206265D01*
X128247165Y-72274032D01*
X128247167Y-72274033D01*
X128247170Y-72274035D01*
X128461337Y-72373903D01*
X128689592Y-72435063D01*
X128866034Y-72450500D01*
X128924999Y-72455659D01*
X128925000Y-72455659D01*
X128925001Y-72455659D01*
X128983966Y-72450500D01*
X129160408Y-72435063D01*
X129388663Y-72373903D01*
X129602830Y-72274035D01*
X129796401Y-72138495D01*
X129963495Y-71971401D01*
X130093730Y-71785405D01*
X130148307Y-71741781D01*
X130217805Y-71734587D01*
X130280160Y-71766110D01*
X130296879Y-71785405D01*
X130426890Y-71971078D01*
X130593917Y-72138105D01*
X130787421Y-72273600D01*
X131001507Y-72373429D01*
X131001516Y-72373433D01*
X131215000Y-72430634D01*
X131215000Y-71533012D01*
X131272007Y-71565925D01*
X131399174Y-71600000D01*
X131530826Y-71600000D01*
X131657993Y-71565925D01*
X131715000Y-71533012D01*
X131715000Y-72430633D01*
X131928483Y-72373433D01*
X131928492Y-72373429D01*
X132142578Y-72273600D01*
X132336082Y-72138105D01*
X132503105Y-71971082D01*
X132633119Y-71785405D01*
X132687696Y-71741781D01*
X132757195Y-71734588D01*
X132819549Y-71766110D01*
X132836269Y-71785405D01*
X132966505Y-71971401D01*
X133133599Y-72138495D01*
X133230384Y-72206265D01*
X133327165Y-72274032D01*
X133327167Y-72274033D01*
X133327170Y-72274035D01*
X133541337Y-72373903D01*
X133769592Y-72435063D01*
X133946034Y-72450500D01*
X134004999Y-72455659D01*
X134005000Y-72455659D01*
X134005001Y-72455659D01*
X134063966Y-72450500D01*
X134240408Y-72435063D01*
X134468663Y-72373903D01*
X134682830Y-72274035D01*
X134876401Y-72138495D01*
X135043495Y-71971401D01*
X135179035Y-71777830D01*
X135278903Y-71563663D01*
X135340063Y-71335408D01*
X135360659Y-71100000D01*
X135340063Y-70864592D01*
X135278903Y-70636337D01*
X135179035Y-70422171D01*
X135173731Y-70414595D01*
X135043494Y-70228597D01*
X134876402Y-70061506D01*
X134876395Y-70061501D01*
X134682834Y-69925967D01*
X134682830Y-69925965D01*
X134682828Y-69925964D01*
X134468663Y-69826097D01*
X134468659Y-69826096D01*
X134468655Y-69826094D01*
X134240413Y-69764938D01*
X134240403Y-69764936D01*
X134005001Y-69744341D01*
X134004999Y-69744341D01*
X133769596Y-69764936D01*
X133769586Y-69764938D01*
X133541344Y-69826094D01*
X133541335Y-69826098D01*
X133327171Y-69925964D01*
X133327169Y-69925965D01*
X133133597Y-70061505D01*
X132966508Y-70228594D01*
X132836269Y-70414595D01*
X132781692Y-70458219D01*
X132712193Y-70465412D01*
X132649839Y-70433890D01*
X132633119Y-70414594D01*
X132503113Y-70228926D01*
X132503108Y-70228920D01*
X132336082Y-70061894D01*
X132142578Y-69926399D01*
X131928492Y-69826570D01*
X131928486Y-69826567D01*
X131715000Y-69769364D01*
X131715000Y-70666988D01*
X131657993Y-70634075D01*
X131530826Y-70600000D01*
X131399174Y-70600000D01*
X131272007Y-70634075D01*
X131215000Y-70666988D01*
X131215000Y-69769364D01*
X131214999Y-69769364D01*
X131001513Y-69826567D01*
X131001507Y-69826570D01*
X130787422Y-69926399D01*
X130787420Y-69926400D01*
X130593926Y-70061886D01*
X130593920Y-70061891D01*
X130426891Y-70228920D01*
X130426890Y-70228922D01*
X130296880Y-70414595D01*
X130242303Y-70458219D01*
X130172804Y-70465412D01*
X130110450Y-70433890D01*
X130093730Y-70414594D01*
X129963494Y-70228597D01*
X129796402Y-70061506D01*
X129796395Y-70061501D01*
X129602834Y-69925967D01*
X129602830Y-69925965D01*
X129602828Y-69925964D01*
X129388663Y-69826097D01*
X129388659Y-69826096D01*
X129388655Y-69826094D01*
X129160413Y-69764938D01*
X129160403Y-69764936D01*
X128925001Y-69744341D01*
X128924999Y-69744341D01*
X128689596Y-69764936D01*
X128689586Y-69764938D01*
X128461344Y-69826094D01*
X128461335Y-69826098D01*
X128247171Y-69925964D01*
X128247169Y-69925965D01*
X128053597Y-70061505D01*
X127886505Y-70228597D01*
X127756575Y-70414158D01*
X127701998Y-70457783D01*
X127632500Y-70464977D01*
X127570145Y-70433454D01*
X127553425Y-70414158D01*
X127423494Y-70228597D01*
X127256402Y-70061506D01*
X127256395Y-70061501D01*
X127062834Y-69925967D01*
X127062830Y-69925965D01*
X127062828Y-69925964D01*
X126848663Y-69826097D01*
X126848659Y-69826096D01*
X126848655Y-69826094D01*
X126620413Y-69764938D01*
X126620403Y-69764936D01*
X126385001Y-69744341D01*
X126384999Y-69744341D01*
X126149596Y-69764936D01*
X126149586Y-69764938D01*
X125921344Y-69826094D01*
X125921335Y-69826098D01*
X125707171Y-69925964D01*
X125707169Y-69925965D01*
X125513597Y-70061505D01*
X125346505Y-70228597D01*
X125216575Y-70414158D01*
X125161998Y-70457783D01*
X125092500Y-70464977D01*
X125030145Y-70433454D01*
X125013425Y-70414158D01*
X124883494Y-70228597D01*
X124716402Y-70061506D01*
X124716395Y-70061501D01*
X124522834Y-69925967D01*
X124522830Y-69925965D01*
X124522828Y-69925964D01*
X124308663Y-69826097D01*
X124308659Y-69826096D01*
X124308655Y-69826094D01*
X124080413Y-69764938D01*
X124080403Y-69764936D01*
X123845001Y-69744341D01*
X123844999Y-69744341D01*
X123609596Y-69764936D01*
X123609586Y-69764938D01*
X123381344Y-69826094D01*
X123381335Y-69826098D01*
X123167171Y-69925964D01*
X123167169Y-69925965D01*
X122973597Y-70061505D01*
X122806505Y-70228597D01*
X122676575Y-70414158D01*
X122621998Y-70457783D01*
X122552500Y-70464977D01*
X122490145Y-70433454D01*
X122473425Y-70414158D01*
X122343494Y-70228597D01*
X122176402Y-70061506D01*
X122176395Y-70061501D01*
X121982834Y-69925967D01*
X121982830Y-69925965D01*
X121982828Y-69925964D01*
X121768663Y-69826097D01*
X121768659Y-69826096D01*
X121768655Y-69826094D01*
X121540413Y-69764938D01*
X121540403Y-69764936D01*
X121305001Y-69744341D01*
X121304999Y-69744341D01*
X121069596Y-69764936D01*
X121069586Y-69764938D01*
X120841344Y-69826094D01*
X120841335Y-69826098D01*
X120627171Y-69925964D01*
X120627169Y-69925965D01*
X120433597Y-70061505D01*
X120266505Y-70228597D01*
X120136575Y-70414158D01*
X120081998Y-70457783D01*
X120012500Y-70464977D01*
X119950145Y-70433454D01*
X119933425Y-70414158D01*
X119803494Y-70228597D01*
X119636402Y-70061506D01*
X119636395Y-70061501D01*
X119442834Y-69925967D01*
X119442830Y-69925965D01*
X119442828Y-69925964D01*
X119228663Y-69826097D01*
X119228659Y-69826096D01*
X119228655Y-69826094D01*
X119000413Y-69764938D01*
X119000403Y-69764936D01*
X118765001Y-69744341D01*
X118764999Y-69744341D01*
X118529596Y-69764936D01*
X118529586Y-69764938D01*
X118301344Y-69826094D01*
X118301335Y-69826098D01*
X118087171Y-69925964D01*
X118087169Y-69925965D01*
X117893600Y-70061503D01*
X117771673Y-70183430D01*
X117710350Y-70216914D01*
X117640658Y-70211930D01*
X117584725Y-70170058D01*
X117567810Y-70139081D01*
X117518797Y-70007671D01*
X117518793Y-70007664D01*
X117432547Y-69892455D01*
X117432544Y-69892452D01*
X117317335Y-69806206D01*
X117317328Y-69806202D01*
X117182482Y-69755908D01*
X117182483Y-69755908D01*
X117122883Y-69749501D01*
X117122881Y-69749500D01*
X117122873Y-69749500D01*
X117122864Y-69749500D01*
X115327129Y-69749500D01*
X115327123Y-69749501D01*
X115267516Y-69755908D01*
X115132671Y-69806202D01*
X115132664Y-69806206D01*
X115017455Y-69892452D01*
X115017452Y-69892455D01*
X114931206Y-70007664D01*
X114931202Y-70007671D01*
X114880908Y-70142517D01*
X114874501Y-70202116D01*
X114874500Y-70202135D01*
X114874500Y-71997870D01*
X114150500Y-71997870D01*
X114150500Y-58900000D01*
X149819464Y-58900000D01*
X149839564Y-59116918D01*
X149839564Y-59116920D01*
X149839565Y-59116923D01*
X149899183Y-59326459D01*
X149996288Y-59521472D01*
X150127573Y-59695322D01*
X150288568Y-59842088D01*
X150288575Y-59842092D01*
X150288576Y-59842093D01*
X150473786Y-59956770D01*
X150473792Y-59956773D01*
X150496664Y-59965633D01*
X150676931Y-60035470D01*
X150891074Y-60075500D01*
X150891076Y-60075500D01*
X151108924Y-60075500D01*
X151108926Y-60075500D01*
X151323069Y-60035470D01*
X151526210Y-59956772D01*
X151711432Y-59842088D01*
X151872427Y-59695322D01*
X151901047Y-59657422D01*
X151957153Y-59615787D01*
X152026865Y-59611094D01*
X152088048Y-59644836D01*
X152098946Y-59657414D01*
X152127573Y-59695322D01*
X152288568Y-59842088D01*
X152288575Y-59842092D01*
X152288576Y-59842093D01*
X152473786Y-59956770D01*
X152473792Y-59956773D01*
X152496664Y-59965633D01*
X152676931Y-60035470D01*
X152891074Y-60075500D01*
X152891076Y-60075500D01*
X153108924Y-60075500D01*
X153108926Y-60075500D01*
X153323069Y-60035470D01*
X153526210Y-59956772D01*
X153711432Y-59842088D01*
X153872427Y-59695322D01*
X153901047Y-59657422D01*
X153957153Y-59615787D01*
X154026865Y-59611094D01*
X154088048Y-59644836D01*
X154098946Y-59657414D01*
X154127573Y-59695322D01*
X154288568Y-59842088D01*
X154288575Y-59842092D01*
X154288576Y-59842093D01*
X154473786Y-59956770D01*
X154473792Y-59956773D01*
X154496664Y-59965633D01*
X154676931Y-60035470D01*
X154891074Y-60075500D01*
X154891076Y-60075500D01*
X155108924Y-60075500D01*
X155108926Y-60075500D01*
X155323069Y-60035470D01*
X155526210Y-59956772D01*
X155711432Y-59842088D01*
X155872427Y-59695322D01*
X155952006Y-59589940D01*
X155969443Y-59577001D01*
X156600000Y-58946445D01*
X156600000Y-58952661D01*
X156627259Y-59054394D01*
X156679920Y-59145606D01*
X156754394Y-59220080D01*
X156845606Y-59272741D01*
X156947339Y-59300000D01*
X156953553Y-59300000D01*
X156364833Y-59888719D01*
X156364833Y-59888720D01*
X156474010Y-59956321D01*
X156474014Y-59956323D01*
X156677060Y-60034983D01*
X156677070Y-60034986D01*
X156891122Y-60075000D01*
X157108878Y-60075000D01*
X157322929Y-60034986D01*
X157322939Y-60034983D01*
X157525976Y-59956326D01*
X157525989Y-59956320D01*
X157635165Y-59888719D01*
X157046448Y-59300000D01*
X157052661Y-59300000D01*
X157154394Y-59272741D01*
X157245606Y-59220080D01*
X157320080Y-59145606D01*
X157372741Y-59054394D01*
X157400000Y-58952661D01*
X157400000Y-58946446D01*
X158014793Y-59561239D01*
X158047993Y-59589941D01*
X158127573Y-59695322D01*
X158288568Y-59842088D01*
X158288575Y-59842092D01*
X158288576Y-59842093D01*
X158473786Y-59956770D01*
X158473792Y-59956773D01*
X158496664Y-59965633D01*
X158676931Y-60035470D01*
X158891074Y-60075500D01*
X158891076Y-60075500D01*
X159108924Y-60075500D01*
X159108926Y-60075500D01*
X159323069Y-60035470D01*
X159526210Y-59956772D01*
X159711432Y-59842088D01*
X159872427Y-59695322D01*
X159901047Y-59657422D01*
X159957153Y-59615787D01*
X160026865Y-59611094D01*
X160088048Y-59644836D01*
X160098946Y-59657414D01*
X160127573Y-59695322D01*
X160288568Y-59842088D01*
X160288575Y-59842092D01*
X160288576Y-59842093D01*
X160473786Y-59956770D01*
X160473792Y-59956773D01*
X160496664Y-59965633D01*
X160676931Y-60035470D01*
X160891074Y-60075500D01*
X160891076Y-60075500D01*
X161108924Y-60075500D01*
X161108926Y-60075500D01*
X161323069Y-60035470D01*
X161526210Y-59956772D01*
X161711432Y-59842088D01*
X161872427Y-59695322D01*
X161901047Y-59657422D01*
X161957153Y-59615787D01*
X162026865Y-59611094D01*
X162088048Y-59644836D01*
X162098946Y-59657414D01*
X162127573Y-59695322D01*
X162288568Y-59842088D01*
X162288575Y-59842092D01*
X162288576Y-59842093D01*
X162473786Y-59956770D01*
X162473792Y-59956773D01*
X162496664Y-59965633D01*
X162676931Y-60035470D01*
X162891074Y-60075500D01*
X162891076Y-60075500D01*
X163108924Y-60075500D01*
X163108926Y-60075500D01*
X163323069Y-60035470D01*
X163526210Y-59956772D01*
X163711432Y-59842088D01*
X163872427Y-59695322D01*
X163901047Y-59657422D01*
X163957153Y-59615787D01*
X164026865Y-59611094D01*
X164088048Y-59644836D01*
X164098946Y-59657414D01*
X164127573Y-59695322D01*
X164288568Y-59842088D01*
X164288575Y-59842092D01*
X164288576Y-59842093D01*
X164473786Y-59956770D01*
X164473792Y-59956773D01*
X164496664Y-59965633D01*
X164676931Y-60035470D01*
X164891074Y-60075500D01*
X164891076Y-60075500D01*
X165108924Y-60075500D01*
X165108926Y-60075500D01*
X165323069Y-60035470D01*
X165526210Y-59956772D01*
X165711432Y-59842088D01*
X165872427Y-59695322D01*
X166003712Y-59521472D01*
X166100817Y-59326459D01*
X166160435Y-59116923D01*
X166180536Y-58900000D01*
X166160435Y-58683077D01*
X166100817Y-58473541D01*
X166003712Y-58278528D01*
X165872427Y-58104678D01*
X165711432Y-57957912D01*
X165711428Y-57957909D01*
X165711423Y-57957906D01*
X165526213Y-57843229D01*
X165526207Y-57843226D01*
X165441113Y-57810260D01*
X165323069Y-57764530D01*
X165108926Y-57724500D01*
X164891074Y-57724500D01*
X164676931Y-57764530D01*
X164633891Y-57781204D01*
X164473792Y-57843226D01*
X164473786Y-57843229D01*
X164288576Y-57957906D01*
X164288566Y-57957913D01*
X164127573Y-58104676D01*
X164098953Y-58142576D01*
X164042844Y-58184211D01*
X163973132Y-58188902D01*
X163911950Y-58155159D01*
X163901047Y-58142576D01*
X163872426Y-58104676D01*
X163711433Y-57957913D01*
X163711423Y-57957906D01*
X163526213Y-57843229D01*
X163526207Y-57843226D01*
X163441113Y-57810260D01*
X163323069Y-57764530D01*
X163108926Y-57724500D01*
X162891074Y-57724500D01*
X162676931Y-57764530D01*
X162633891Y-57781204D01*
X162473792Y-57843226D01*
X162473786Y-57843229D01*
X162288576Y-57957906D01*
X162288566Y-57957913D01*
X162127573Y-58104676D01*
X162098953Y-58142576D01*
X162042844Y-58184211D01*
X161973132Y-58188902D01*
X161911950Y-58155159D01*
X161901047Y-58142576D01*
X161872426Y-58104676D01*
X161711433Y-57957913D01*
X161711423Y-57957906D01*
X161526213Y-57843229D01*
X161526207Y-57843226D01*
X161441113Y-57810260D01*
X161323069Y-57764530D01*
X161108926Y-57724500D01*
X160891074Y-57724500D01*
X160676931Y-57764530D01*
X160633891Y-57781204D01*
X160473792Y-57843226D01*
X160473786Y-57843229D01*
X160288576Y-57957906D01*
X160288566Y-57957913D01*
X160127573Y-58104676D01*
X160098953Y-58142576D01*
X160042844Y-58184211D01*
X159973132Y-58188902D01*
X159911950Y-58155159D01*
X159901047Y-58142576D01*
X159872426Y-58104676D01*
X159711433Y-57957913D01*
X159711423Y-57957906D01*
X159526213Y-57843229D01*
X159526207Y-57843226D01*
X159441113Y-57810260D01*
X159323069Y-57764530D01*
X159108926Y-57724500D01*
X158891074Y-57724500D01*
X158676931Y-57764530D01*
X158633891Y-57781204D01*
X158473792Y-57843226D01*
X158473786Y-57843229D01*
X158288576Y-57957906D01*
X158288566Y-57957913D01*
X158127574Y-58104676D01*
X158047994Y-58210057D01*
X158030556Y-58222996D01*
X157400000Y-58853552D01*
X157400000Y-58847339D01*
X157372741Y-58745606D01*
X157320080Y-58654394D01*
X157245606Y-58579920D01*
X157154394Y-58527259D01*
X157052661Y-58500000D01*
X157046447Y-58500000D01*
X157635166Y-57911279D01*
X157525987Y-57843677D01*
X157525985Y-57843676D01*
X157322939Y-57765016D01*
X157322929Y-57765013D01*
X157108878Y-57725000D01*
X156891122Y-57725000D01*
X156677070Y-57765013D01*
X156677069Y-57765013D01*
X156474016Y-57843676D01*
X156474015Y-57843676D01*
X156364832Y-57911279D01*
X156953554Y-58500000D01*
X156947339Y-58500000D01*
X156845606Y-58527259D01*
X156754394Y-58579920D01*
X156679920Y-58654394D01*
X156627259Y-58745606D01*
X156600000Y-58847339D01*
X156600000Y-58853554D01*
X155985242Y-58238796D01*
X155952005Y-58210056D01*
X155872428Y-58104679D01*
X155872426Y-58104677D01*
X155711433Y-57957913D01*
X155711423Y-57957906D01*
X155526213Y-57843229D01*
X155526207Y-57843226D01*
X155441113Y-57810260D01*
X155323069Y-57764530D01*
X155108926Y-57724500D01*
X154891074Y-57724500D01*
X154676931Y-57764530D01*
X154633891Y-57781204D01*
X154473792Y-57843226D01*
X154473786Y-57843229D01*
X154288576Y-57957906D01*
X154288566Y-57957913D01*
X154127573Y-58104676D01*
X154098953Y-58142576D01*
X154042844Y-58184211D01*
X153973132Y-58188902D01*
X153911950Y-58155159D01*
X153901047Y-58142576D01*
X153872426Y-58104676D01*
X153711433Y-57957913D01*
X153711423Y-57957906D01*
X153526213Y-57843229D01*
X153526207Y-57843226D01*
X153441113Y-57810260D01*
X153323069Y-57764530D01*
X153108926Y-57724500D01*
X152891074Y-57724500D01*
X152676931Y-57764530D01*
X152633891Y-57781204D01*
X152473792Y-57843226D01*
X152473786Y-57843229D01*
X152288576Y-57957906D01*
X152288566Y-57957913D01*
X152127573Y-58104676D01*
X152098953Y-58142576D01*
X152042844Y-58184211D01*
X151973132Y-58188902D01*
X151911950Y-58155159D01*
X151901047Y-58142576D01*
X151872426Y-58104676D01*
X151711433Y-57957913D01*
X151711423Y-57957906D01*
X151526213Y-57843229D01*
X151526207Y-57843226D01*
X151441113Y-57810260D01*
X151323069Y-57764530D01*
X151108926Y-57724500D01*
X150891074Y-57724500D01*
X150676931Y-57764530D01*
X150633891Y-57781204D01*
X150473792Y-57843226D01*
X150473786Y-57843229D01*
X150288576Y-57957906D01*
X150288566Y-57957913D01*
X150127574Y-58104676D01*
X149996288Y-58278527D01*
X149899184Y-58473537D01*
X149839564Y-58683081D01*
X149819464Y-58899999D01*
X149819464Y-58900000D01*
X114150500Y-58900000D01*
X114150500Y-57930928D01*
X114125502Y-57805261D01*
X114125501Y-57805260D01*
X114125501Y-57805256D01*
X114076465Y-57686873D01*
X114076464Y-57686870D01*
X114005277Y-57580331D01*
X114005271Y-57580324D01*
X110847709Y-54422763D01*
X110814224Y-54361440D01*
X110815615Y-54302989D01*
X110816545Y-54299517D01*
X110835063Y-54230408D01*
X110855659Y-53995000D01*
X110835063Y-53759592D01*
X110773903Y-53531337D01*
X110756567Y-53494161D01*
X110746076Y-53425086D01*
X110774595Y-53361302D01*
X110833072Y-53323062D01*
X110902939Y-53322507D01*
X110956631Y-53354077D01*
X114062548Y-56459994D01*
X114096033Y-56521317D01*
X114098188Y-56534713D01*
X114100508Y-56556782D01*
X114114326Y-56688256D01*
X114114327Y-56688259D01*
X114172818Y-56868277D01*
X114172821Y-56868284D01*
X114267467Y-57032216D01*
X114321595Y-57092331D01*
X114394129Y-57172888D01*
X114547265Y-57284148D01*
X114547270Y-57284151D01*
X114720192Y-57361142D01*
X114720197Y-57361144D01*
X114905354Y-57400500D01*
X114905355Y-57400500D01*
X115094644Y-57400500D01*
X115094646Y-57400500D01*
X115279803Y-57361144D01*
X115452730Y-57284151D01*
X115605871Y-57172888D01*
X115732533Y-57032216D01*
X115810098Y-56897870D01*
X138149500Y-56897870D01*
X138149501Y-56897876D01*
X138155908Y-56957483D01*
X138206202Y-57092328D01*
X138206206Y-57092335D01*
X138292452Y-57207544D01*
X138292455Y-57207547D01*
X138407664Y-57293793D01*
X138407671Y-57293797D01*
X138542517Y-57344091D01*
X138542516Y-57344091D01*
X138549444Y-57344835D01*
X138602127Y-57350500D01*
X140397872Y-57350499D01*
X140457483Y-57344091D01*
X140592331Y-57293796D01*
X140707546Y-57207546D01*
X140793796Y-57092331D01*
X140843002Y-56960401D01*
X140884872Y-56904468D01*
X140950337Y-56880050D01*
X141018610Y-56894901D01*
X141046865Y-56916053D01*
X141168917Y-57038105D01*
X141362421Y-57173600D01*
X141576507Y-57273429D01*
X141576516Y-57273433D01*
X141790000Y-57330634D01*
X141790000Y-56433012D01*
X141847007Y-56465925D01*
X141974174Y-56500000D01*
X142105826Y-56500000D01*
X142232993Y-56465925D01*
X142290000Y-56433012D01*
X142290000Y-57330633D01*
X142503483Y-57273433D01*
X142503492Y-57273429D01*
X142717578Y-57173600D01*
X142911082Y-57038105D01*
X143078105Y-56871082D01*
X143208119Y-56685405D01*
X143262696Y-56641781D01*
X143332195Y-56634588D01*
X143394549Y-56666110D01*
X143411269Y-56685405D01*
X143541505Y-56871401D01*
X143708599Y-57038495D01*
X143805384Y-57106265D01*
X143902165Y-57174032D01*
X143902167Y-57174033D01*
X143902170Y-57174035D01*
X144116337Y-57273903D01*
X144116343Y-57273904D01*
X144116344Y-57273905D01*
X144171285Y-57288626D01*
X144344592Y-57335063D01*
X144521034Y-57350500D01*
X144579999Y-57355659D01*
X144580000Y-57355659D01*
X144580001Y-57355659D01*
X144638966Y-57350500D01*
X144815408Y-57335063D01*
X145043663Y-57273903D01*
X145257830Y-57174035D01*
X145451401Y-57038495D01*
X145618495Y-56871401D01*
X145754035Y-56677830D01*
X145853903Y-56463663D01*
X145915063Y-56235408D01*
X145935659Y-56000000D01*
X145932840Y-55967785D01*
X145923163Y-55857171D01*
X145915063Y-55764592D01*
X145853903Y-55536337D01*
X145754035Y-55322171D01*
X145748731Y-55314595D01*
X145618494Y-55128597D01*
X145451402Y-54961506D01*
X145451395Y-54961501D01*
X145257834Y-54825967D01*
X145257830Y-54825965D01*
X145257828Y-54825964D01*
X145043663Y-54726097D01*
X145043659Y-54726096D01*
X145043655Y-54726094D01*
X144815413Y-54664938D01*
X144815403Y-54664936D01*
X144580001Y-54644341D01*
X144579999Y-54644341D01*
X144344596Y-54664936D01*
X144344586Y-54664938D01*
X144116344Y-54726094D01*
X144116335Y-54726098D01*
X143902171Y-54825964D01*
X143902169Y-54825965D01*
X143708597Y-54961505D01*
X143541508Y-55128594D01*
X143411269Y-55314595D01*
X143356692Y-55358219D01*
X143287193Y-55365412D01*
X143224839Y-55333890D01*
X143208119Y-55314594D01*
X143078113Y-55128926D01*
X143078108Y-55128920D01*
X142911082Y-54961894D01*
X142717578Y-54826399D01*
X142503492Y-54726570D01*
X142503486Y-54726567D01*
X142290000Y-54669364D01*
X142290000Y-55566988D01*
X142232993Y-55534075D01*
X142105826Y-55500000D01*
X141974174Y-55500000D01*
X141847007Y-55534075D01*
X141790000Y-55566988D01*
X141790000Y-54669364D01*
X141789999Y-54669364D01*
X141576513Y-54726567D01*
X141576507Y-54726570D01*
X141362422Y-54826399D01*
X141362420Y-54826400D01*
X141168926Y-54961886D01*
X141046865Y-55083947D01*
X140985542Y-55117431D01*
X140915850Y-55112447D01*
X140859917Y-55070575D01*
X140843002Y-55039598D01*
X140793797Y-54907671D01*
X140793793Y-54907664D01*
X140707547Y-54792455D01*
X140707544Y-54792452D01*
X140592335Y-54706206D01*
X140592328Y-54706202D01*
X140457482Y-54655908D01*
X140457483Y-54655908D01*
X140397883Y-54649501D01*
X140397881Y-54649500D01*
X140397873Y-54649500D01*
X140397864Y-54649500D01*
X138602129Y-54649500D01*
X138602123Y-54649501D01*
X138542516Y-54655908D01*
X138407671Y-54706202D01*
X138407664Y-54706206D01*
X138292455Y-54792452D01*
X138292452Y-54792455D01*
X138206206Y-54907664D01*
X138206202Y-54907671D01*
X138155908Y-55042517D01*
X138149501Y-55102116D01*
X138149500Y-55102135D01*
X138149500Y-56897870D01*
X115810098Y-56897870D01*
X115827179Y-56868284D01*
X115885674Y-56688256D01*
X115905460Y-56500000D01*
X115885674Y-56311744D01*
X115827179Y-56131716D01*
X115732533Y-55967784D01*
X115605871Y-55827112D01*
X115578199Y-55807007D01*
X115452734Y-55715851D01*
X115452729Y-55715848D01*
X115279807Y-55638857D01*
X115279802Y-55638855D01*
X115134001Y-55607865D01*
X115094646Y-55599500D01*
X115094645Y-55599500D01*
X115093308Y-55599500D01*
X115092562Y-55599280D01*
X115088178Y-55598820D01*
X115088262Y-55598018D01*
X115026269Y-55579815D01*
X115005627Y-55563181D01*
X110883565Y-51441119D01*
X110850080Y-51379796D01*
X110847718Y-51364245D01*
X110846515Y-51350500D01*
X110835063Y-51219592D01*
X110773903Y-50991337D01*
X110674035Y-50777171D01*
X110576769Y-50638259D01*
X110538494Y-50583597D01*
X110371402Y-50416506D01*
X110371396Y-50416501D01*
X110185842Y-50286575D01*
X110142217Y-50231998D01*
X110135023Y-50162500D01*
X110166546Y-50100145D01*
X110185842Y-50083425D01*
X110250004Y-50038498D01*
X110371401Y-49953495D01*
X110538495Y-49786401D01*
X110622905Y-49665851D01*
X110656147Y-49618377D01*
X110710724Y-49574752D01*
X110757722Y-49565500D01*
X112694192Y-49565500D01*
X112761231Y-49585185D01*
X112781873Y-49601819D01*
X113615191Y-50435137D01*
X113648676Y-50496460D01*
X113650830Y-50509851D01*
X113664326Y-50638256D01*
X113664327Y-50638259D01*
X113722818Y-50818277D01*
X113722821Y-50818284D01*
X113817467Y-50982216D01*
X113944129Y-51122888D01*
X114097265Y-51234148D01*
X114097270Y-51234151D01*
X114270192Y-51311142D01*
X114270197Y-51311144D01*
X114455354Y-51350500D01*
X114455355Y-51350500D01*
X114644644Y-51350500D01*
X114644646Y-51350500D01*
X114829803Y-51311144D01*
X115002730Y-51234151D01*
X115155871Y-51122888D01*
X115282533Y-50982216D01*
X115377179Y-50818284D01*
X115435674Y-50638256D01*
X115455460Y-50450000D01*
X115435674Y-50261744D01*
X115377179Y-50081716D01*
X115282533Y-49917784D01*
X115264602Y-49897870D01*
X138134500Y-49897870D01*
X138134501Y-49897876D01*
X138140908Y-49957483D01*
X138191202Y-50092328D01*
X138191206Y-50092335D01*
X138277452Y-50207544D01*
X138277455Y-50207547D01*
X138392664Y-50293793D01*
X138392671Y-50293797D01*
X138527517Y-50344091D01*
X138527516Y-50344091D01*
X138534444Y-50344835D01*
X138587127Y-50350500D01*
X140382872Y-50350499D01*
X140442483Y-50344091D01*
X140577331Y-50293796D01*
X140692546Y-50207546D01*
X140778796Y-50092331D01*
X140827810Y-49960916D01*
X140869681Y-49904984D01*
X140935145Y-49880566D01*
X141003418Y-49895417D01*
X141031673Y-49916569D01*
X141153599Y-50038495D01*
X141240149Y-50099098D01*
X141347165Y-50174032D01*
X141347167Y-50174033D01*
X141347170Y-50174035D01*
X141561337Y-50273903D01*
X141789592Y-50335063D01*
X141966034Y-50350500D01*
X142024999Y-50355659D01*
X142025000Y-50355659D01*
X142025001Y-50355659D01*
X142083966Y-50350500D01*
X142260408Y-50335063D01*
X142488663Y-50273903D01*
X142702830Y-50174035D01*
X142896401Y-50038495D01*
X143063495Y-49871401D01*
X143199035Y-49677830D01*
X143298903Y-49463663D01*
X143360063Y-49235408D01*
X143380659Y-49000000D01*
X143360063Y-48764592D01*
X143298903Y-48536337D01*
X143199035Y-48322171D01*
X143140364Y-48238379D01*
X143063494Y-48128597D01*
X142896402Y-47961506D01*
X142896395Y-47961501D01*
X142702834Y-47825967D01*
X142702830Y-47825965D01*
X142702828Y-47825964D01*
X142488663Y-47726097D01*
X142488659Y-47726096D01*
X142488655Y-47726094D01*
X142260413Y-47664938D01*
X142260403Y-47664936D01*
X142025001Y-47644341D01*
X142024999Y-47644341D01*
X141789596Y-47664936D01*
X141789586Y-47664938D01*
X141561344Y-47726094D01*
X141561335Y-47726098D01*
X141347171Y-47825964D01*
X141347169Y-47825965D01*
X141153600Y-47961503D01*
X141031673Y-48083430D01*
X140970350Y-48116914D01*
X140900658Y-48111930D01*
X140844725Y-48070058D01*
X140827810Y-48039081D01*
X140778797Y-47907671D01*
X140778793Y-47907664D01*
X140692547Y-47792455D01*
X140692544Y-47792452D01*
X140577335Y-47706206D01*
X140577328Y-47706202D01*
X140442482Y-47655908D01*
X140442483Y-47655908D01*
X140382883Y-47649501D01*
X140382881Y-47649500D01*
X140382873Y-47649500D01*
X140382864Y-47649500D01*
X138587129Y-47649500D01*
X138587123Y-47649501D01*
X138527516Y-47655908D01*
X138392671Y-47706202D01*
X138392664Y-47706206D01*
X138277455Y-47792452D01*
X138277452Y-47792455D01*
X138191206Y-47907664D01*
X138191202Y-47907671D01*
X138140908Y-48042517D01*
X138134501Y-48102116D01*
X138134500Y-48102135D01*
X138134500Y-49897870D01*
X115264602Y-49897870D01*
X115155871Y-49777112D01*
X115155870Y-49777111D01*
X115002734Y-49665851D01*
X115002729Y-49665848D01*
X114829807Y-49588857D01*
X114829802Y-49588855D01*
X114684001Y-49557865D01*
X114644646Y-49549500D01*
X114644645Y-49549500D01*
X114620808Y-49549500D01*
X114553769Y-49529815D01*
X114533127Y-49513181D01*
X113429674Y-48409727D01*
X113429673Y-48409726D01*
X113348273Y-48355337D01*
X113323127Y-48338535D01*
X113204744Y-48289499D01*
X113204738Y-48289497D01*
X113079071Y-48264500D01*
X113079069Y-48264500D01*
X110757721Y-48264500D01*
X110690682Y-48244815D01*
X110656146Y-48211623D01*
X110538494Y-48043597D01*
X110371402Y-47876506D01*
X110371395Y-47876501D01*
X110177834Y-47740967D01*
X110177830Y-47740965D01*
X110145948Y-47726098D01*
X109963663Y-47641097D01*
X109963659Y-47641096D01*
X109963655Y-47641094D01*
X109735413Y-47579938D01*
X109735403Y-47579936D01*
X109500001Y-47559341D01*
X109499999Y-47559341D01*
X109264596Y-47579936D01*
X109264586Y-47579938D01*
X109036344Y-47641094D01*
X109036335Y-47641098D01*
X108822171Y-47740964D01*
X108822169Y-47740965D01*
X108628597Y-47876505D01*
X108461505Y-48043597D01*
X108325965Y-48237169D01*
X108325964Y-48237171D01*
X108226098Y-48451335D01*
X108226094Y-48451344D01*
X108164938Y-48679586D01*
X108164936Y-48679596D01*
X108144341Y-48914999D01*
X108144341Y-48915000D01*
X108164936Y-49150403D01*
X108164938Y-49150413D01*
X108226094Y-49378655D01*
X108226096Y-49378659D01*
X108226097Y-49378663D01*
X108288824Y-49513181D01*
X108325965Y-49592830D01*
X108325967Y-49592834D01*
X108434281Y-49747521D01*
X108461501Y-49786396D01*
X108461506Y-49786402D01*
X108628597Y-49953493D01*
X108628603Y-49953498D01*
X108814158Y-50083425D01*
X108857783Y-50138002D01*
X108864977Y-50207500D01*
X108833454Y-50269855D01*
X108814158Y-50286575D01*
X108628597Y-50416505D01*
X108461505Y-50583597D01*
X108325965Y-50777169D01*
X108325964Y-50777171D01*
X108226098Y-50991335D01*
X108226094Y-50991344D01*
X108164938Y-51219586D01*
X108164936Y-51219596D01*
X108144341Y-51454999D01*
X108144341Y-51455000D01*
X108164936Y-51690403D01*
X108164938Y-51690413D01*
X108226094Y-51918655D01*
X108226096Y-51918659D01*
X108226097Y-51918663D01*
X108296303Y-52069220D01*
X108325965Y-52132830D01*
X108325967Y-52132834D01*
X108461501Y-52326395D01*
X108461506Y-52326402D01*
X108628597Y-52493493D01*
X108628603Y-52493498D01*
X108814158Y-52623425D01*
X108857783Y-52678002D01*
X108864977Y-52747500D01*
X108833454Y-52809855D01*
X108814158Y-52826575D01*
X108628597Y-52956505D01*
X108461505Y-53123597D01*
X108325965Y-53317169D01*
X108325964Y-53317171D01*
X108226098Y-53531335D01*
X108226094Y-53531344D01*
X108164938Y-53759586D01*
X108164936Y-53759596D01*
X108144341Y-53994999D01*
X108144341Y-53995000D01*
X108164936Y-54230403D01*
X108164938Y-54230413D01*
X108226094Y-54458655D01*
X108226096Y-54458659D01*
X108226097Y-54458663D01*
X108318074Y-54655908D01*
X108325965Y-54672830D01*
X108325967Y-54672834D01*
X108461501Y-54866395D01*
X108461506Y-54866402D01*
X108628597Y-55033493D01*
X108628603Y-55033498D01*
X108814158Y-55163425D01*
X108857783Y-55218002D01*
X108864977Y-55287500D01*
X108833454Y-55349855D01*
X108814158Y-55366575D01*
X108628597Y-55496505D01*
X108461505Y-55663597D01*
X108325965Y-55857169D01*
X108325964Y-55857171D01*
X108226098Y-56071335D01*
X108226094Y-56071344D01*
X108164938Y-56299586D01*
X108164936Y-56299596D01*
X108144341Y-56534999D01*
X108144341Y-56535000D01*
X106300500Y-56535000D01*
X106300500Y-46579562D01*
X159359500Y-46579562D01*
X159371045Y-46622649D01*
X159379979Y-46655990D01*
X159379982Y-46655995D01*
X159419535Y-46724504D01*
X159419539Y-46724509D01*
X159419540Y-46724511D01*
X159475489Y-46780460D01*
X159475491Y-46780461D01*
X159475495Y-46780464D01*
X159544004Y-46820017D01*
X159544011Y-46820021D01*
X159620438Y-46840500D01*
X160344573Y-46840500D01*
X160411612Y-46860185D01*
X160457367Y-46912989D01*
X160467311Y-46982147D01*
X160438286Y-47045703D01*
X160414429Y-47066950D01*
X160365169Y-47100535D01*
X160325520Y-47127567D01*
X160133198Y-47306014D01*
X159969614Y-47511143D01*
X159838432Y-47738356D01*
X159742582Y-47982578D01*
X159742576Y-47982597D01*
X159684197Y-48238374D01*
X159684196Y-48238379D01*
X159664592Y-48499995D01*
X159664592Y-48500004D01*
X159684196Y-48761620D01*
X159684197Y-48761625D01*
X159742576Y-49017402D01*
X159742578Y-49017411D01*
X159742580Y-49017416D01*
X159838432Y-49261643D01*
X159969614Y-49488857D01*
X160052530Y-49592830D01*
X160133198Y-49693985D01*
X160232800Y-49786401D01*
X160325521Y-49872433D01*
X160542296Y-50020228D01*
X160542301Y-50020230D01*
X160542302Y-50020231D01*
X160542303Y-50020232D01*
X160667843Y-50080688D01*
X160778673Y-50134061D01*
X160778674Y-50134061D01*
X160778677Y-50134063D01*
X161029385Y-50211396D01*
X161288818Y-50250500D01*
X161551182Y-50250500D01*
X161810615Y-50211396D01*
X162061323Y-50134063D01*
X162131701Y-50100170D01*
X162200639Y-50088819D01*
X162264773Y-50116541D01*
X162303739Y-50174536D01*
X162309500Y-50211891D01*
X162309500Y-51868108D01*
X162289815Y-51935147D01*
X162237011Y-51980902D01*
X162167853Y-51990846D01*
X162131699Y-51979828D01*
X162061325Y-51945938D01*
X162061327Y-51945938D01*
X161810623Y-51868606D01*
X161810619Y-51868605D01*
X161810615Y-51868604D01*
X161685823Y-51849794D01*
X161551187Y-51829500D01*
X161551182Y-51829500D01*
X161288818Y-51829500D01*
X161288812Y-51829500D01*
X161127247Y-51853853D01*
X161029385Y-51868604D01*
X161029382Y-51868605D01*
X161029376Y-51868606D01*
X160778673Y-51945938D01*
X160542303Y-52059767D01*
X160542302Y-52059768D01*
X160325520Y-52207567D01*
X160133198Y-52386014D01*
X159969614Y-52591143D01*
X159838432Y-52818356D01*
X159742582Y-53062578D01*
X159742576Y-53062597D01*
X159684197Y-53318374D01*
X159684196Y-53318379D01*
X159664592Y-53579995D01*
X159664592Y-53580004D01*
X159684196Y-53841620D01*
X159684197Y-53841625D01*
X159742576Y-54097402D01*
X159742578Y-54097411D01*
X159742580Y-54097416D01*
X159838432Y-54341643D01*
X159969614Y-54568857D01*
X160046236Y-54664938D01*
X160133198Y-54773985D01*
X160277279Y-54907671D01*
X160325521Y-54952433D01*
X160542296Y-55100228D01*
X160542301Y-55100230D01*
X160542302Y-55100231D01*
X160542303Y-55100232D01*
X160667843Y-55160688D01*
X160778673Y-55214061D01*
X160778674Y-55214061D01*
X160778677Y-55214063D01*
X161029385Y-55291396D01*
X161288818Y-55330500D01*
X161551182Y-55330500D01*
X161810615Y-55291396D01*
X162061323Y-55214063D01*
X162297704Y-55100228D01*
X162514479Y-54952433D01*
X162706805Y-54773981D01*
X162870386Y-54568857D01*
X163001568Y-54341643D01*
X163097420Y-54097416D01*
X163155802Y-53841630D01*
X163155803Y-53841620D01*
X163175408Y-53580004D01*
X163175408Y-53579995D01*
X163155803Y-53318379D01*
X163155802Y-53318374D01*
X163155802Y-53318370D01*
X163097420Y-53062584D01*
X163017834Y-52859802D01*
X163011665Y-52790205D01*
X163044103Y-52728322D01*
X163104848Y-52693799D01*
X163133262Y-52690500D01*
X164786738Y-52690500D01*
X164853777Y-52710185D01*
X164899532Y-52762989D01*
X164909476Y-52832147D01*
X164902166Y-52859802D01*
X164822582Y-53062578D01*
X164822576Y-53062597D01*
X164764197Y-53318374D01*
X164764196Y-53318379D01*
X164744592Y-53579995D01*
X164744592Y-53580004D01*
X164764196Y-53841620D01*
X164764197Y-53841625D01*
X164822576Y-54097402D01*
X164822578Y-54097411D01*
X164822580Y-54097416D01*
X164918432Y-54341643D01*
X165049614Y-54568857D01*
X165126236Y-54664938D01*
X165213198Y-54773985D01*
X165357279Y-54907671D01*
X165405521Y-54952433D01*
X165622296Y-55100228D01*
X165622301Y-55100230D01*
X165622302Y-55100231D01*
X165622303Y-55100232D01*
X165747843Y-55160688D01*
X165858673Y-55214061D01*
X165858674Y-55214061D01*
X165858677Y-55214063D01*
X166109385Y-55291396D01*
X166368818Y-55330500D01*
X166631182Y-55330500D01*
X166890615Y-55291396D01*
X167141323Y-55214063D01*
X167377704Y-55100228D01*
X167594479Y-54952433D01*
X167786805Y-54773981D01*
X167950386Y-54568857D01*
X168081568Y-54341643D01*
X168177420Y-54097416D01*
X168235802Y-53841630D01*
X168235803Y-53841620D01*
X168255408Y-53580004D01*
X168255408Y-53579995D01*
X168235803Y-53318379D01*
X168235802Y-53318374D01*
X168235802Y-53318370D01*
X168177420Y-53062584D01*
X168081568Y-52818357D01*
X167950386Y-52591143D01*
X167786805Y-52386019D01*
X167786804Y-52386018D01*
X167786801Y-52386014D01*
X167594479Y-52207567D01*
X167377704Y-52059772D01*
X167377700Y-52059770D01*
X167377697Y-52059768D01*
X167377696Y-52059767D01*
X167141325Y-51945938D01*
X167141327Y-51945938D01*
X166890623Y-51868606D01*
X166890619Y-51868605D01*
X166890615Y-51868604D01*
X166765823Y-51849794D01*
X166631187Y-51829500D01*
X166631182Y-51829500D01*
X166368818Y-51829500D01*
X166368812Y-51829500D01*
X166207247Y-51853853D01*
X166109385Y-51868604D01*
X166109382Y-51868605D01*
X166109376Y-51868606D01*
X165858673Y-51945938D01*
X165788301Y-51979828D01*
X165719360Y-51991180D01*
X165655225Y-51963458D01*
X165616260Y-51905462D01*
X165610500Y-51868108D01*
X165610500Y-50211892D01*
X165630185Y-50144853D01*
X165682989Y-50099098D01*
X165752147Y-50089154D01*
X165788301Y-50100172D01*
X165811243Y-50111220D01*
X165858673Y-50134061D01*
X165858674Y-50134061D01*
X165858677Y-50134063D01*
X166109385Y-50211396D01*
X166368818Y-50250500D01*
X166631182Y-50250500D01*
X166890615Y-50211396D01*
X167141323Y-50134063D01*
X167377704Y-50020228D01*
X167594479Y-49872433D01*
X167786805Y-49693981D01*
X167950386Y-49488857D01*
X168081568Y-49261643D01*
X168177420Y-49017416D01*
X168235802Y-48761630D01*
X168235803Y-48761620D01*
X168255408Y-48500004D01*
X168255408Y-48499995D01*
X168235803Y-48238379D01*
X168235802Y-48238374D01*
X168235802Y-48238370D01*
X168177420Y-47982584D01*
X168081568Y-47738357D01*
X167950386Y-47511143D01*
X167786805Y-47306019D01*
X167786804Y-47306018D01*
X167786801Y-47306014D01*
X167594479Y-47127567D01*
X167505573Y-47066952D01*
X167461273Y-47012925D01*
X167453214Y-46943521D01*
X167483957Y-46880779D01*
X167543741Y-46844617D01*
X167575427Y-46840500D01*
X168299560Y-46840500D01*
X168299562Y-46840500D01*
X168375989Y-46820021D01*
X168444511Y-46780460D01*
X168500460Y-46724511D01*
X168540021Y-46655989D01*
X168560500Y-46579562D01*
X168560500Y-46500438D01*
X168540021Y-46424011D01*
X168516041Y-46382476D01*
X168500464Y-46355495D01*
X168500458Y-46355487D01*
X168444512Y-46299541D01*
X168444504Y-46299535D01*
X168375995Y-46259982D01*
X168375990Y-46259979D01*
X168350513Y-46253152D01*
X168299562Y-46239500D01*
X159620438Y-46239500D01*
X159582224Y-46249739D01*
X159544009Y-46259979D01*
X159544004Y-46259982D01*
X159475495Y-46299535D01*
X159475487Y-46299541D01*
X159419541Y-46355487D01*
X159419535Y-46355495D01*
X159379982Y-46424004D01*
X159379979Y-46424009D01*
X159366326Y-46474962D01*
X159359500Y-46500438D01*
X159359500Y-46579562D01*
X106300500Y-46579562D01*
X106300500Y-45424500D01*
X106320185Y-45357461D01*
X106372989Y-45311706D01*
X106424500Y-45300500D01*
X169575500Y-45300500D01*
X169642539Y-45320185D01*
G37*
%TD.AperFunction*%
%TD*%
M02*
