%TF.GenerationSoftware,KiCad,Pcbnew,8.0.0*%
%TF.CreationDate,2024-03-05T15:49:07-06:00*%
%TF.ProjectId,handheld_tracker,68616e64-6865-46c6-945f-747261636b65,rev?*%
%TF.SameCoordinates,Original*%
%TF.FileFunction,Legend,Top*%
%TF.FilePolarity,Positive*%
%FSLAX46Y46*%
G04 Gerber Fmt 4.6, Leading zero omitted, Abs format (unit mm)*
G04 Created by KiCad (PCBNEW 8.0.0) date 2024-03-05 15:49:07*
%MOMM*%
%LPD*%
G01*
G04 APERTURE LIST*
%ADD10C,0.200000*%
%ADD11C,0.150000*%
%ADD12C,0.120000*%
%ADD13C,0.152400*%
G04 APERTURE END LIST*
D10*
X110500000Y-68125000D02*
X139700000Y-68125000D01*
X139700000Y-99875000D01*
X110500000Y-99875000D01*
X110500000Y-68125000D01*
D11*
X136624819Y-56333333D02*
X137339104Y-56333333D01*
X137339104Y-56333333D02*
X137481961Y-56380952D01*
X137481961Y-56380952D02*
X137577200Y-56476190D01*
X137577200Y-56476190D02*
X137624819Y-56619047D01*
X137624819Y-56619047D02*
X137624819Y-56714285D01*
X136624819Y-55380952D02*
X136624819Y-55857142D01*
X136624819Y-55857142D02*
X137101009Y-55904761D01*
X137101009Y-55904761D02*
X137053390Y-55857142D01*
X137053390Y-55857142D02*
X137005771Y-55761904D01*
X137005771Y-55761904D02*
X137005771Y-55523809D01*
X137005771Y-55523809D02*
X137053390Y-55428571D01*
X137053390Y-55428571D02*
X137101009Y-55380952D01*
X137101009Y-55380952D02*
X137196247Y-55333333D01*
X137196247Y-55333333D02*
X137434342Y-55333333D01*
X137434342Y-55333333D02*
X137529580Y-55380952D01*
X137529580Y-55380952D02*
X137577200Y-55428571D01*
X137577200Y-55428571D02*
X137624819Y-55523809D01*
X137624819Y-55523809D02*
X137624819Y-55761904D01*
X137624819Y-55761904D02*
X137577200Y-55857142D01*
X137577200Y-55857142D02*
X137529580Y-55904761D01*
X109166666Y-60859819D02*
X109166666Y-61574104D01*
X109166666Y-61574104D02*
X109119047Y-61716961D01*
X109119047Y-61716961D02*
X109023809Y-61812200D01*
X109023809Y-61812200D02*
X108880952Y-61859819D01*
X108880952Y-61859819D02*
X108785714Y-61859819D01*
X110071428Y-61193152D02*
X110071428Y-61859819D01*
X109833333Y-60812200D02*
X109595238Y-61526485D01*
X109595238Y-61526485D02*
X110214285Y-61526485D01*
X129606667Y-124607200D02*
X129749524Y-124654819D01*
X129749524Y-124654819D02*
X129987619Y-124654819D01*
X129987619Y-124654819D02*
X130082857Y-124607200D01*
X130082857Y-124607200D02*
X130130476Y-124559580D01*
X130130476Y-124559580D02*
X130178095Y-124464342D01*
X130178095Y-124464342D02*
X130178095Y-124369104D01*
X130178095Y-124369104D02*
X130130476Y-124273866D01*
X130130476Y-124273866D02*
X130082857Y-124226247D01*
X130082857Y-124226247D02*
X129987619Y-124178628D01*
X129987619Y-124178628D02*
X129797143Y-124131009D01*
X129797143Y-124131009D02*
X129701905Y-124083390D01*
X129701905Y-124083390D02*
X129654286Y-124035771D01*
X129654286Y-124035771D02*
X129606667Y-123940533D01*
X129606667Y-123940533D02*
X129606667Y-123845295D01*
X129606667Y-123845295D02*
X129654286Y-123750057D01*
X129654286Y-123750057D02*
X129701905Y-123702438D01*
X129701905Y-123702438D02*
X129797143Y-123654819D01*
X129797143Y-123654819D02*
X130035238Y-123654819D01*
X130035238Y-123654819D02*
X130178095Y-123702438D01*
X130511429Y-123654819D02*
X130749524Y-124654819D01*
X130749524Y-124654819D02*
X130940000Y-123940533D01*
X130940000Y-123940533D02*
X131130476Y-124654819D01*
X131130476Y-124654819D02*
X131368572Y-123654819D01*
X131892381Y-124083390D02*
X131797143Y-124035771D01*
X131797143Y-124035771D02*
X131749524Y-123988152D01*
X131749524Y-123988152D02*
X131701905Y-123892914D01*
X131701905Y-123892914D02*
X131701905Y-123845295D01*
X131701905Y-123845295D02*
X131749524Y-123750057D01*
X131749524Y-123750057D02*
X131797143Y-123702438D01*
X131797143Y-123702438D02*
X131892381Y-123654819D01*
X131892381Y-123654819D02*
X132082857Y-123654819D01*
X132082857Y-123654819D02*
X132178095Y-123702438D01*
X132178095Y-123702438D02*
X132225714Y-123750057D01*
X132225714Y-123750057D02*
X132273333Y-123845295D01*
X132273333Y-123845295D02*
X132273333Y-123892914D01*
X132273333Y-123892914D02*
X132225714Y-123988152D01*
X132225714Y-123988152D02*
X132178095Y-124035771D01*
X132178095Y-124035771D02*
X132082857Y-124083390D01*
X132082857Y-124083390D02*
X131892381Y-124083390D01*
X131892381Y-124083390D02*
X131797143Y-124131009D01*
X131797143Y-124131009D02*
X131749524Y-124178628D01*
X131749524Y-124178628D02*
X131701905Y-124273866D01*
X131701905Y-124273866D02*
X131701905Y-124464342D01*
X131701905Y-124464342D02*
X131749524Y-124559580D01*
X131749524Y-124559580D02*
X131797143Y-124607200D01*
X131797143Y-124607200D02*
X131892381Y-124654819D01*
X131892381Y-124654819D02*
X132082857Y-124654819D01*
X132082857Y-124654819D02*
X132178095Y-124607200D01*
X132178095Y-124607200D02*
X132225714Y-124559580D01*
X132225714Y-124559580D02*
X132273333Y-124464342D01*
X132273333Y-124464342D02*
X132273333Y-124273866D01*
X132273333Y-124273866D02*
X132225714Y-124178628D01*
X132225714Y-124178628D02*
X132178095Y-124131009D01*
X132178095Y-124131009D02*
X132082857Y-124083390D01*
X144558333Y-64489580D02*
X144510714Y-64537200D01*
X144510714Y-64537200D02*
X144367857Y-64584819D01*
X144367857Y-64584819D02*
X144272619Y-64584819D01*
X144272619Y-64584819D02*
X144129762Y-64537200D01*
X144129762Y-64537200D02*
X144034524Y-64441961D01*
X144034524Y-64441961D02*
X143986905Y-64346723D01*
X143986905Y-64346723D02*
X143939286Y-64156247D01*
X143939286Y-64156247D02*
X143939286Y-64013390D01*
X143939286Y-64013390D02*
X143986905Y-63822914D01*
X143986905Y-63822914D02*
X144034524Y-63727676D01*
X144034524Y-63727676D02*
X144129762Y-63632438D01*
X144129762Y-63632438D02*
X144272619Y-63584819D01*
X144272619Y-63584819D02*
X144367857Y-63584819D01*
X144367857Y-63584819D02*
X144510714Y-63632438D01*
X144510714Y-63632438D02*
X144558333Y-63680057D01*
X145415476Y-63918152D02*
X145415476Y-64584819D01*
X145177381Y-63537200D02*
X144939286Y-64251485D01*
X144939286Y-64251485D02*
X145558333Y-64251485D01*
X122888095Y-65104819D02*
X122888095Y-65914342D01*
X122888095Y-65914342D02*
X122935714Y-66009580D01*
X122935714Y-66009580D02*
X122983333Y-66057200D01*
X122983333Y-66057200D02*
X123078571Y-66104819D01*
X123078571Y-66104819D02*
X123269047Y-66104819D01*
X123269047Y-66104819D02*
X123364285Y-66057200D01*
X123364285Y-66057200D02*
X123411904Y-66009580D01*
X123411904Y-66009580D02*
X123459523Y-65914342D01*
X123459523Y-65914342D02*
X123459523Y-65104819D01*
X124459523Y-66104819D02*
X123888095Y-66104819D01*
X124173809Y-66104819D02*
X124173809Y-65104819D01*
X124173809Y-65104819D02*
X124078571Y-65247676D01*
X124078571Y-65247676D02*
X123983333Y-65342914D01*
X123983333Y-65342914D02*
X123888095Y-65390533D01*
X167833334Y-97859579D02*
X167785715Y-97907199D01*
X167785715Y-97907199D02*
X167642858Y-97954818D01*
X167642858Y-97954818D02*
X167547620Y-97954818D01*
X167547620Y-97954818D02*
X167404763Y-97907199D01*
X167404763Y-97907199D02*
X167309525Y-97811960D01*
X167309525Y-97811960D02*
X167261906Y-97716722D01*
X167261906Y-97716722D02*
X167214287Y-97526246D01*
X167214287Y-97526246D02*
X167214287Y-97383389D01*
X167214287Y-97383389D02*
X167261906Y-97192913D01*
X167261906Y-97192913D02*
X167309525Y-97097675D01*
X167309525Y-97097675D02*
X167404763Y-97002437D01*
X167404763Y-97002437D02*
X167547620Y-96954818D01*
X167547620Y-96954818D02*
X167642858Y-96954818D01*
X167642858Y-96954818D02*
X167785715Y-97002437D01*
X167785715Y-97002437D02*
X167833334Y-97050056D01*
X168214287Y-97050056D02*
X168261906Y-97002437D01*
X168261906Y-97002437D02*
X168357144Y-96954818D01*
X168357144Y-96954818D02*
X168595239Y-96954818D01*
X168595239Y-96954818D02*
X168690477Y-97002437D01*
X168690477Y-97002437D02*
X168738096Y-97050056D01*
X168738096Y-97050056D02*
X168785715Y-97145294D01*
X168785715Y-97145294D02*
X168785715Y-97240532D01*
X168785715Y-97240532D02*
X168738096Y-97383389D01*
X168738096Y-97383389D02*
X168166668Y-97954818D01*
X168166668Y-97954818D02*
X168785715Y-97954818D01*
X140404819Y-93261904D02*
X141214342Y-93261904D01*
X141214342Y-93261904D02*
X141309580Y-93214285D01*
X141309580Y-93214285D02*
X141357200Y-93166666D01*
X141357200Y-93166666D02*
X141404819Y-93071428D01*
X141404819Y-93071428D02*
X141404819Y-92880952D01*
X141404819Y-92880952D02*
X141357200Y-92785714D01*
X141357200Y-92785714D02*
X141309580Y-92738095D01*
X141309580Y-92738095D02*
X141214342Y-92690476D01*
X141214342Y-92690476D02*
X140404819Y-92690476D01*
X140404819Y-92309523D02*
X140404819Y-91690476D01*
X140404819Y-91690476D02*
X140785771Y-92023809D01*
X140785771Y-92023809D02*
X140785771Y-91880952D01*
X140785771Y-91880952D02*
X140833390Y-91785714D01*
X140833390Y-91785714D02*
X140881009Y-91738095D01*
X140881009Y-91738095D02*
X140976247Y-91690476D01*
X140976247Y-91690476D02*
X141214342Y-91690476D01*
X141214342Y-91690476D02*
X141309580Y-91738095D01*
X141309580Y-91738095D02*
X141357200Y-91785714D01*
X141357200Y-91785714D02*
X141404819Y-91880952D01*
X141404819Y-91880952D02*
X141404819Y-92166666D01*
X141404819Y-92166666D02*
X141357200Y-92261904D01*
X141357200Y-92261904D02*
X141309580Y-92309523D01*
X116646667Y-103607200D02*
X116789524Y-103654819D01*
X116789524Y-103654819D02*
X117027619Y-103654819D01*
X117027619Y-103654819D02*
X117122857Y-103607200D01*
X117122857Y-103607200D02*
X117170476Y-103559580D01*
X117170476Y-103559580D02*
X117218095Y-103464342D01*
X117218095Y-103464342D02*
X117218095Y-103369104D01*
X117218095Y-103369104D02*
X117170476Y-103273866D01*
X117170476Y-103273866D02*
X117122857Y-103226247D01*
X117122857Y-103226247D02*
X117027619Y-103178628D01*
X117027619Y-103178628D02*
X116837143Y-103131009D01*
X116837143Y-103131009D02*
X116741905Y-103083390D01*
X116741905Y-103083390D02*
X116694286Y-103035771D01*
X116694286Y-103035771D02*
X116646667Y-102940533D01*
X116646667Y-102940533D02*
X116646667Y-102845295D01*
X116646667Y-102845295D02*
X116694286Y-102750057D01*
X116694286Y-102750057D02*
X116741905Y-102702438D01*
X116741905Y-102702438D02*
X116837143Y-102654819D01*
X116837143Y-102654819D02*
X117075238Y-102654819D01*
X117075238Y-102654819D02*
X117218095Y-102702438D01*
X117551429Y-102654819D02*
X117789524Y-103654819D01*
X117789524Y-103654819D02*
X117980000Y-102940533D01*
X117980000Y-102940533D02*
X118170476Y-103654819D01*
X118170476Y-103654819D02*
X118408572Y-102654819D01*
X119313333Y-103654819D02*
X118741905Y-103654819D01*
X119027619Y-103654819D02*
X119027619Y-102654819D01*
X119027619Y-102654819D02*
X118932381Y-102797676D01*
X118932381Y-102797676D02*
X118837143Y-102892914D01*
X118837143Y-102892914D02*
X118741905Y-102940533D01*
X166629580Y-88616666D02*
X166677200Y-88664285D01*
X166677200Y-88664285D02*
X166724819Y-88807142D01*
X166724819Y-88807142D02*
X166724819Y-88902380D01*
X166724819Y-88902380D02*
X166677200Y-89045237D01*
X166677200Y-89045237D02*
X166581961Y-89140475D01*
X166581961Y-89140475D02*
X166486723Y-89188094D01*
X166486723Y-89188094D02*
X166296247Y-89235713D01*
X166296247Y-89235713D02*
X166153390Y-89235713D01*
X166153390Y-89235713D02*
X165962914Y-89188094D01*
X165962914Y-89188094D02*
X165867676Y-89140475D01*
X165867676Y-89140475D02*
X165772438Y-89045237D01*
X165772438Y-89045237D02*
X165724819Y-88902380D01*
X165724819Y-88902380D02*
X165724819Y-88807142D01*
X165724819Y-88807142D02*
X165772438Y-88664285D01*
X165772438Y-88664285D02*
X165820057Y-88616666D01*
X165724819Y-88283332D02*
X165724819Y-87664285D01*
X165724819Y-87664285D02*
X166105771Y-87997618D01*
X166105771Y-87997618D02*
X166105771Y-87854761D01*
X166105771Y-87854761D02*
X166153390Y-87759523D01*
X166153390Y-87759523D02*
X166201009Y-87711904D01*
X166201009Y-87711904D02*
X166296247Y-87664285D01*
X166296247Y-87664285D02*
X166534342Y-87664285D01*
X166534342Y-87664285D02*
X166629580Y-87711904D01*
X166629580Y-87711904D02*
X166677200Y-87759523D01*
X166677200Y-87759523D02*
X166724819Y-87854761D01*
X166724819Y-87854761D02*
X166724819Y-88140475D01*
X166724819Y-88140475D02*
X166677200Y-88235713D01*
X166677200Y-88235713D02*
X166629580Y-88283332D01*
X158929104Y-52206666D02*
X158929104Y-51730476D01*
X159214819Y-52301904D02*
X158214819Y-51968571D01*
X158214819Y-51968571D02*
X159214819Y-51635238D01*
X158691009Y-51301904D02*
X158691009Y-50968571D01*
X159214819Y-50825714D02*
X159214819Y-51301904D01*
X159214819Y-51301904D02*
X158214819Y-51301904D01*
X158214819Y-51301904D02*
X158214819Y-50825714D01*
X159214819Y-49873333D02*
X159214819Y-50444761D01*
X159214819Y-50159047D02*
X158214819Y-50159047D01*
X158214819Y-50159047D02*
X158357676Y-50254285D01*
X158357676Y-50254285D02*
X158452914Y-50349523D01*
X158452914Y-50349523D02*
X158500533Y-50444761D01*
X114860952Y-135107200D02*
X115003809Y-135154819D01*
X115003809Y-135154819D02*
X115241904Y-135154819D01*
X115241904Y-135154819D02*
X115337142Y-135107200D01*
X115337142Y-135107200D02*
X115384761Y-135059580D01*
X115384761Y-135059580D02*
X115432380Y-134964342D01*
X115432380Y-134964342D02*
X115432380Y-134869104D01*
X115432380Y-134869104D02*
X115384761Y-134773866D01*
X115384761Y-134773866D02*
X115337142Y-134726247D01*
X115337142Y-134726247D02*
X115241904Y-134678628D01*
X115241904Y-134678628D02*
X115051428Y-134631009D01*
X115051428Y-134631009D02*
X114956190Y-134583390D01*
X114956190Y-134583390D02*
X114908571Y-134535771D01*
X114908571Y-134535771D02*
X114860952Y-134440533D01*
X114860952Y-134440533D02*
X114860952Y-134345295D01*
X114860952Y-134345295D02*
X114908571Y-134250057D01*
X114908571Y-134250057D02*
X114956190Y-134202438D01*
X114956190Y-134202438D02*
X115051428Y-134154819D01*
X115051428Y-134154819D02*
X115289523Y-134154819D01*
X115289523Y-134154819D02*
X115432380Y-134202438D01*
X115765714Y-134154819D02*
X116003809Y-135154819D01*
X116003809Y-135154819D02*
X116194285Y-134440533D01*
X116194285Y-134440533D02*
X116384761Y-135154819D01*
X116384761Y-135154819D02*
X116622857Y-134154819D01*
X116765714Y-135250057D02*
X117527618Y-135250057D01*
X117765714Y-135154819D02*
X117765714Y-134154819D01*
X117765714Y-134154819D02*
X118003809Y-134154819D01*
X118003809Y-134154819D02*
X118146666Y-134202438D01*
X118146666Y-134202438D02*
X118241904Y-134297676D01*
X118241904Y-134297676D02*
X118289523Y-134392914D01*
X118289523Y-134392914D02*
X118337142Y-134583390D01*
X118337142Y-134583390D02*
X118337142Y-134726247D01*
X118337142Y-134726247D02*
X118289523Y-134916723D01*
X118289523Y-134916723D02*
X118241904Y-135011961D01*
X118241904Y-135011961D02*
X118146666Y-135107200D01*
X118146666Y-135107200D02*
X118003809Y-135154819D01*
X118003809Y-135154819D02*
X117765714Y-135154819D01*
X118956190Y-134154819D02*
X119146666Y-134154819D01*
X119146666Y-134154819D02*
X119241904Y-134202438D01*
X119241904Y-134202438D02*
X119337142Y-134297676D01*
X119337142Y-134297676D02*
X119384761Y-134488152D01*
X119384761Y-134488152D02*
X119384761Y-134821485D01*
X119384761Y-134821485D02*
X119337142Y-135011961D01*
X119337142Y-135011961D02*
X119241904Y-135107200D01*
X119241904Y-135107200D02*
X119146666Y-135154819D01*
X119146666Y-135154819D02*
X118956190Y-135154819D01*
X118956190Y-135154819D02*
X118860952Y-135107200D01*
X118860952Y-135107200D02*
X118765714Y-135011961D01*
X118765714Y-135011961D02*
X118718095Y-134821485D01*
X118718095Y-134821485D02*
X118718095Y-134488152D01*
X118718095Y-134488152D02*
X118765714Y-134297676D01*
X118765714Y-134297676D02*
X118860952Y-134202438D01*
X118860952Y-134202438D02*
X118956190Y-134154819D01*
X119670476Y-134154819D02*
X120241904Y-134154819D01*
X119956190Y-135154819D02*
X119956190Y-134154819D01*
X121099047Y-135154819D02*
X120527619Y-135154819D01*
X120813333Y-135154819D02*
X120813333Y-134154819D01*
X120813333Y-134154819D02*
X120718095Y-134297676D01*
X120718095Y-134297676D02*
X120622857Y-134392914D01*
X120622857Y-134392914D02*
X120527619Y-134440533D01*
X142646667Y-103607200D02*
X142789524Y-103654819D01*
X142789524Y-103654819D02*
X143027619Y-103654819D01*
X143027619Y-103654819D02*
X143122857Y-103607200D01*
X143122857Y-103607200D02*
X143170476Y-103559580D01*
X143170476Y-103559580D02*
X143218095Y-103464342D01*
X143218095Y-103464342D02*
X143218095Y-103369104D01*
X143218095Y-103369104D02*
X143170476Y-103273866D01*
X143170476Y-103273866D02*
X143122857Y-103226247D01*
X143122857Y-103226247D02*
X143027619Y-103178628D01*
X143027619Y-103178628D02*
X142837143Y-103131009D01*
X142837143Y-103131009D02*
X142741905Y-103083390D01*
X142741905Y-103083390D02*
X142694286Y-103035771D01*
X142694286Y-103035771D02*
X142646667Y-102940533D01*
X142646667Y-102940533D02*
X142646667Y-102845295D01*
X142646667Y-102845295D02*
X142694286Y-102750057D01*
X142694286Y-102750057D02*
X142741905Y-102702438D01*
X142741905Y-102702438D02*
X142837143Y-102654819D01*
X142837143Y-102654819D02*
X143075238Y-102654819D01*
X143075238Y-102654819D02*
X143218095Y-102702438D01*
X143551429Y-102654819D02*
X143789524Y-103654819D01*
X143789524Y-103654819D02*
X143980000Y-102940533D01*
X143980000Y-102940533D02*
X144170476Y-103654819D01*
X144170476Y-103654819D02*
X144408572Y-102654819D01*
X144694286Y-102654819D02*
X145313333Y-102654819D01*
X145313333Y-102654819D02*
X144980000Y-103035771D01*
X144980000Y-103035771D02*
X145122857Y-103035771D01*
X145122857Y-103035771D02*
X145218095Y-103083390D01*
X145218095Y-103083390D02*
X145265714Y-103131009D01*
X145265714Y-103131009D02*
X145313333Y-103226247D01*
X145313333Y-103226247D02*
X145313333Y-103464342D01*
X145313333Y-103464342D02*
X145265714Y-103559580D01*
X145265714Y-103559580D02*
X145218095Y-103607200D01*
X145218095Y-103607200D02*
X145122857Y-103654819D01*
X145122857Y-103654819D02*
X144837143Y-103654819D01*
X144837143Y-103654819D02*
X144741905Y-103607200D01*
X144741905Y-103607200D02*
X144694286Y-103559580D01*
X146454819Y-68211904D02*
X147264342Y-68211904D01*
X147264342Y-68211904D02*
X147359580Y-68164285D01*
X147359580Y-68164285D02*
X147407200Y-68116666D01*
X147407200Y-68116666D02*
X147454819Y-68021428D01*
X147454819Y-68021428D02*
X147454819Y-67830952D01*
X147454819Y-67830952D02*
X147407200Y-67735714D01*
X147407200Y-67735714D02*
X147359580Y-67688095D01*
X147359580Y-67688095D02*
X147264342Y-67640476D01*
X147264342Y-67640476D02*
X146454819Y-67640476D01*
X146788152Y-66735714D02*
X147454819Y-66735714D01*
X146407200Y-66973809D02*
X147121485Y-67211904D01*
X147121485Y-67211904D02*
X147121485Y-66592857D01*
X139956190Y-135107200D02*
X140099047Y-135154819D01*
X140099047Y-135154819D02*
X140337142Y-135154819D01*
X140337142Y-135154819D02*
X140432380Y-135107200D01*
X140432380Y-135107200D02*
X140479999Y-135059580D01*
X140479999Y-135059580D02*
X140527618Y-134964342D01*
X140527618Y-134964342D02*
X140527618Y-134869104D01*
X140527618Y-134869104D02*
X140479999Y-134773866D01*
X140479999Y-134773866D02*
X140432380Y-134726247D01*
X140432380Y-134726247D02*
X140337142Y-134678628D01*
X140337142Y-134678628D02*
X140146666Y-134631009D01*
X140146666Y-134631009D02*
X140051428Y-134583390D01*
X140051428Y-134583390D02*
X140003809Y-134535771D01*
X140003809Y-134535771D02*
X139956190Y-134440533D01*
X139956190Y-134440533D02*
X139956190Y-134345295D01*
X139956190Y-134345295D02*
X140003809Y-134250057D01*
X140003809Y-134250057D02*
X140051428Y-134202438D01*
X140051428Y-134202438D02*
X140146666Y-134154819D01*
X140146666Y-134154819D02*
X140384761Y-134154819D01*
X140384761Y-134154819D02*
X140527618Y-134202438D01*
X140860952Y-134154819D02*
X141099047Y-135154819D01*
X141099047Y-135154819D02*
X141289523Y-134440533D01*
X141289523Y-134440533D02*
X141479999Y-135154819D01*
X141479999Y-135154819D02*
X141718095Y-134154819D01*
X141860952Y-135250057D02*
X142622856Y-135250057D01*
X142860952Y-134631009D02*
X143194285Y-134631009D01*
X143337142Y-135154819D02*
X142860952Y-135154819D01*
X142860952Y-135154819D02*
X142860952Y-134154819D01*
X142860952Y-134154819D02*
X143337142Y-134154819D01*
X143765714Y-135154819D02*
X143765714Y-134154819D01*
X143765714Y-134154819D02*
X144337142Y-135154819D01*
X144337142Y-135154819D02*
X144337142Y-134154819D01*
X144670476Y-134154819D02*
X145241904Y-134154819D01*
X144956190Y-135154819D02*
X144956190Y-134154819D01*
X145575238Y-134631009D02*
X145908571Y-134631009D01*
X146051428Y-135154819D02*
X145575238Y-135154819D01*
X145575238Y-135154819D02*
X145575238Y-134154819D01*
X145575238Y-134154819D02*
X146051428Y-134154819D01*
X147051428Y-135154819D02*
X146718095Y-134678628D01*
X146480000Y-135154819D02*
X146480000Y-134154819D01*
X146480000Y-134154819D02*
X146860952Y-134154819D01*
X146860952Y-134154819D02*
X146956190Y-134202438D01*
X146956190Y-134202438D02*
X147003809Y-134250057D01*
X147003809Y-134250057D02*
X147051428Y-134345295D01*
X147051428Y-134345295D02*
X147051428Y-134488152D01*
X147051428Y-134488152D02*
X147003809Y-134583390D01*
X147003809Y-134583390D02*
X146956190Y-134631009D01*
X146956190Y-134631009D02*
X146860952Y-134678628D01*
X146860952Y-134678628D02*
X146480000Y-134678628D01*
X148003809Y-135154819D02*
X147432381Y-135154819D01*
X147718095Y-135154819D02*
X147718095Y-134154819D01*
X147718095Y-134154819D02*
X147622857Y-134297676D01*
X147622857Y-134297676D02*
X147527619Y-134392914D01*
X147527619Y-134392914D02*
X147432381Y-134440533D01*
X167166666Y-76349819D02*
X167166666Y-77064104D01*
X167166666Y-77064104D02*
X167119047Y-77206961D01*
X167119047Y-77206961D02*
X167023809Y-77302200D01*
X167023809Y-77302200D02*
X166880952Y-77349819D01*
X166880952Y-77349819D02*
X166785714Y-77349819D01*
X167595238Y-76445057D02*
X167642857Y-76397438D01*
X167642857Y-76397438D02*
X167738095Y-76349819D01*
X167738095Y-76349819D02*
X167976190Y-76349819D01*
X167976190Y-76349819D02*
X168071428Y-76397438D01*
X168071428Y-76397438D02*
X168119047Y-76445057D01*
X168119047Y-76445057D02*
X168166666Y-76540295D01*
X168166666Y-76540295D02*
X168166666Y-76635533D01*
X168166666Y-76635533D02*
X168119047Y-76778390D01*
X168119047Y-76778390D02*
X167547619Y-77349819D01*
X167547619Y-77349819D02*
X168166666Y-77349819D01*
X162833333Y-77304819D02*
X162500000Y-76828628D01*
X162261905Y-77304819D02*
X162261905Y-76304819D01*
X162261905Y-76304819D02*
X162642857Y-76304819D01*
X162642857Y-76304819D02*
X162738095Y-76352438D01*
X162738095Y-76352438D02*
X162785714Y-76400057D01*
X162785714Y-76400057D02*
X162833333Y-76495295D01*
X162833333Y-76495295D02*
X162833333Y-76638152D01*
X162833333Y-76638152D02*
X162785714Y-76733390D01*
X162785714Y-76733390D02*
X162738095Y-76781009D01*
X162738095Y-76781009D02*
X162642857Y-76828628D01*
X162642857Y-76828628D02*
X162261905Y-76828628D01*
X163214286Y-76400057D02*
X163261905Y-76352438D01*
X163261905Y-76352438D02*
X163357143Y-76304819D01*
X163357143Y-76304819D02*
X163595238Y-76304819D01*
X163595238Y-76304819D02*
X163690476Y-76352438D01*
X163690476Y-76352438D02*
X163738095Y-76400057D01*
X163738095Y-76400057D02*
X163785714Y-76495295D01*
X163785714Y-76495295D02*
X163785714Y-76590533D01*
X163785714Y-76590533D02*
X163738095Y-76733390D01*
X163738095Y-76733390D02*
X163166667Y-77304819D01*
X163166667Y-77304819D02*
X163785714Y-77304819D01*
X153166667Y-124607200D02*
X153309524Y-124654819D01*
X153309524Y-124654819D02*
X153547619Y-124654819D01*
X153547619Y-124654819D02*
X153642857Y-124607200D01*
X153642857Y-124607200D02*
X153690476Y-124559580D01*
X153690476Y-124559580D02*
X153738095Y-124464342D01*
X153738095Y-124464342D02*
X153738095Y-124369104D01*
X153738095Y-124369104D02*
X153690476Y-124273866D01*
X153690476Y-124273866D02*
X153642857Y-124226247D01*
X153642857Y-124226247D02*
X153547619Y-124178628D01*
X153547619Y-124178628D02*
X153357143Y-124131009D01*
X153357143Y-124131009D02*
X153261905Y-124083390D01*
X153261905Y-124083390D02*
X153214286Y-124035771D01*
X153214286Y-124035771D02*
X153166667Y-123940533D01*
X153166667Y-123940533D02*
X153166667Y-123845295D01*
X153166667Y-123845295D02*
X153214286Y-123750057D01*
X153214286Y-123750057D02*
X153261905Y-123702438D01*
X153261905Y-123702438D02*
X153357143Y-123654819D01*
X153357143Y-123654819D02*
X153595238Y-123654819D01*
X153595238Y-123654819D02*
X153738095Y-123702438D01*
X154071429Y-123654819D02*
X154309524Y-124654819D01*
X154309524Y-124654819D02*
X154500000Y-123940533D01*
X154500000Y-123940533D02*
X154690476Y-124654819D01*
X154690476Y-124654819D02*
X154928572Y-123654819D01*
X155071429Y-124750057D02*
X155833333Y-124750057D01*
X156071429Y-124654819D02*
X156071429Y-123654819D01*
X156071429Y-123654819D02*
X156309524Y-123654819D01*
X156309524Y-123654819D02*
X156452381Y-123702438D01*
X156452381Y-123702438D02*
X156547619Y-123797676D01*
X156547619Y-123797676D02*
X156595238Y-123892914D01*
X156595238Y-123892914D02*
X156642857Y-124083390D01*
X156642857Y-124083390D02*
X156642857Y-124226247D01*
X156642857Y-124226247D02*
X156595238Y-124416723D01*
X156595238Y-124416723D02*
X156547619Y-124511961D01*
X156547619Y-124511961D02*
X156452381Y-124607200D01*
X156452381Y-124607200D02*
X156309524Y-124654819D01*
X156309524Y-124654819D02*
X156071429Y-124654819D01*
X157261905Y-123654819D02*
X157452381Y-123654819D01*
X157452381Y-123654819D02*
X157547619Y-123702438D01*
X157547619Y-123702438D02*
X157642857Y-123797676D01*
X157642857Y-123797676D02*
X157690476Y-123988152D01*
X157690476Y-123988152D02*
X157690476Y-124321485D01*
X157690476Y-124321485D02*
X157642857Y-124511961D01*
X157642857Y-124511961D02*
X157547619Y-124607200D01*
X157547619Y-124607200D02*
X157452381Y-124654819D01*
X157452381Y-124654819D02*
X157261905Y-124654819D01*
X157261905Y-124654819D02*
X157166667Y-124607200D01*
X157166667Y-124607200D02*
X157071429Y-124511961D01*
X157071429Y-124511961D02*
X157023810Y-124321485D01*
X157023810Y-124321485D02*
X157023810Y-123988152D01*
X157023810Y-123988152D02*
X157071429Y-123797676D01*
X157071429Y-123797676D02*
X157166667Y-123702438D01*
X157166667Y-123702438D02*
X157261905Y-123654819D01*
X158023810Y-123654819D02*
X158261905Y-124654819D01*
X158261905Y-124654819D02*
X158452381Y-123940533D01*
X158452381Y-123940533D02*
X158642857Y-124654819D01*
X158642857Y-124654819D02*
X158880953Y-123654819D01*
X159261905Y-124654819D02*
X159261905Y-123654819D01*
X159261905Y-123654819D02*
X159833333Y-124654819D01*
X159833333Y-124654819D02*
X159833333Y-123654819D01*
X160833333Y-124654819D02*
X160261905Y-124654819D01*
X160547619Y-124654819D02*
X160547619Y-123654819D01*
X160547619Y-123654819D02*
X160452381Y-123797676D01*
X160452381Y-123797676D02*
X160357143Y-123892914D01*
X160357143Y-123892914D02*
X160261905Y-123940533D01*
X116646667Y-124607200D02*
X116789524Y-124654819D01*
X116789524Y-124654819D02*
X117027619Y-124654819D01*
X117027619Y-124654819D02*
X117122857Y-124607200D01*
X117122857Y-124607200D02*
X117170476Y-124559580D01*
X117170476Y-124559580D02*
X117218095Y-124464342D01*
X117218095Y-124464342D02*
X117218095Y-124369104D01*
X117218095Y-124369104D02*
X117170476Y-124273866D01*
X117170476Y-124273866D02*
X117122857Y-124226247D01*
X117122857Y-124226247D02*
X117027619Y-124178628D01*
X117027619Y-124178628D02*
X116837143Y-124131009D01*
X116837143Y-124131009D02*
X116741905Y-124083390D01*
X116741905Y-124083390D02*
X116694286Y-124035771D01*
X116694286Y-124035771D02*
X116646667Y-123940533D01*
X116646667Y-123940533D02*
X116646667Y-123845295D01*
X116646667Y-123845295D02*
X116694286Y-123750057D01*
X116694286Y-123750057D02*
X116741905Y-123702438D01*
X116741905Y-123702438D02*
X116837143Y-123654819D01*
X116837143Y-123654819D02*
X117075238Y-123654819D01*
X117075238Y-123654819D02*
X117218095Y-123702438D01*
X117551429Y-123654819D02*
X117789524Y-124654819D01*
X117789524Y-124654819D02*
X117980000Y-123940533D01*
X117980000Y-123940533D02*
X118170476Y-124654819D01*
X118170476Y-124654819D02*
X118408572Y-123654819D01*
X118694286Y-123654819D02*
X119360952Y-123654819D01*
X119360952Y-123654819D02*
X118932381Y-124654819D01*
X112909819Y-71433333D02*
X113624104Y-71433333D01*
X113624104Y-71433333D02*
X113766961Y-71480952D01*
X113766961Y-71480952D02*
X113862200Y-71576190D01*
X113862200Y-71576190D02*
X113909819Y-71719047D01*
X113909819Y-71719047D02*
X113909819Y-71814285D01*
X113909819Y-70433333D02*
X113909819Y-71004761D01*
X113909819Y-70719047D02*
X112909819Y-70719047D01*
X112909819Y-70719047D02*
X113052676Y-70814285D01*
X113052676Y-70814285D02*
X113147914Y-70909523D01*
X113147914Y-70909523D02*
X113195533Y-71004761D01*
X148539580Y-82166666D02*
X148587200Y-82214285D01*
X148587200Y-82214285D02*
X148634819Y-82357142D01*
X148634819Y-82357142D02*
X148634819Y-82452380D01*
X148634819Y-82452380D02*
X148587200Y-82595237D01*
X148587200Y-82595237D02*
X148491961Y-82690475D01*
X148491961Y-82690475D02*
X148396723Y-82738094D01*
X148396723Y-82738094D02*
X148206247Y-82785713D01*
X148206247Y-82785713D02*
X148063390Y-82785713D01*
X148063390Y-82785713D02*
X147872914Y-82738094D01*
X147872914Y-82738094D02*
X147777676Y-82690475D01*
X147777676Y-82690475D02*
X147682438Y-82595237D01*
X147682438Y-82595237D02*
X147634819Y-82452380D01*
X147634819Y-82452380D02*
X147634819Y-82357142D01*
X147634819Y-82357142D02*
X147682438Y-82214285D01*
X147682438Y-82214285D02*
X147730057Y-82166666D01*
X148634819Y-81214285D02*
X148634819Y-81785713D01*
X148634819Y-81499999D02*
X147634819Y-81499999D01*
X147634819Y-81499999D02*
X147777676Y-81595237D01*
X147777676Y-81595237D02*
X147872914Y-81690475D01*
X147872914Y-81690475D02*
X147920533Y-81785713D01*
X142646667Y-124607200D02*
X142789524Y-124654819D01*
X142789524Y-124654819D02*
X143027619Y-124654819D01*
X143027619Y-124654819D02*
X143122857Y-124607200D01*
X143122857Y-124607200D02*
X143170476Y-124559580D01*
X143170476Y-124559580D02*
X143218095Y-124464342D01*
X143218095Y-124464342D02*
X143218095Y-124369104D01*
X143218095Y-124369104D02*
X143170476Y-124273866D01*
X143170476Y-124273866D02*
X143122857Y-124226247D01*
X143122857Y-124226247D02*
X143027619Y-124178628D01*
X143027619Y-124178628D02*
X142837143Y-124131009D01*
X142837143Y-124131009D02*
X142741905Y-124083390D01*
X142741905Y-124083390D02*
X142694286Y-124035771D01*
X142694286Y-124035771D02*
X142646667Y-123940533D01*
X142646667Y-123940533D02*
X142646667Y-123845295D01*
X142646667Y-123845295D02*
X142694286Y-123750057D01*
X142694286Y-123750057D02*
X142741905Y-123702438D01*
X142741905Y-123702438D02*
X142837143Y-123654819D01*
X142837143Y-123654819D02*
X143075238Y-123654819D01*
X143075238Y-123654819D02*
X143218095Y-123702438D01*
X143551429Y-123654819D02*
X143789524Y-124654819D01*
X143789524Y-124654819D02*
X143980000Y-123940533D01*
X143980000Y-123940533D02*
X144170476Y-124654819D01*
X144170476Y-124654819D02*
X144408572Y-123654819D01*
X144837143Y-124654819D02*
X145027619Y-124654819D01*
X145027619Y-124654819D02*
X145122857Y-124607200D01*
X145122857Y-124607200D02*
X145170476Y-124559580D01*
X145170476Y-124559580D02*
X145265714Y-124416723D01*
X145265714Y-124416723D02*
X145313333Y-124226247D01*
X145313333Y-124226247D02*
X145313333Y-123845295D01*
X145313333Y-123845295D02*
X145265714Y-123750057D01*
X145265714Y-123750057D02*
X145218095Y-123702438D01*
X145218095Y-123702438D02*
X145122857Y-123654819D01*
X145122857Y-123654819D02*
X144932381Y-123654819D01*
X144932381Y-123654819D02*
X144837143Y-123702438D01*
X144837143Y-123702438D02*
X144789524Y-123750057D01*
X144789524Y-123750057D02*
X144741905Y-123845295D01*
X144741905Y-123845295D02*
X144741905Y-124083390D01*
X144741905Y-124083390D02*
X144789524Y-124178628D01*
X144789524Y-124178628D02*
X144837143Y-124226247D01*
X144837143Y-124226247D02*
X144932381Y-124273866D01*
X144932381Y-124273866D02*
X145122857Y-124273866D01*
X145122857Y-124273866D02*
X145218095Y-124226247D01*
X145218095Y-124226247D02*
X145265714Y-124178628D01*
X145265714Y-124178628D02*
X145313333Y-124083390D01*
X129646667Y-135107200D02*
X129789524Y-135154819D01*
X129789524Y-135154819D02*
X130027619Y-135154819D01*
X130027619Y-135154819D02*
X130122857Y-135107200D01*
X130122857Y-135107200D02*
X130170476Y-135059580D01*
X130170476Y-135059580D02*
X130218095Y-134964342D01*
X130218095Y-134964342D02*
X130218095Y-134869104D01*
X130218095Y-134869104D02*
X130170476Y-134773866D01*
X130170476Y-134773866D02*
X130122857Y-134726247D01*
X130122857Y-134726247D02*
X130027619Y-134678628D01*
X130027619Y-134678628D02*
X129837143Y-134631009D01*
X129837143Y-134631009D02*
X129741905Y-134583390D01*
X129741905Y-134583390D02*
X129694286Y-134535771D01*
X129694286Y-134535771D02*
X129646667Y-134440533D01*
X129646667Y-134440533D02*
X129646667Y-134345295D01*
X129646667Y-134345295D02*
X129694286Y-134250057D01*
X129694286Y-134250057D02*
X129741905Y-134202438D01*
X129741905Y-134202438D02*
X129837143Y-134154819D01*
X129837143Y-134154819D02*
X130075238Y-134154819D01*
X130075238Y-134154819D02*
X130218095Y-134202438D01*
X130551429Y-134154819D02*
X130789524Y-135154819D01*
X130789524Y-135154819D02*
X130980000Y-134440533D01*
X130980000Y-134440533D02*
X131170476Y-135154819D01*
X131170476Y-135154819D02*
X131408572Y-134154819D01*
X131980000Y-134154819D02*
X132075238Y-134154819D01*
X132075238Y-134154819D02*
X132170476Y-134202438D01*
X132170476Y-134202438D02*
X132218095Y-134250057D01*
X132218095Y-134250057D02*
X132265714Y-134345295D01*
X132265714Y-134345295D02*
X132313333Y-134535771D01*
X132313333Y-134535771D02*
X132313333Y-134773866D01*
X132313333Y-134773866D02*
X132265714Y-134964342D01*
X132265714Y-134964342D02*
X132218095Y-135059580D01*
X132218095Y-135059580D02*
X132170476Y-135107200D01*
X132170476Y-135107200D02*
X132075238Y-135154819D01*
X132075238Y-135154819D02*
X131980000Y-135154819D01*
X131980000Y-135154819D02*
X131884762Y-135107200D01*
X131884762Y-135107200D02*
X131837143Y-135059580D01*
X131837143Y-135059580D02*
X131789524Y-134964342D01*
X131789524Y-134964342D02*
X131741905Y-134773866D01*
X131741905Y-134773866D02*
X131741905Y-134535771D01*
X131741905Y-134535771D02*
X131789524Y-134345295D01*
X131789524Y-134345295D02*
X131837143Y-134250057D01*
X131837143Y-134250057D02*
X131884762Y-134202438D01*
X131884762Y-134202438D02*
X131980000Y-134154819D01*
X153043809Y-135107200D02*
X153186666Y-135154819D01*
X153186666Y-135154819D02*
X153424761Y-135154819D01*
X153424761Y-135154819D02*
X153519999Y-135107200D01*
X153519999Y-135107200D02*
X153567618Y-135059580D01*
X153567618Y-135059580D02*
X153615237Y-134964342D01*
X153615237Y-134964342D02*
X153615237Y-134869104D01*
X153615237Y-134869104D02*
X153567618Y-134773866D01*
X153567618Y-134773866D02*
X153519999Y-134726247D01*
X153519999Y-134726247D02*
X153424761Y-134678628D01*
X153424761Y-134678628D02*
X153234285Y-134631009D01*
X153234285Y-134631009D02*
X153139047Y-134583390D01*
X153139047Y-134583390D02*
X153091428Y-134535771D01*
X153091428Y-134535771D02*
X153043809Y-134440533D01*
X153043809Y-134440533D02*
X153043809Y-134345295D01*
X153043809Y-134345295D02*
X153091428Y-134250057D01*
X153091428Y-134250057D02*
X153139047Y-134202438D01*
X153139047Y-134202438D02*
X153234285Y-134154819D01*
X153234285Y-134154819D02*
X153472380Y-134154819D01*
X153472380Y-134154819D02*
X153615237Y-134202438D01*
X153948571Y-134154819D02*
X154186666Y-135154819D01*
X154186666Y-135154819D02*
X154377142Y-134440533D01*
X154377142Y-134440533D02*
X154567618Y-135154819D01*
X154567618Y-135154819D02*
X154805714Y-134154819D01*
X154948571Y-135250057D02*
X155710475Y-135250057D01*
X156519999Y-135154819D02*
X156186666Y-134678628D01*
X155948571Y-135154819D02*
X155948571Y-134154819D01*
X155948571Y-134154819D02*
X156329523Y-134154819D01*
X156329523Y-134154819D02*
X156424761Y-134202438D01*
X156424761Y-134202438D02*
X156472380Y-134250057D01*
X156472380Y-134250057D02*
X156519999Y-134345295D01*
X156519999Y-134345295D02*
X156519999Y-134488152D01*
X156519999Y-134488152D02*
X156472380Y-134583390D01*
X156472380Y-134583390D02*
X156424761Y-134631009D01*
X156424761Y-134631009D02*
X156329523Y-134678628D01*
X156329523Y-134678628D02*
X155948571Y-134678628D01*
X156948571Y-134631009D02*
X157281904Y-134631009D01*
X157424761Y-135154819D02*
X156948571Y-135154819D01*
X156948571Y-135154819D02*
X156948571Y-134154819D01*
X156948571Y-134154819D02*
X157424761Y-134154819D01*
X157805714Y-135107200D02*
X157948571Y-135154819D01*
X157948571Y-135154819D02*
X158186666Y-135154819D01*
X158186666Y-135154819D02*
X158281904Y-135107200D01*
X158281904Y-135107200D02*
X158329523Y-135059580D01*
X158329523Y-135059580D02*
X158377142Y-134964342D01*
X158377142Y-134964342D02*
X158377142Y-134869104D01*
X158377142Y-134869104D02*
X158329523Y-134773866D01*
X158329523Y-134773866D02*
X158281904Y-134726247D01*
X158281904Y-134726247D02*
X158186666Y-134678628D01*
X158186666Y-134678628D02*
X157996190Y-134631009D01*
X157996190Y-134631009D02*
X157900952Y-134583390D01*
X157900952Y-134583390D02*
X157853333Y-134535771D01*
X157853333Y-134535771D02*
X157805714Y-134440533D01*
X157805714Y-134440533D02*
X157805714Y-134345295D01*
X157805714Y-134345295D02*
X157853333Y-134250057D01*
X157853333Y-134250057D02*
X157900952Y-134202438D01*
X157900952Y-134202438D02*
X157996190Y-134154819D01*
X157996190Y-134154819D02*
X158234285Y-134154819D01*
X158234285Y-134154819D02*
X158377142Y-134202438D01*
X158805714Y-134631009D02*
X159139047Y-134631009D01*
X159281904Y-135154819D02*
X158805714Y-135154819D01*
X158805714Y-135154819D02*
X158805714Y-134154819D01*
X158805714Y-134154819D02*
X159281904Y-134154819D01*
X159567619Y-134154819D02*
X160139047Y-134154819D01*
X159853333Y-135154819D02*
X159853333Y-134154819D01*
X160996190Y-135154819D02*
X160424762Y-135154819D01*
X160710476Y-135154819D02*
X160710476Y-134154819D01*
X160710476Y-134154819D02*
X160615238Y-134297676D01*
X160615238Y-134297676D02*
X160520000Y-134392914D01*
X160520000Y-134392914D02*
X160424762Y-134440533D01*
X116646667Y-114107200D02*
X116789524Y-114154819D01*
X116789524Y-114154819D02*
X117027619Y-114154819D01*
X117027619Y-114154819D02*
X117122857Y-114107200D01*
X117122857Y-114107200D02*
X117170476Y-114059580D01*
X117170476Y-114059580D02*
X117218095Y-113964342D01*
X117218095Y-113964342D02*
X117218095Y-113869104D01*
X117218095Y-113869104D02*
X117170476Y-113773866D01*
X117170476Y-113773866D02*
X117122857Y-113726247D01*
X117122857Y-113726247D02*
X117027619Y-113678628D01*
X117027619Y-113678628D02*
X116837143Y-113631009D01*
X116837143Y-113631009D02*
X116741905Y-113583390D01*
X116741905Y-113583390D02*
X116694286Y-113535771D01*
X116694286Y-113535771D02*
X116646667Y-113440533D01*
X116646667Y-113440533D02*
X116646667Y-113345295D01*
X116646667Y-113345295D02*
X116694286Y-113250057D01*
X116694286Y-113250057D02*
X116741905Y-113202438D01*
X116741905Y-113202438D02*
X116837143Y-113154819D01*
X116837143Y-113154819D02*
X117075238Y-113154819D01*
X117075238Y-113154819D02*
X117218095Y-113202438D01*
X117551429Y-113154819D02*
X117789524Y-114154819D01*
X117789524Y-114154819D02*
X117980000Y-113440533D01*
X117980000Y-113440533D02*
X118170476Y-114154819D01*
X118170476Y-114154819D02*
X118408572Y-113154819D01*
X119218095Y-113488152D02*
X119218095Y-114154819D01*
X118980000Y-113107200D02*
X118741905Y-113821485D01*
X118741905Y-113821485D02*
X119360952Y-113821485D01*
X162521371Y-93523809D02*
X162045180Y-93523809D01*
X163045180Y-93190476D02*
X162521371Y-93523809D01*
X162521371Y-93523809D02*
X163045180Y-93857142D01*
X162045180Y-94714285D02*
X162045180Y-94142857D01*
X162045180Y-94428571D02*
X163045180Y-94428571D01*
X163045180Y-94428571D02*
X162902323Y-94333333D01*
X162902323Y-94333333D02*
X162807085Y-94238095D01*
X162807085Y-94238095D02*
X162759466Y-94142857D01*
X137954580Y-63616666D02*
X138002200Y-63664285D01*
X138002200Y-63664285D02*
X138049819Y-63807142D01*
X138049819Y-63807142D02*
X138049819Y-63902380D01*
X138049819Y-63902380D02*
X138002200Y-64045237D01*
X138002200Y-64045237D02*
X137906961Y-64140475D01*
X137906961Y-64140475D02*
X137811723Y-64188094D01*
X137811723Y-64188094D02*
X137621247Y-64235713D01*
X137621247Y-64235713D02*
X137478390Y-64235713D01*
X137478390Y-64235713D02*
X137287914Y-64188094D01*
X137287914Y-64188094D02*
X137192676Y-64140475D01*
X137192676Y-64140475D02*
X137097438Y-64045237D01*
X137097438Y-64045237D02*
X137049819Y-63902380D01*
X137049819Y-63902380D02*
X137049819Y-63807142D01*
X137049819Y-63807142D02*
X137097438Y-63664285D01*
X137097438Y-63664285D02*
X137145057Y-63616666D01*
X137049819Y-62711904D02*
X137049819Y-63188094D01*
X137049819Y-63188094D02*
X137526009Y-63235713D01*
X137526009Y-63235713D02*
X137478390Y-63188094D01*
X137478390Y-63188094D02*
X137430771Y-63092856D01*
X137430771Y-63092856D02*
X137430771Y-62854761D01*
X137430771Y-62854761D02*
X137478390Y-62759523D01*
X137478390Y-62759523D02*
X137526009Y-62711904D01*
X137526009Y-62711904D02*
X137621247Y-62664285D01*
X137621247Y-62664285D02*
X137859342Y-62664285D01*
X137859342Y-62664285D02*
X137954580Y-62711904D01*
X137954580Y-62711904D02*
X138002200Y-62759523D01*
X138002200Y-62759523D02*
X138049819Y-62854761D01*
X138049819Y-62854761D02*
X138049819Y-63092856D01*
X138049819Y-63092856D02*
X138002200Y-63188094D01*
X138002200Y-63188094D02*
X137954580Y-63235713D01*
X129646667Y-103607200D02*
X129789524Y-103654819D01*
X129789524Y-103654819D02*
X130027619Y-103654819D01*
X130027619Y-103654819D02*
X130122857Y-103607200D01*
X130122857Y-103607200D02*
X130170476Y-103559580D01*
X130170476Y-103559580D02*
X130218095Y-103464342D01*
X130218095Y-103464342D02*
X130218095Y-103369104D01*
X130218095Y-103369104D02*
X130170476Y-103273866D01*
X130170476Y-103273866D02*
X130122857Y-103226247D01*
X130122857Y-103226247D02*
X130027619Y-103178628D01*
X130027619Y-103178628D02*
X129837143Y-103131009D01*
X129837143Y-103131009D02*
X129741905Y-103083390D01*
X129741905Y-103083390D02*
X129694286Y-103035771D01*
X129694286Y-103035771D02*
X129646667Y-102940533D01*
X129646667Y-102940533D02*
X129646667Y-102845295D01*
X129646667Y-102845295D02*
X129694286Y-102750057D01*
X129694286Y-102750057D02*
X129741905Y-102702438D01*
X129741905Y-102702438D02*
X129837143Y-102654819D01*
X129837143Y-102654819D02*
X130075238Y-102654819D01*
X130075238Y-102654819D02*
X130218095Y-102702438D01*
X130551429Y-102654819D02*
X130789524Y-103654819D01*
X130789524Y-103654819D02*
X130980000Y-102940533D01*
X130980000Y-102940533D02*
X131170476Y-103654819D01*
X131170476Y-103654819D02*
X131408572Y-102654819D01*
X131741905Y-102750057D02*
X131789524Y-102702438D01*
X131789524Y-102702438D02*
X131884762Y-102654819D01*
X131884762Y-102654819D02*
X132122857Y-102654819D01*
X132122857Y-102654819D02*
X132218095Y-102702438D01*
X132218095Y-102702438D02*
X132265714Y-102750057D01*
X132265714Y-102750057D02*
X132313333Y-102845295D01*
X132313333Y-102845295D02*
X132313333Y-102940533D01*
X132313333Y-102940533D02*
X132265714Y-103083390D01*
X132265714Y-103083390D02*
X131694286Y-103654819D01*
X131694286Y-103654819D02*
X132313333Y-103654819D01*
X142606667Y-114107200D02*
X142749524Y-114154819D01*
X142749524Y-114154819D02*
X142987619Y-114154819D01*
X142987619Y-114154819D02*
X143082857Y-114107200D01*
X143082857Y-114107200D02*
X143130476Y-114059580D01*
X143130476Y-114059580D02*
X143178095Y-113964342D01*
X143178095Y-113964342D02*
X143178095Y-113869104D01*
X143178095Y-113869104D02*
X143130476Y-113773866D01*
X143130476Y-113773866D02*
X143082857Y-113726247D01*
X143082857Y-113726247D02*
X142987619Y-113678628D01*
X142987619Y-113678628D02*
X142797143Y-113631009D01*
X142797143Y-113631009D02*
X142701905Y-113583390D01*
X142701905Y-113583390D02*
X142654286Y-113535771D01*
X142654286Y-113535771D02*
X142606667Y-113440533D01*
X142606667Y-113440533D02*
X142606667Y-113345295D01*
X142606667Y-113345295D02*
X142654286Y-113250057D01*
X142654286Y-113250057D02*
X142701905Y-113202438D01*
X142701905Y-113202438D02*
X142797143Y-113154819D01*
X142797143Y-113154819D02*
X143035238Y-113154819D01*
X143035238Y-113154819D02*
X143178095Y-113202438D01*
X143511429Y-113154819D02*
X143749524Y-114154819D01*
X143749524Y-114154819D02*
X143940000Y-113440533D01*
X143940000Y-113440533D02*
X144130476Y-114154819D01*
X144130476Y-114154819D02*
X144368572Y-113154819D01*
X145178095Y-113154819D02*
X144987619Y-113154819D01*
X144987619Y-113154819D02*
X144892381Y-113202438D01*
X144892381Y-113202438D02*
X144844762Y-113250057D01*
X144844762Y-113250057D02*
X144749524Y-113392914D01*
X144749524Y-113392914D02*
X144701905Y-113583390D01*
X144701905Y-113583390D02*
X144701905Y-113964342D01*
X144701905Y-113964342D02*
X144749524Y-114059580D01*
X144749524Y-114059580D02*
X144797143Y-114107200D01*
X144797143Y-114107200D02*
X144892381Y-114154819D01*
X144892381Y-114154819D02*
X145082857Y-114154819D01*
X145082857Y-114154819D02*
X145178095Y-114107200D01*
X145178095Y-114107200D02*
X145225714Y-114059580D01*
X145225714Y-114059580D02*
X145273333Y-113964342D01*
X145273333Y-113964342D02*
X145273333Y-113726247D01*
X145273333Y-113726247D02*
X145225714Y-113631009D01*
X145225714Y-113631009D02*
X145178095Y-113583390D01*
X145178095Y-113583390D02*
X145082857Y-113535771D01*
X145082857Y-113535771D02*
X144892381Y-113535771D01*
X144892381Y-113535771D02*
X144797143Y-113583390D01*
X144797143Y-113583390D02*
X144749524Y-113631009D01*
X144749524Y-113631009D02*
X144701905Y-113726247D01*
X162745833Y-80804819D02*
X162412500Y-80328628D01*
X162174405Y-80804819D02*
X162174405Y-79804819D01*
X162174405Y-79804819D02*
X162555357Y-79804819D01*
X162555357Y-79804819D02*
X162650595Y-79852438D01*
X162650595Y-79852438D02*
X162698214Y-79900057D01*
X162698214Y-79900057D02*
X162745833Y-79995295D01*
X162745833Y-79995295D02*
X162745833Y-80138152D01*
X162745833Y-80138152D02*
X162698214Y-80233390D01*
X162698214Y-80233390D02*
X162650595Y-80281009D01*
X162650595Y-80281009D02*
X162555357Y-80328628D01*
X162555357Y-80328628D02*
X162174405Y-80328628D01*
X163698214Y-80804819D02*
X163126786Y-80804819D01*
X163412500Y-80804819D02*
X163412500Y-79804819D01*
X163412500Y-79804819D02*
X163317262Y-79947676D01*
X163317262Y-79947676D02*
X163222024Y-80042914D01*
X163222024Y-80042914D02*
X163126786Y-80090533D01*
X136609819Y-49333333D02*
X137324104Y-49333333D01*
X137324104Y-49333333D02*
X137466961Y-49380952D01*
X137466961Y-49380952D02*
X137562200Y-49476190D01*
X137562200Y-49476190D02*
X137609819Y-49619047D01*
X137609819Y-49619047D02*
X137609819Y-49714285D01*
X136609819Y-48952380D02*
X136609819Y-48333333D01*
X136609819Y-48333333D02*
X136990771Y-48666666D01*
X136990771Y-48666666D02*
X136990771Y-48523809D01*
X136990771Y-48523809D02*
X137038390Y-48428571D01*
X137038390Y-48428571D02*
X137086009Y-48380952D01*
X137086009Y-48380952D02*
X137181247Y-48333333D01*
X137181247Y-48333333D02*
X137419342Y-48333333D01*
X137419342Y-48333333D02*
X137514580Y-48380952D01*
X137514580Y-48380952D02*
X137562200Y-48428571D01*
X137562200Y-48428571D02*
X137609819Y-48523809D01*
X137609819Y-48523809D02*
X137609819Y-48809523D01*
X137609819Y-48809523D02*
X137562200Y-48904761D01*
X137562200Y-48904761D02*
X137514580Y-48952380D01*
X154261905Y-114107200D02*
X154404762Y-114154819D01*
X154404762Y-114154819D02*
X154642857Y-114154819D01*
X154642857Y-114154819D02*
X154738095Y-114107200D01*
X154738095Y-114107200D02*
X154785714Y-114059580D01*
X154785714Y-114059580D02*
X154833333Y-113964342D01*
X154833333Y-113964342D02*
X154833333Y-113869104D01*
X154833333Y-113869104D02*
X154785714Y-113773866D01*
X154785714Y-113773866D02*
X154738095Y-113726247D01*
X154738095Y-113726247D02*
X154642857Y-113678628D01*
X154642857Y-113678628D02*
X154452381Y-113631009D01*
X154452381Y-113631009D02*
X154357143Y-113583390D01*
X154357143Y-113583390D02*
X154309524Y-113535771D01*
X154309524Y-113535771D02*
X154261905Y-113440533D01*
X154261905Y-113440533D02*
X154261905Y-113345295D01*
X154261905Y-113345295D02*
X154309524Y-113250057D01*
X154309524Y-113250057D02*
X154357143Y-113202438D01*
X154357143Y-113202438D02*
X154452381Y-113154819D01*
X154452381Y-113154819D02*
X154690476Y-113154819D01*
X154690476Y-113154819D02*
X154833333Y-113202438D01*
X155166667Y-113154819D02*
X155404762Y-114154819D01*
X155404762Y-114154819D02*
X155595238Y-113440533D01*
X155595238Y-113440533D02*
X155785714Y-114154819D01*
X155785714Y-114154819D02*
X156023810Y-113154819D01*
X156166667Y-114250057D02*
X156928571Y-114250057D01*
X157166667Y-113154819D02*
X157166667Y-113964342D01*
X157166667Y-113964342D02*
X157214286Y-114059580D01*
X157214286Y-114059580D02*
X157261905Y-114107200D01*
X157261905Y-114107200D02*
X157357143Y-114154819D01*
X157357143Y-114154819D02*
X157547619Y-114154819D01*
X157547619Y-114154819D02*
X157642857Y-114107200D01*
X157642857Y-114107200D02*
X157690476Y-114059580D01*
X157690476Y-114059580D02*
X157738095Y-113964342D01*
X157738095Y-113964342D02*
X157738095Y-113154819D01*
X158214286Y-114154819D02*
X158214286Y-113154819D01*
X158214286Y-113154819D02*
X158595238Y-113154819D01*
X158595238Y-113154819D02*
X158690476Y-113202438D01*
X158690476Y-113202438D02*
X158738095Y-113250057D01*
X158738095Y-113250057D02*
X158785714Y-113345295D01*
X158785714Y-113345295D02*
X158785714Y-113488152D01*
X158785714Y-113488152D02*
X158738095Y-113583390D01*
X158738095Y-113583390D02*
X158690476Y-113631009D01*
X158690476Y-113631009D02*
X158595238Y-113678628D01*
X158595238Y-113678628D02*
X158214286Y-113678628D01*
X159738095Y-114154819D02*
X159166667Y-114154819D01*
X159452381Y-114154819D02*
X159452381Y-113154819D01*
X159452381Y-113154819D02*
X159357143Y-113297676D01*
X159357143Y-113297676D02*
X159261905Y-113392914D01*
X159261905Y-113392914D02*
X159166667Y-113440533D01*
X148284819Y-66461904D02*
X149094342Y-66461904D01*
X149094342Y-66461904D02*
X149189580Y-66414285D01*
X149189580Y-66414285D02*
X149237200Y-66366666D01*
X149237200Y-66366666D02*
X149284819Y-66271428D01*
X149284819Y-66271428D02*
X149284819Y-66080952D01*
X149284819Y-66080952D02*
X149237200Y-65985714D01*
X149237200Y-65985714D02*
X149189580Y-65938095D01*
X149189580Y-65938095D02*
X149094342Y-65890476D01*
X149094342Y-65890476D02*
X148284819Y-65890476D01*
X148380057Y-65461904D02*
X148332438Y-65414285D01*
X148332438Y-65414285D02*
X148284819Y-65319047D01*
X148284819Y-65319047D02*
X148284819Y-65080952D01*
X148284819Y-65080952D02*
X148332438Y-64985714D01*
X148332438Y-64985714D02*
X148380057Y-64938095D01*
X148380057Y-64938095D02*
X148475295Y-64890476D01*
X148475295Y-64890476D02*
X148570533Y-64890476D01*
X148570533Y-64890476D02*
X148713390Y-64938095D01*
X148713390Y-64938095D02*
X149284819Y-65509523D01*
X149284819Y-65509523D02*
X149284819Y-64890476D01*
X153234286Y-103607200D02*
X153377143Y-103654819D01*
X153377143Y-103654819D02*
X153615238Y-103654819D01*
X153615238Y-103654819D02*
X153710476Y-103607200D01*
X153710476Y-103607200D02*
X153758095Y-103559580D01*
X153758095Y-103559580D02*
X153805714Y-103464342D01*
X153805714Y-103464342D02*
X153805714Y-103369104D01*
X153805714Y-103369104D02*
X153758095Y-103273866D01*
X153758095Y-103273866D02*
X153710476Y-103226247D01*
X153710476Y-103226247D02*
X153615238Y-103178628D01*
X153615238Y-103178628D02*
X153424762Y-103131009D01*
X153424762Y-103131009D02*
X153329524Y-103083390D01*
X153329524Y-103083390D02*
X153281905Y-103035771D01*
X153281905Y-103035771D02*
X153234286Y-102940533D01*
X153234286Y-102940533D02*
X153234286Y-102845295D01*
X153234286Y-102845295D02*
X153281905Y-102750057D01*
X153281905Y-102750057D02*
X153329524Y-102702438D01*
X153329524Y-102702438D02*
X153424762Y-102654819D01*
X153424762Y-102654819D02*
X153662857Y-102654819D01*
X153662857Y-102654819D02*
X153805714Y-102702438D01*
X154139048Y-102654819D02*
X154377143Y-103654819D01*
X154377143Y-103654819D02*
X154567619Y-102940533D01*
X154567619Y-102940533D02*
X154758095Y-103654819D01*
X154758095Y-103654819D02*
X154996191Y-102654819D01*
X155139048Y-103750057D02*
X155900952Y-103750057D01*
X156139048Y-103654819D02*
X156139048Y-102654819D01*
X156139048Y-102654819D02*
X156472381Y-103369104D01*
X156472381Y-103369104D02*
X156805714Y-102654819D01*
X156805714Y-102654819D02*
X156805714Y-103654819D01*
X157281905Y-103131009D02*
X157615238Y-103131009D01*
X157758095Y-103654819D02*
X157281905Y-103654819D01*
X157281905Y-103654819D02*
X157281905Y-102654819D01*
X157281905Y-102654819D02*
X157758095Y-102654819D01*
X158186667Y-103654819D02*
X158186667Y-102654819D01*
X158186667Y-102654819D02*
X158758095Y-103654819D01*
X158758095Y-103654819D02*
X158758095Y-102654819D01*
X159234286Y-102654819D02*
X159234286Y-103464342D01*
X159234286Y-103464342D02*
X159281905Y-103559580D01*
X159281905Y-103559580D02*
X159329524Y-103607200D01*
X159329524Y-103607200D02*
X159424762Y-103654819D01*
X159424762Y-103654819D02*
X159615238Y-103654819D01*
X159615238Y-103654819D02*
X159710476Y-103607200D01*
X159710476Y-103607200D02*
X159758095Y-103559580D01*
X159758095Y-103559580D02*
X159805714Y-103464342D01*
X159805714Y-103464342D02*
X159805714Y-102654819D01*
X160805714Y-103654819D02*
X160234286Y-103654819D01*
X160520000Y-103654819D02*
X160520000Y-102654819D01*
X160520000Y-102654819D02*
X160424762Y-102797676D01*
X160424762Y-102797676D02*
X160329524Y-102892914D01*
X160329524Y-102892914D02*
X160234286Y-102940533D01*
X129646667Y-114107200D02*
X129789524Y-114154819D01*
X129789524Y-114154819D02*
X130027619Y-114154819D01*
X130027619Y-114154819D02*
X130122857Y-114107200D01*
X130122857Y-114107200D02*
X130170476Y-114059580D01*
X130170476Y-114059580D02*
X130218095Y-113964342D01*
X130218095Y-113964342D02*
X130218095Y-113869104D01*
X130218095Y-113869104D02*
X130170476Y-113773866D01*
X130170476Y-113773866D02*
X130122857Y-113726247D01*
X130122857Y-113726247D02*
X130027619Y-113678628D01*
X130027619Y-113678628D02*
X129837143Y-113631009D01*
X129837143Y-113631009D02*
X129741905Y-113583390D01*
X129741905Y-113583390D02*
X129694286Y-113535771D01*
X129694286Y-113535771D02*
X129646667Y-113440533D01*
X129646667Y-113440533D02*
X129646667Y-113345295D01*
X129646667Y-113345295D02*
X129694286Y-113250057D01*
X129694286Y-113250057D02*
X129741905Y-113202438D01*
X129741905Y-113202438D02*
X129837143Y-113154819D01*
X129837143Y-113154819D02*
X130075238Y-113154819D01*
X130075238Y-113154819D02*
X130218095Y-113202438D01*
X130551429Y-113154819D02*
X130789524Y-114154819D01*
X130789524Y-114154819D02*
X130980000Y-113440533D01*
X130980000Y-113440533D02*
X131170476Y-114154819D01*
X131170476Y-114154819D02*
X131408572Y-113154819D01*
X132265714Y-113154819D02*
X131789524Y-113154819D01*
X131789524Y-113154819D02*
X131741905Y-113631009D01*
X131741905Y-113631009D02*
X131789524Y-113583390D01*
X131789524Y-113583390D02*
X131884762Y-113535771D01*
X131884762Y-113535771D02*
X132122857Y-113535771D01*
X132122857Y-113535771D02*
X132218095Y-113583390D01*
X132218095Y-113583390D02*
X132265714Y-113631009D01*
X132265714Y-113631009D02*
X132313333Y-113726247D01*
X132313333Y-113726247D02*
X132313333Y-113964342D01*
X132313333Y-113964342D02*
X132265714Y-114059580D01*
X132265714Y-114059580D02*
X132218095Y-114107200D01*
X132218095Y-114107200D02*
X132122857Y-114154819D01*
X132122857Y-114154819D02*
X131884762Y-114154819D01*
X131884762Y-114154819D02*
X131789524Y-114107200D01*
X131789524Y-114107200D02*
X131741905Y-114059580D01*
X144608333Y-74454819D02*
X144132143Y-74454819D01*
X144132143Y-74454819D02*
X144132143Y-73454819D01*
X145465476Y-74454819D02*
X144894048Y-74454819D01*
X145179762Y-74454819D02*
X145179762Y-73454819D01*
X145179762Y-73454819D02*
X145084524Y-73597676D01*
X145084524Y-73597676D02*
X144989286Y-73692914D01*
X144989286Y-73692914D02*
X144894048Y-73740533D01*
X167192319Y-139166666D02*
X166716128Y-139499999D01*
X167192319Y-139738094D02*
X166192319Y-139738094D01*
X166192319Y-139738094D02*
X166192319Y-139357142D01*
X166192319Y-139357142D02*
X166239938Y-139261904D01*
X166239938Y-139261904D02*
X166287557Y-139214285D01*
X166287557Y-139214285D02*
X166382795Y-139166666D01*
X166382795Y-139166666D02*
X166525652Y-139166666D01*
X166525652Y-139166666D02*
X166620890Y-139214285D01*
X166620890Y-139214285D02*
X166668509Y-139261904D01*
X166668509Y-139261904D02*
X166716128Y-139357142D01*
X166716128Y-139357142D02*
X166716128Y-139738094D01*
X166192319Y-138833332D02*
X166192319Y-138214285D01*
X166192319Y-138214285D02*
X166573271Y-138547618D01*
X166573271Y-138547618D02*
X166573271Y-138404761D01*
X166573271Y-138404761D02*
X166620890Y-138309523D01*
X166620890Y-138309523D02*
X166668509Y-138261904D01*
X166668509Y-138261904D02*
X166763747Y-138214285D01*
X166763747Y-138214285D02*
X167001842Y-138214285D01*
X167001842Y-138214285D02*
X167097080Y-138261904D01*
X167097080Y-138261904D02*
X167144700Y-138309523D01*
X167144700Y-138309523D02*
X167192319Y-138404761D01*
X167192319Y-138404761D02*
X167192319Y-138690475D01*
X167192319Y-138690475D02*
X167144700Y-138785713D01*
X167144700Y-138785713D02*
X167097080Y-138833332D01*
D12*
%TO.C,J5*%
X138170000Y-57330000D02*
X138170000Y-56000000D01*
X139500000Y-57330000D02*
X138170000Y-57330000D01*
X140770000Y-57330000D02*
X145910000Y-57330000D01*
X140770000Y-57330000D02*
X140770000Y-54670000D01*
X145910000Y-57330000D02*
X145910000Y-54670000D01*
X140770000Y-54670000D02*
X145910000Y-54670000D01*
%TO.C,J4*%
X110830000Y-60405000D02*
X109500000Y-60405000D01*
X110830000Y-59075000D02*
X110830000Y-60405000D01*
X110830000Y-57805000D02*
X110830000Y-47585000D01*
X110830000Y-57805000D02*
X108170000Y-57805000D01*
X110830000Y-47585000D02*
X108170000Y-47585000D01*
X108170000Y-57805000D02*
X108170000Y-47585000D01*
%TO.C,SW8*%
X127710000Y-125020000D02*
X134170000Y-125020000D01*
X127710000Y-125050000D02*
X127710000Y-125020000D01*
X127710000Y-126950000D02*
X127710000Y-129550000D01*
X127710000Y-131480000D02*
X127710000Y-131450000D01*
X127710000Y-131480000D02*
X134170000Y-131480000D01*
X134170000Y-125020000D02*
X134170000Y-125050000D01*
X134170000Y-126950000D02*
X134170000Y-129550000D01*
X134170000Y-131480000D02*
X134170000Y-131450000D01*
%TO.C,C4*%
X144986252Y-61715000D02*
X144463748Y-61715000D01*
X144986252Y-63185000D02*
X144463748Y-63185000D01*
%TO.C,U1*%
X115790000Y-64760000D02*
X115790000Y-49040000D01*
X131510000Y-49040000D02*
X115790000Y-49040000D01*
X131510000Y-60350000D02*
X131510000Y-49040000D01*
X131510000Y-64760000D02*
X115790000Y-64760000D01*
X131510000Y-64760000D02*
X131510000Y-61050000D01*
X131840000Y-60940000D02*
X131510000Y-60700000D01*
X131840000Y-60460000D01*
X131840000Y-60940000D01*
G36*
X131840000Y-60940000D02*
G01*
X131510000Y-60700000D01*
X131840000Y-60460000D01*
X131840000Y-60940000D01*
G37*
%TO.C,C2*%
X167265000Y-99688748D02*
X167265000Y-100211252D01*
X168735000Y-99688748D02*
X168735000Y-100211252D01*
D11*
%TO.C,U3*%
X143375000Y-88875000D02*
X143375000Y-89200000D01*
X143375000Y-88875000D02*
X143700000Y-88875000D01*
X143375000Y-96125000D02*
X143375000Y-95800000D01*
X143375000Y-96125000D02*
X143600000Y-96125000D01*
X150625000Y-88875000D02*
X150300000Y-88875000D01*
X150625000Y-88875000D02*
X150625000Y-89200000D01*
X150625000Y-96125000D02*
X150300000Y-96125000D01*
X150625000Y-96125000D02*
X150625000Y-95800000D01*
D12*
X143660000Y-96890000D02*
X143190000Y-97230000D01*
X143190000Y-96550000D01*
X143660000Y-96890000D01*
G36*
X143660000Y-96890000D02*
G01*
X143190000Y-97230000D01*
X143190000Y-96550000D01*
X143660000Y-96890000D01*
G37*
%TO.C,SW1*%
X114750000Y-104020000D02*
X121210000Y-104020000D01*
X114750000Y-104050000D02*
X114750000Y-104020000D01*
X114750000Y-105950000D02*
X114750000Y-108550000D01*
X114750000Y-110480000D02*
X114750000Y-110450000D01*
X114750000Y-110480000D02*
X121210000Y-110480000D01*
X121210000Y-104020000D02*
X121210000Y-104050000D01*
X121210000Y-105950000D02*
X121210000Y-108550000D01*
X121210000Y-110480000D02*
X121210000Y-110450000D01*
%TO.C,C3*%
X167215000Y-88711252D02*
X167215000Y-88188748D01*
X168685000Y-88711252D02*
X168685000Y-88188748D01*
%TO.C,AE1*%
X159860000Y-46940000D02*
X159860000Y-55140000D01*
X159860000Y-46940000D02*
X168060000Y-46940000D01*
X159860000Y-51540000D02*
X160360000Y-51040000D01*
X159860000Y-55140000D02*
X168060000Y-55140000D01*
X160360000Y-51040000D02*
X159860000Y-50540000D01*
X168060000Y-46940000D02*
X168060000Y-55140000D01*
%TO.C,SW_DOT1*%
X114750000Y-135520000D02*
X121210000Y-135520000D01*
X114750000Y-135550000D02*
X114750000Y-135520000D01*
X114750000Y-137450000D02*
X114750000Y-140050000D01*
X114750000Y-141980000D02*
X114750000Y-141950000D01*
X114750000Y-141980000D02*
X121210000Y-141980000D01*
X121210000Y-135520000D02*
X121210000Y-135550000D01*
X121210000Y-137450000D02*
X121210000Y-140050000D01*
X121210000Y-141980000D02*
X121210000Y-141950000D01*
%TO.C,SW3*%
X140750000Y-104020000D02*
X147210000Y-104020000D01*
X140750000Y-104050000D02*
X140750000Y-104020000D01*
X140750000Y-105950000D02*
X140750000Y-108550000D01*
X140750000Y-110480000D02*
X140750000Y-110450000D01*
X140750000Y-110480000D02*
X147210000Y-110480000D01*
X147210000Y-104020000D02*
X147210000Y-104050000D01*
X147210000Y-105950000D02*
X147210000Y-108550000D01*
X147210000Y-110480000D02*
X147210000Y-110450000D01*
%TO.C,U4*%
X143040000Y-67450000D02*
X143040000Y-66650000D01*
X143040000Y-67450000D02*
X143040000Y-68250000D01*
X146160000Y-67450000D02*
X146160000Y-66650000D01*
X146160000Y-67450000D02*
X146160000Y-68250000D01*
X146440000Y-66390000D02*
X146110000Y-66150000D01*
X146440000Y-65910000D01*
X146440000Y-66390000D01*
G36*
X146440000Y-66390000D02*
G01*
X146110000Y-66150000D01*
X146440000Y-65910000D01*
X146440000Y-66390000D01*
G37*
%TO.C,SW_ENTER1*%
X140750000Y-135520000D02*
X147210000Y-135520000D01*
X140750000Y-135550000D02*
X140750000Y-135520000D01*
X140750000Y-137450000D02*
X140750000Y-140050000D01*
X140750000Y-141980000D02*
X140750000Y-141950000D01*
X140750000Y-141980000D02*
X147210000Y-141980000D01*
X147210000Y-135520000D02*
X147210000Y-135550000D01*
X147210000Y-137450000D02*
X147210000Y-140050000D01*
X147210000Y-141980000D02*
X147210000Y-141950000D01*
%TO.C,J2*%
X166170000Y-77895000D02*
X167500000Y-77895000D01*
X166170000Y-79225000D02*
X166170000Y-77895000D01*
X166170000Y-80495000D02*
X166170000Y-83095000D01*
X166170000Y-80495000D02*
X168830000Y-80495000D01*
X166170000Y-83095000D02*
X168830000Y-83095000D01*
X168830000Y-80495000D02*
X168830000Y-83095000D01*
%TO.C,R2*%
X162772936Y-77765000D02*
X163227064Y-77765000D01*
X162772936Y-79235000D02*
X163227064Y-79235000D01*
%TO.C,SW_DOWN1*%
X153770000Y-125020000D02*
X160230000Y-125020000D01*
X153770000Y-125050000D02*
X153770000Y-125020000D01*
X153770000Y-126950000D02*
X153770000Y-129550000D01*
X153770000Y-131480000D02*
X153770000Y-131450000D01*
X153770000Y-131480000D02*
X160230000Y-131480000D01*
X160230000Y-125020000D02*
X160230000Y-125050000D01*
X160230000Y-126950000D02*
X160230000Y-129550000D01*
X160230000Y-131480000D02*
X160230000Y-131450000D01*
%TO.C,SW7*%
X114750000Y-125020000D02*
X121210000Y-125020000D01*
X114750000Y-125050000D02*
X114750000Y-125020000D01*
X114750000Y-126950000D02*
X114750000Y-129550000D01*
X114750000Y-131480000D02*
X114750000Y-131450000D01*
X114750000Y-131480000D02*
X121210000Y-131480000D01*
X121210000Y-125020000D02*
X121210000Y-125050000D01*
X121210000Y-126950000D02*
X121210000Y-129550000D01*
X121210000Y-131480000D02*
X121210000Y-131450000D01*
%TO.C,J1*%
X114895000Y-69770000D02*
X116225000Y-69770000D01*
X114895000Y-71100000D02*
X114895000Y-69770000D01*
X117495000Y-69770000D02*
X135335000Y-69770000D01*
X117495000Y-72430000D02*
X117495000Y-69770000D01*
X117495000Y-72430000D02*
X135335000Y-72430000D01*
X135335000Y-72430000D02*
X135335000Y-69770000D01*
%TO.C,C1*%
X145765000Y-81738748D02*
X145765000Y-82261252D01*
X147235000Y-81738748D02*
X147235000Y-82261252D01*
%TO.C,SW9*%
X140750000Y-125020000D02*
X147210000Y-125020000D01*
X140750000Y-125050000D02*
X140750000Y-125020000D01*
X140750000Y-126950000D02*
X140750000Y-129550000D01*
X140750000Y-131480000D02*
X140750000Y-131450000D01*
X140750000Y-131480000D02*
X147210000Y-131480000D01*
X147210000Y-125020000D02*
X147210000Y-125050000D01*
X147210000Y-126950000D02*
X147210000Y-129550000D01*
X147210000Y-131480000D02*
X147210000Y-131450000D01*
%TO.C,SW0*%
X127750000Y-135520000D02*
X134210000Y-135520000D01*
X127750000Y-135550000D02*
X127750000Y-135520000D01*
X127750000Y-137450000D02*
X127750000Y-140050000D01*
X127750000Y-141980000D02*
X127750000Y-141950000D01*
X127750000Y-141980000D02*
X134210000Y-141980000D01*
X134210000Y-135520000D02*
X134210000Y-135550000D01*
X134210000Y-137450000D02*
X134210000Y-140050000D01*
X134210000Y-141980000D02*
X134210000Y-141950000D01*
%TO.C,SW_RESET1*%
X153790000Y-135520000D02*
X160250000Y-135520000D01*
X153790000Y-135550000D02*
X153790000Y-135520000D01*
X153790000Y-137450000D02*
X153790000Y-140050000D01*
X153790000Y-141980000D02*
X153790000Y-141950000D01*
X153790000Y-141980000D02*
X160250000Y-141980000D01*
X160250000Y-135520000D02*
X160250000Y-135550000D01*
X160250000Y-137450000D02*
X160250000Y-140050000D01*
X160250000Y-141980000D02*
X160250000Y-141950000D01*
%TO.C,SW4*%
X114750000Y-114520000D02*
X121210000Y-114520000D01*
X114750000Y-114550000D02*
X114750000Y-114520000D01*
X114750000Y-116450000D02*
X114750000Y-119050000D01*
X114750000Y-120980000D02*
X114750000Y-120950000D01*
X114750000Y-120980000D02*
X121210000Y-120980000D01*
X121210000Y-114520000D02*
X121210000Y-114550000D01*
X121210000Y-116450000D02*
X121210000Y-119050000D01*
X121210000Y-120980000D02*
X121210000Y-120950000D01*
D13*
%TO.C,Y1*%
X159883800Y-88081800D02*
X159883800Y-99918200D01*
X159883800Y-99918200D02*
X161786260Y-99918200D01*
X161786260Y-88081800D02*
X159883800Y-88081800D01*
X163213740Y-99918200D02*
X165116200Y-99918200D01*
X165116200Y-88081800D02*
X163213740Y-88081800D01*
X165116200Y-99918200D02*
X165116200Y-88081800D01*
D12*
%TO.C,C5*%
X138540000Y-63711252D02*
X138540000Y-63188748D01*
X140010000Y-63711252D02*
X140010000Y-63188748D01*
%TO.C,SW2*%
X127750000Y-104020000D02*
X134210000Y-104020000D01*
X127750000Y-104050000D02*
X127750000Y-104020000D01*
X127750000Y-105950000D02*
X127750000Y-108550000D01*
X127750000Y-110480000D02*
X127750000Y-110450000D01*
X127750000Y-110480000D02*
X134210000Y-110480000D01*
X134210000Y-104020000D02*
X134210000Y-104050000D01*
X134210000Y-105950000D02*
X134210000Y-108550000D01*
X134210000Y-110480000D02*
X134210000Y-110450000D01*
%TO.C,SW6*%
X140710000Y-114520000D02*
X147170000Y-114520000D01*
X140710000Y-114550000D02*
X140710000Y-114520000D01*
X140710000Y-116450000D02*
X140710000Y-119050000D01*
X140710000Y-120980000D02*
X140710000Y-120950000D01*
X140710000Y-120980000D02*
X147170000Y-120980000D01*
X147170000Y-114520000D02*
X147170000Y-114550000D01*
X147170000Y-116450000D02*
X147170000Y-119050000D01*
X147170000Y-120980000D02*
X147170000Y-120950000D01*
%TO.C,R1*%
X162685436Y-81265000D02*
X163139564Y-81265000D01*
X162685436Y-82735000D02*
X163139564Y-82735000D01*
%TO.C,J3*%
X138155000Y-50330000D02*
X138155000Y-49000000D01*
X139485000Y-50330000D02*
X138155000Y-50330000D01*
X140755000Y-47670000D02*
X143355000Y-47670000D01*
X140755000Y-50330000D02*
X140755000Y-47670000D01*
X140755000Y-50330000D02*
X143355000Y-50330000D01*
X143355000Y-50330000D02*
X143355000Y-47670000D01*
%TO.C,SW_UP1*%
X153770000Y-114520000D02*
X160230000Y-114520000D01*
X153770000Y-114550000D02*
X153770000Y-114520000D01*
X153770000Y-116450000D02*
X153770000Y-119050000D01*
X153770000Y-120980000D02*
X153770000Y-120950000D01*
X153770000Y-120980000D02*
X160230000Y-120980000D01*
X160230000Y-114520000D02*
X160230000Y-114550000D01*
X160230000Y-116450000D02*
X160230000Y-119050000D01*
X160230000Y-120980000D02*
X160230000Y-120950000D01*
%TO.C,U2*%
X149600000Y-74100000D02*
X149600000Y-71800000D01*
X149875000Y-57575000D02*
X166125000Y-57575000D01*
X149875000Y-73825000D02*
X149875000Y-57575000D01*
X151700000Y-74100000D02*
X149600000Y-74100000D01*
X166125000Y-57575000D02*
X166125000Y-73825000D01*
X166125000Y-73825000D02*
X149875000Y-73825000D01*
%TO.C,SW_MENU1*%
X153790000Y-104020000D02*
X160250000Y-104020000D01*
X153790000Y-104050000D02*
X153790000Y-104020000D01*
X153790000Y-105950000D02*
X153790000Y-108550000D01*
X153790000Y-110480000D02*
X153790000Y-110450000D01*
X153790000Y-110480000D02*
X160250000Y-110480000D01*
X160250000Y-104020000D02*
X160250000Y-104050000D01*
X160250000Y-105950000D02*
X160250000Y-108550000D01*
X160250000Y-110480000D02*
X160250000Y-110450000D01*
%TO.C,SW5*%
X127750000Y-114520000D02*
X134210000Y-114520000D01*
X127750000Y-114550000D02*
X127750000Y-114520000D01*
X127750000Y-116450000D02*
X127750000Y-119050000D01*
X127750000Y-120980000D02*
X127750000Y-120950000D01*
X127750000Y-120980000D02*
X134210000Y-120980000D01*
X134210000Y-114520000D02*
X134210000Y-114550000D01*
X134210000Y-116450000D02*
X134210000Y-119050000D01*
X134210000Y-120980000D02*
X134210000Y-120950000D01*
%TO.C,L1*%
X145174622Y-71890000D02*
X144375378Y-71890000D01*
X145174622Y-73010000D02*
X144375378Y-73010000D01*
%TO.C,R3*%
X164352500Y-138772936D02*
X164352500Y-139227064D01*
X165822500Y-138772936D02*
X165822500Y-139227064D01*
%TD*%
M02*
