%TF.GenerationSoftware,KiCad,Pcbnew,8.0.0*%
%TF.CreationDate,2024-03-05T15:49:07-06:00*%
%TF.ProjectId,handheld_tracker,68616e64-6865-46c6-945f-747261636b65,rev?*%
%TF.SameCoordinates,Original*%
%TF.FileFunction,Paste,Top*%
%TF.FilePolarity,Positive*%
%FSLAX46Y46*%
G04 Gerber Fmt 4.6, Leading zero omitted, Abs format (unit mm)*
G04 Created by KiCad (PCBNEW 8.0.0) date 2024-03-05 15:49:07*
%MOMM*%
%LPD*%
G01*
G04 APERTURE LIST*
G04 Aperture macros list*
%AMRoundRect*
0 Rectangle with rounded corners*
0 $1 Rounding radius*
0 $2 $3 $4 $5 $6 $7 $8 $9 X,Y pos of 4 corners*
0 Add a 4 corners polygon primitive as box body*
4,1,4,$2,$3,$4,$5,$6,$7,$8,$9,$2,$3,0*
0 Add four circle primitives for the rounded corners*
1,1,$1+$1,$2,$3*
1,1,$1+$1,$4,$5*
1,1,$1+$1,$6,$7*
1,1,$1+$1,$8,$9*
0 Add four rect primitives between the rounded corners*
20,1,$1+$1,$2,$3,$4,$5,0*
20,1,$1+$1,$4,$5,$6,$7,0*
20,1,$1+$1,$6,$7,$8,$9,0*
20,1,$1+$1,$8,$9,$2,$3,0*%
G04 Aperture macros list end*
%ADD10R,1.550000X1.300000*%
%ADD11RoundRect,0.250000X0.250000X0.475000X-0.250000X0.475000X-0.250000X-0.475000X0.250000X-0.475000X0*%
%ADD12R,0.720000X0.580000*%
%ADD13R,0.580000X0.720000*%
%ADD14RoundRect,0.250000X-0.475000X0.250000X-0.475000X-0.250000X0.475000X-0.250000X0.475000X0.250000X0*%
%ADD15R,0.550000X1.600000*%
%ADD16R,1.600000X0.550000*%
%ADD17RoundRect,0.250000X0.475000X-0.250000X0.475000X0.250000X-0.475000X0.250000X-0.475000X-0.250000X0*%
%ADD18RoundRect,0.150000X-0.150000X0.512500X-0.150000X-0.512500X0.150000X-0.512500X0.150000X0.512500X0*%
%ADD19RoundRect,0.250000X-0.262500X-0.450000X0.262500X-0.450000X0.262500X0.450000X-0.262500X0.450000X0*%
%ADD20R,0.762000X4.419600*%
%ADD21RoundRect,0.218750X0.218750X0.381250X-0.218750X0.381250X-0.218750X-0.381250X0.218750X-0.381250X0*%
%ADD22RoundRect,0.250000X-0.450000X0.262500X-0.450000X-0.262500X0.450000X-0.262500X0.450000X0.262500X0*%
G04 APERTURE END LIST*
D10*
%TO.C,SW8*%
X126960000Y-126000000D03*
X134920000Y-126000000D03*
X126960000Y-130500000D03*
X134920000Y-130500000D03*
%TD*%
D11*
%TO.C,C4*%
X145675000Y-62450000D03*
X143775000Y-62450000D03*
%TD*%
D12*
%TO.C,U1*%
X130750000Y-61125000D03*
X130750000Y-60275000D03*
X130750000Y-59225000D03*
X130750000Y-58375000D03*
X130750000Y-57325000D03*
X130750000Y-56475000D03*
X130750000Y-55425000D03*
X130750000Y-54575000D03*
X130750000Y-53525000D03*
X130750000Y-52675000D03*
X129750000Y-61125000D03*
X129750000Y-60275000D03*
X129750000Y-59225000D03*
X129750000Y-58375000D03*
X129750000Y-57325000D03*
X129750000Y-56475000D03*
X129750000Y-55425000D03*
X129750000Y-54575000D03*
X129750000Y-53525000D03*
X129750000Y-52675000D03*
D13*
X127875000Y-64000000D03*
X127875000Y-63000000D03*
X127875000Y-50800000D03*
X127875000Y-49800000D03*
X127025000Y-64000000D03*
X127025000Y-63000000D03*
X127025000Y-50800000D03*
X127025000Y-49800000D03*
X125975000Y-64000000D03*
X125975000Y-63000000D03*
X125975000Y-50800000D03*
X125975000Y-49800000D03*
X125125000Y-64000000D03*
X125125000Y-63000000D03*
X125125000Y-50800000D03*
X125125000Y-49800000D03*
X124075000Y-64000000D03*
X124075000Y-63000000D03*
X124075000Y-50800000D03*
X124075000Y-49800000D03*
X123225000Y-64000000D03*
X123225000Y-63000000D03*
X123225000Y-50800000D03*
X123225000Y-49800000D03*
X122175000Y-64000000D03*
X122175000Y-63000000D03*
X122175000Y-50800000D03*
X122175000Y-49800000D03*
X121325000Y-64000000D03*
X121325000Y-63000000D03*
X121325000Y-50800000D03*
X121325000Y-49800000D03*
X120275000Y-64000000D03*
X120275000Y-63000000D03*
X120275000Y-50800000D03*
X120275000Y-49800000D03*
X119425000Y-64000000D03*
X119425000Y-63000000D03*
X119425000Y-50800000D03*
X119425000Y-49800000D03*
D12*
X117550000Y-61125000D03*
X117550000Y-60275000D03*
X117550000Y-59225000D03*
X117550000Y-58375000D03*
X117550000Y-57325000D03*
X117550000Y-56475000D03*
X117550000Y-55425000D03*
X117550000Y-54575000D03*
X117550000Y-53525000D03*
X117550000Y-52675000D03*
X116550000Y-61125000D03*
X116550000Y-60275000D03*
X116550000Y-59225000D03*
X116550000Y-58375000D03*
X116550000Y-57325000D03*
X116550000Y-56475000D03*
X116550000Y-55425000D03*
X116550000Y-54575000D03*
X116550000Y-53525000D03*
X116550000Y-52675000D03*
%TD*%
D14*
%TO.C,C2*%
X168000000Y-99000000D03*
X168000000Y-100900000D03*
%TD*%
D15*
%TO.C,U3*%
X144200000Y-96750000D03*
X145000000Y-96750000D03*
X145800000Y-96750000D03*
X146600000Y-96750000D03*
X147400000Y-96750000D03*
X148200000Y-96750000D03*
X149000000Y-96750000D03*
X149800000Y-96750000D03*
D16*
X151250000Y-95300000D03*
X151250000Y-94500000D03*
X151250000Y-93700000D03*
X151250000Y-92900000D03*
X151250000Y-92100000D03*
X151250000Y-91300000D03*
X151250000Y-90500000D03*
X151250000Y-89700000D03*
D15*
X149800000Y-88250000D03*
X149000000Y-88250000D03*
X148200000Y-88250000D03*
X147400000Y-88250000D03*
X146600000Y-88250000D03*
X145800000Y-88250000D03*
X145000000Y-88250000D03*
X144200000Y-88250000D03*
D16*
X142750000Y-89700000D03*
X142750000Y-90500000D03*
X142750000Y-91300000D03*
X142750000Y-92100000D03*
X142750000Y-92900000D03*
X142750000Y-93700000D03*
X142750000Y-94500000D03*
X142750000Y-95300000D03*
%TD*%
D10*
%TO.C,SW1*%
X114000000Y-105000000D03*
X121960000Y-105000000D03*
X114000000Y-109500000D03*
X121960000Y-109500000D03*
%TD*%
D17*
%TO.C,C3*%
X167950000Y-89400000D03*
X167950000Y-87500000D03*
%TD*%
D10*
%TO.C,SW_DOT1*%
X114000000Y-136500000D03*
X121960000Y-136500000D03*
X114000000Y-141000000D03*
X121960000Y-141000000D03*
%TD*%
%TO.C,SW3*%
X140000000Y-105000000D03*
X147960000Y-105000000D03*
X140000000Y-109500000D03*
X147960000Y-109500000D03*
%TD*%
D18*
%TO.C,U4*%
X145550000Y-66312500D03*
X144600000Y-66312500D03*
X143650000Y-66312500D03*
X143650000Y-68587500D03*
X145550000Y-68587500D03*
%TD*%
D10*
%TO.C,SW_ENTER1*%
X140000000Y-136500000D03*
X147960000Y-136500000D03*
X140000000Y-141000000D03*
X147960000Y-141000000D03*
%TD*%
D19*
%TO.C,R2*%
X162087500Y-78500000D03*
X163912500Y-78500000D03*
%TD*%
D10*
%TO.C,SW_DOWN1*%
X153020000Y-126000000D03*
X160980000Y-126000000D03*
X153020000Y-130500000D03*
X160980000Y-130500000D03*
%TD*%
%TO.C,SW7*%
X114000000Y-126000000D03*
X121960000Y-126000000D03*
X114000000Y-130500000D03*
X121960000Y-130500000D03*
%TD*%
D14*
%TO.C,C1*%
X146500000Y-81050000D03*
X146500000Y-82950000D03*
%TD*%
D10*
%TO.C,SW9*%
X140000000Y-126000000D03*
X147960000Y-126000000D03*
X140000000Y-130500000D03*
X147960000Y-130500000D03*
%TD*%
%TO.C,SW0*%
X127000000Y-136500000D03*
X134960000Y-136500000D03*
X127000000Y-141000000D03*
X134960000Y-141000000D03*
%TD*%
%TO.C,SW_RESET1*%
X153040000Y-136500000D03*
X161000000Y-136500000D03*
X153040000Y-141000000D03*
X161000000Y-141000000D03*
%TD*%
%TO.C,SW4*%
X114000000Y-115500000D03*
X121960000Y-115500000D03*
X114000000Y-120000000D03*
X121960000Y-120000000D03*
%TD*%
D20*
%TO.C,Y1*%
X162500000Y-89250200D03*
X162500000Y-98749800D03*
%TD*%
D17*
%TO.C,C5*%
X139275000Y-64400000D03*
X139275000Y-62500000D03*
%TD*%
D10*
%TO.C,SW2*%
X127000000Y-105000000D03*
X134960000Y-105000000D03*
X127000000Y-109500000D03*
X134960000Y-109500000D03*
%TD*%
%TO.C,SW6*%
X139960000Y-115500000D03*
X147920000Y-115500000D03*
X139960000Y-120000000D03*
X147920000Y-120000000D03*
%TD*%
D19*
%TO.C,R1*%
X162000000Y-82000000D03*
X163825000Y-82000000D03*
%TD*%
D10*
%TO.C,SW_UP1*%
X153020000Y-115500000D03*
X160980000Y-115500000D03*
X153020000Y-120000000D03*
X160980000Y-120000000D03*
%TD*%
%TO.C,SW_MENU1*%
X153040000Y-105000000D03*
X161000000Y-105000000D03*
X153040000Y-109500000D03*
X161000000Y-109500000D03*
%TD*%
%TO.C,SW5*%
X127000000Y-115500000D03*
X134960000Y-115500000D03*
X127000000Y-120000000D03*
X134960000Y-120000000D03*
%TD*%
D21*
%TO.C,L1*%
X145837500Y-72450000D03*
X143712500Y-72450000D03*
%TD*%
D22*
%TO.C,R3*%
X165087500Y-138087500D03*
X165087500Y-139912500D03*
%TD*%
M02*
